<svg xmlns="http://www.w3.org/2000/svg" viewBox="0 0 297.94 327.56"><defs><style>.f55b891f-48df-4dc7-8004-fe1fb865a84c{fill:#482fdf;}.fcd56e4d-bf91-4862-aa12-4d6951aaf906{fill:#f0f0f0;}.\33 2e0423e-d602-4b0d-8fda-8ad7eb7968f3{fill:#dcdcdc;}.\35 bc65017-427e-4e32-83f2-7b8aa9b493c6{fill:#fff;}.\37 4f630c2-de9a-491f-939d-54d8e2ec9a45{fill:#40ede2;}.\39 744f96e-c102-483f-94eb-53942bf413fb{fill:none;stroke:#482fdf;stroke-miterlimit:10;stroke-width:0.95px;}</style></defs><title>Asset 1</title><g id="dfdee419-c054-44ae-8e56-64ed93dd2750" data-name="Layer 2"><g id="01de9a61-acd6-484a-8fde-2f497f78533c" data-name="bluebg"><path class="f55b891f-48df-4dc7-8004-fe1fb865a84c" d="M297.93,6.12V316.6c0,11,0,11-8.81,11H8.81c-8.81,0-8.81,0-8.81-11V6.12C0,0,0,0,8.81,0H289.12C297.93,0,297.93,0,297.93,6.12Z"/></g><g id="95dc9e74-6934-4325-a409-4e01ce9323b1" data-name="top"><path class="fcd56e4d-bf91-4862-aa12-4d6951aaf906" d="M0,12.44V6.12C0,0,0,0,8.81,0H289.12c8.82,0,8.82,0,8.82,6.12v6.07"/><ellipse class="f55b891f-48df-4dc7-8004-fe1fb865a84c" cx="8.51" cy="6.49" rx="2.12" ry="2.25"/><ellipse class="f55b891f-48df-4dc7-8004-fe1fb865a84c" cx="15.29" cy="6.49" rx="2.12" ry="2.25"/><ellipse class="f55b891f-48df-4dc7-8004-fe1fb865a84c" cx="22.07" cy="6.49" rx="2.12" ry="2.25"/><path class="32e0423e-d602-4b0d-8fda-8ad7eb7968f3" d="M297.93,12.14V23.23H0V12.14H35.1c.65-1.38,3.39-7,5.22-7h28c2.43,0,5.52,5.61,6.25,7Z"/></g><g id="1beb0bf1-6751-4d5b-895c-4a766b764769" data-name="whitecont"><rect class="5bc65017-427e-4e32-83f2-7b8aa9b493c6" x="36.41" y="51.68" width="229.41" height="32.39"/><rect class="5bc65017-427e-4e32-83f2-7b8aa9b493c6" x="98.79" y="173.02" width="167.03" height="122.39"/><rect class="5bc65017-427e-4e32-83f2-7b8aa9b493c6" x="36.41" y="90.68" width="52.6" height="204.74"/><rect class="5bc65017-427e-4e32-83f2-7b8aa9b493c6" x="97.82" y="90.68" width="52.6" height="75.73"/></g><g id="47820efe-a247-4ab6-bf31-54bf6aa134e5" data-name="greenvid"><rect class="74f630c2-de9a-491f-939d-54d8e2ec9a45" x="159.22" y="90.68" width="106.59" height="76.05"/></g><g id="e7580fcd-c485-4db3-8d35-e880f1962f61" data-name="lines"><line class="9744f96e-c102-483f-94eb-53942bf413fb" x1="163.94" y1="160.26" x2="163.94" y2="163.76"/><line class="9744f96e-c102-483f-94eb-53942bf413fb" x1="166.06" y1="160.26" x2="166.06" y2="163.76"/><line class="9744f96e-c102-483f-94eb-53942bf413fb" x1="159.22" y1="157.43" x2="265.82" y2="157.43"/></g></g></svg>