<svg xmlns="http://www.w3.org/2000/svg" viewBox="0 0 297.94 327.56"><defs><style>.\35 13dbcf8-b4b7-4ead-804e-b381cad1020b{fill:#482fdf;}.bb46147e-f71c-4d17-832b-253fd8e2c9b2{fill:#f0f0f0;}.\31 51be523-bfcd-47fc-abf7-5f9a60d184b6{fill:#dcdcdc;}.bbe3248b-abe9-4e50-af21-37579a1e7fbc{fill:#fff;}</style></defs><title>Asset 1</title><g id="d62abd6c-3045-4b9e-ae59-88c4839bf018" data-name="Layer 2"><g id="43470c1b-1709-4886-95d6-15e7778f94af" data-name="bluebg"><path class="513dbcf8-b4b7-4ead-804e-b381cad1020b" d="M297.93,6.12V316.6c0,11,0,11-8.81,11H8.81c-8.81,0-8.81,0-8.81-11V6.12C0,0,0,0,8.81,0H289.12C297.93,0,297.93,0,297.93,6.12Z"/></g><g id="3e126d8a-6679-40fd-b4d3-ef2a2c87f595" data-name="top"><path class="bb46147e-f71c-4d17-832b-253fd8e2c9b2" d="M0,12.44V6.12C0,0,0,0,8.81,0H289.12c8.82,0,8.82,0,8.82,6.12v6.07"/><ellipse class="513dbcf8-b4b7-4ead-804e-b381cad1020b" cx="8.51" cy="6.49" rx="2.12" ry="2.25"/><ellipse class="513dbcf8-b4b7-4ead-804e-b381cad1020b" cx="15.29" cy="6.49" rx="2.12" ry="2.25"/><ellipse class="513dbcf8-b4b7-4ead-804e-b381cad1020b" cx="22.07" cy="6.49" rx="2.12" ry="2.25"/><path class="151be523-bfcd-47fc-abf7-5f9a60d184b6" d="M297.93,12.14V23.23H0V12.14H35.1c.65-1.38,3.39-7,5.22-7h28c2.43,0,5.52,5.61,6.25,7Z"/></g><g id="27c7281c-f4af-428c-8958-cb575cb553c9" data-name="whitecont"><rect class="bbe3248b-abe9-4e50-af21-37579a1e7fbc" x="36.41" y="51.68" width="229.41" height="32.39"/><rect class="bbe3248b-abe9-4e50-af21-37579a1e7fbc" x="98.79" y="173.02" width="167.03" height="122.39"/><rect class="bbe3248b-abe9-4e50-af21-37579a1e7fbc" x="36.41" y="90.68" width="52.6" height="204.74"/><rect class="bbe3248b-abe9-4e50-af21-37579a1e7fbc" x="97.82" y="90.68" width="52.6" height="75.73"/><rect class="bbe3248b-abe9-4e50-af21-37579a1e7fbc" x="159.22" y="90.68" width="106.59" height="76.05"/></g></g></svg>