<?xml version="1.0" encoding="utf-8"?>
<!-- Generator: Adobe Illustrator 22.0.1, SVG Export Plug-In . SVG Version: 6.00 Build 0)  -->
<!DOCTYPE svg PUBLIC "-//W3C//DTD SVG 1.1//EN" "http://www.w3.org/Graphics/SVG/1.1/DTD/svg11.dtd">
<svg version="1.1" id="Layer_1" xmlns="http://www.w3.org/2000/svg" xmlns:xlink="http://www.w3.org/1999/xlink" x="0px" y="0px"
	 viewBox="0 0 688.1 453.6" style="enable-background:new 0 0 688.1 453.6;" xml:space="preserve">
<style type="text/css">
	.st0{fill:#40EDE2;}
	.st1{fill:#F0F0F0;}
	.st2{fill:#DCDCDC;}
	.st3{enable-background:new    ;}
	.st4{fill:#FFFFFF;}
</style>
<g>
	<g>
		<path class="st0" d="M688.1,16.2v409.4c0,27.9,0,27.9-24.9,27.9H24.9C0,453.6,0,453.6,0,425.7V16.2C0,0.5,0,0.5,24.9,0.5h638.3
			C688.1,0.5,688.1,0.5,688.1,16.2z"/>
		<path class="st1" d="M0,31.9V15.7C0,0,0,0,24.9,0h638.3c24.9,0,24.9,0,24.9,15.7v15.6"/>
		<ellipse class="st0" cx="24.1" cy="16.7" rx="6" ry="5.8"/>
		<ellipse class="st0" cx="43.2" cy="16.7" rx="6" ry="5.8"/>
		<ellipse class="st0" cx="62.4" cy="16.7" rx="6" ry="5.8"/>
		<path class="st2" d="M688.1,31.2v28.5H0V31.2h99.2c1.8-3.5,9.6-18,14.8-18h79.2c6.9,0,15.6,14.5,17.7,18H688.1z"/>
	</g>
	<g class="st3">
		<path class="st4" d="M211.2,215.3h-2.9l-0.5-2.7c-0.3-0.2-0.8-0.4-1.5-0.6c-0.7-0.2-1.3-0.2-2.1-0.2c-1.1,0-1.9,0.2-2.5,0.7
			c-0.6,0.5-0.9,1-0.9,1.7c0,0.7,0.3,1.2,0.9,1.6c0.6,0.4,1.7,0.9,3.2,1.3c2.2,0.6,3.8,1.4,4.9,2.4c1.1,1,1.7,2.3,1.7,3.9
			c0,1.7-0.7,3-2,4c-1.3,1-3.1,1.4-5.2,1.4c-1.5,0-2.9-0.2-4.2-0.7c-1.2-0.5-2.3-1.2-3.1-2v-4.1h3l0.4,2.8c0.4,0.3,0.9,0.6,1.6,0.8
			c0.7,0.2,1.4,0.3,2.3,0.3c1.1,0,1.9-0.2,2.4-0.7c0.6-0.4,0.8-1,0.8-1.8c0-0.8-0.3-1.4-0.8-1.8c-0.5-0.5-1.5-0.9-2.8-1.3
			c-2.3-0.7-4.1-1.5-5.2-2.4c-1.2-0.9-1.8-2.2-1.8-3.8c0-1.6,0.7-2.9,2-3.9c1.3-1,3-1.5,5-1.5c1.5,0,2.9,0.2,4.1,0.7
			s2.3,1.1,3.1,1.8V215.3z"/>
		<path class="st4" d="M213.2,221.2c0-2.2,0.6-3.9,1.8-5.3s2.9-2.1,5-2.1c2.1,0,3.8,0.7,5,2.1c1.2,1.4,1.8,3.1,1.8,5.3v0.3
			c0,2.2-0.6,4-1.8,5.3c-1.2,1.4-2.9,2.1-5,2.1c-2.2,0-3.8-0.7-5-2.1c-1.2-1.4-1.8-3.1-1.8-5.3V221.2z M217.1,221.5
			c0,1.3,0.2,2.4,0.7,3.2c0.5,0.8,1.2,1.2,2.2,1.2c1,0,1.7-0.4,2.2-1.2c0.5-0.8,0.7-1.9,0.7-3.2v-0.3c0-1.3-0.2-2.3-0.7-3.1
			c-0.5-0.8-1.2-1.2-2.2-1.2s-1.8,0.4-2.2,1.2c-0.5,0.8-0.7,1.9-0.7,3.1V221.5z"/>
		<path class="st4" d="M228.8,226.3l1.9-0.4v-9l-2.1-0.4v-2.4h5.7l0.2,2.1c0.3-0.8,0.8-1.3,1.3-1.8c0.5-0.4,1.2-0.6,1.9-0.6
			c0.2,0,0.4,0,0.6,0s0.4,0.1,0.6,0.1l-0.4,3.6l-1.6,0c-0.6,0-1,0.1-1.4,0.3s-0.7,0.5-0.9,1v7l1.9,0.4v2.3h-7.7V226.3z"/>
		<path class="st4" d="M240.4,226.3l1.9-0.4v-9l-2.1-0.4v-2.4h5.7l0.2,2.1c0.3-0.8,0.8-1.3,1.3-1.8c0.5-0.4,1.2-0.6,1.9-0.6
			c0.2,0,0.4,0,0.6,0s0.4,0.1,0.6,0.1l-0.4,3.6l-1.6,0c-0.6,0-1,0.1-1.4,0.3s-0.7,0.5-0.9,1v7l1.9,0.4v2.3h-7.7V226.3z"/>
		<path class="st4" d="M266.8,216.5l-1.4,0.2l-5.3,14.1c-0.4,1-1,1.9-1.7,2.6s-1.8,1.1-3.2,1.1c-0.3,0-0.6,0-0.9-0.1
			c-0.3-0.1-0.6-0.1-1-0.2l0.5-2.9c0.1,0,0.3,0,0.4,0.1c0.1,0,0.2,0,0.3,0c0.7,0,1.2-0.2,1.5-0.5c0.3-0.3,0.6-0.7,0.8-1.2l0.4-1.1
			l-4.6-11.9l-1.4-0.2v-2.4h7.1v2.4l-1.6,0.3l2,5.8l0.2,1l0.1,0l2.3-6.8l-1.6-0.3v-2.4h7.1V216.5z"/>
		<path class="st4" d="M270.4,228.1c0,0.9-0.3,1.9-0.8,2.9c-0.5,1-1.1,1.9-1.9,2.5l-1.9-1c0.3-0.6,0.6-1.3,0.8-1.9s0.3-1.4,0.3-2.2
			v-2.9h3.5L270.4,228.1z"/>
		<path class="st4" d="M288.5,228.6c-0.1-0.2-0.2-0.5-0.3-0.7c-0.1-0.3-0.1-0.5-0.2-0.8c-0.5,0.5-1,1-1.7,1.3
			c-0.7,0.3-1.4,0.5-2.3,0.5c-1.4,0-2.5-0.4-3.4-1.2s-1.3-1.8-1.3-3.2c0-1.4,0.5-2.4,1.6-3.1c1.1-0.7,2.7-1.1,4.8-1.1h2v-1.4
			c0-0.7-0.2-1.2-0.6-1.6c-0.4-0.4-1-0.6-1.8-0.6c-0.4,0-0.8,0.1-1.2,0.2s-0.6,0.2-0.8,0.4l-0.3,1.6h-2.9l0-3.2
			c0.7-0.5,1.5-0.9,2.5-1.2s1.9-0.5,3-0.5c1.8,0,3.3,0.4,4.4,1.3c1.1,0.9,1.7,2.1,1.7,3.8v6c0,0.2,0,0.4,0,0.6c0,0.2,0,0.4,0,0.6
			l1.2,0.2v2.3H288.5z M285.1,226c0.6,0,1.1-0.1,1.6-0.4c0.5-0.3,0.9-0.6,1.1-1v-2.2h-2c-0.8,0-1.5,0.2-1.9,0.6
			c-0.4,0.4-0.6,0.9-0.6,1.4c0,0.5,0.2,0.9,0.5,1.2C284.1,225.9,284.6,226,285.1,226z"/>
		<path class="st4" d="M293.9,216.5v-2.4h5.7l0.2,1.9c0.5-0.7,1-1.2,1.7-1.6c0.7-0.4,1.5-0.6,2.4-0.6c0.9,0,1.7,0.2,2.4,0.6
			c0.7,0.4,1.2,1,1.5,1.9c0.4-0.8,1-1.4,1.7-1.8c0.7-0.4,1.6-0.7,2.5-0.7c1.4,0,2.6,0.5,3.4,1.5s1.2,2.5,1.2,4.5v6l1.9,0.4v2.3h-7.5
			v-2.3l1.7-0.4v-6c0-1.1-0.2-1.9-0.5-2.3c-0.4-0.4-0.9-0.6-1.6-0.6c-0.6,0-1,0.1-1.4,0.4c-0.4,0.2-0.7,0.6-1,1c0,0.2,0,0.3,0,0.4
			c0,0.1,0,0.2,0,0.4v6.8l1.6,0.4v2.3h-7.1v-2.3l1.6-0.4v-6c0-1.1-0.2-1.8-0.5-2.3c-0.4-0.4-0.9-0.7-1.6-0.7c-0.5,0-1,0.1-1.4,0.3
			c-0.4,0.2-0.7,0.5-1,0.8v7.8l1.7,0.4v2.3h-7.5v-2.3l1.9-0.4v-9L293.9,216.5z"/>
		<path class="st4" d="M326.5,211.5v-2.4h8.1v2.4l-2.1,0.4v14l2.1,0.4v2.3h-8.1v-2.3l2.1-0.4v-14L326.5,211.5z"/>
		<path class="st4" d="M342.7,226.3l1.9-0.4v-9l-2.1-0.4v-2.4h6v11.7l1.9,0.4v2.3h-7.7V226.3z M348.5,210.7h-3.9v-2.9h3.9V210.7z"/>
		<path class="st4" d="M351.5,226.3l1.9-0.4v-9l-2.1-0.4v-2.4h5.7l0.2,2.1c0.5-0.7,1.1-1.3,1.8-1.7c0.7-0.4,1.5-0.6,2.4-0.6
			c1.5,0,2.6,0.5,3.4,1.4c0.8,0.9,1.2,2.4,1.2,4.3v6.3l1.9,0.4v2.3h-7.5v-2.3l1.7-0.4v-6.3c0-1-0.2-1.7-0.6-2.1
			c-0.4-0.4-1-0.6-1.8-0.6c-0.5,0-1,0.1-1.4,0.3c-0.4,0.2-0.8,0.5-1,0.9v7.8l1.6,0.4v2.3h-7.4V226.3z"/>
		<path class="st4" d="M381.6,210.6v3.5h2.5v2.7h-2.5v7.4c0,0.6,0.1,1,0.3,1.2c0.2,0.2,0.5,0.4,0.9,0.4c0.3,0,0.5,0,0.7,0
			s0.4-0.1,0.7-0.1l0.3,2.8c-0.4,0.1-0.9,0.2-1.3,0.3c-0.4,0.1-0.9,0.1-1.4,0.1c-1.3,0-2.4-0.4-3.1-1.1s-1.1-1.9-1.1-3.5v-7.4h-2.1
			v-2.7h2.1v-3.5H381.6z"/>
		<path class="st4" d="M385.8,226.3l1.9-0.4v-15.4l-2.1-0.4v-2.4h6v8.2c0.5-0.7,1-1.2,1.7-1.6c0.7-0.4,1.4-0.6,2.2-0.6
			c1.5,0,2.7,0.5,3.6,1.5c0.9,1,1.3,2.6,1.3,4.7v5.9l1.9,0.4v2.3h-7.5v-2.3l1.7-0.4V220c0-1.1-0.2-1.9-0.6-2.4s-1-0.7-1.8-0.7
			c-0.5,0-1,0.1-1.4,0.3s-0.7,0.5-1,0.8v7.8l1.7,0.4v2.3h-7.5V226.3z"/>
		<path class="st4" d="M410.3,228.9c-2.1,0-3.8-0.7-5-2c-1.2-1.3-1.9-3-1.9-5.1v-0.5c0-2.2,0.6-3.9,1.8-5.3c1.2-1.4,2.8-2.1,4.8-2.1
			c2,0,3.5,0.6,4.6,1.8c1.1,1.2,1.6,2.8,1.6,4.8v2.1h-8.6l0,0.1c0.1,1,0.4,1.7,1,2.4c0.6,0.6,1.3,0.9,2.3,0.9c0.9,0,1.6-0.1,2.2-0.3
			c0.6-0.2,1.2-0.4,1.9-0.8l1.1,2.4c-0.6,0.5-1.4,0.9-2.3,1.2C412.5,228.7,411.5,228.9,410.3,228.9z M409.9,216.9
			c-0.7,0-1.3,0.3-1.7,0.8c-0.4,0.6-0.7,1.3-0.8,2.2l0,0.1h4.8v-0.3c0-0.8-0.2-1.5-0.6-2C411.3,217.1,410.7,216.9,409.9,216.9z"/>
		<path class="st4" d="M445.3,216.5l-1.5,0.2l-3,11.9h-3.3l-2.7-8.6h-0.1l-2.7,8.6h-3.3l-3-11.9l-1.5-0.2v-2.4h6.6v2.4l-1.5,0.3
			l1.4,6.6h0.1l2.7-9.3h2.6l2.7,9.3h0.1l1.4-6.6l-1.6-0.3v-2.4h6.6V216.5z"/>
		<path class="st4" d="M455.9,228.6c-0.1-0.2-0.2-0.5-0.3-0.7c-0.1-0.3-0.1-0.5-0.2-0.8c-0.5,0.5-1,1-1.7,1.3s-1.4,0.5-2.3,0.5
			c-1.4,0-2.5-0.4-3.4-1.2c-0.8-0.8-1.3-1.8-1.3-3.2c0-1.4,0.5-2.4,1.6-3.1s2.7-1.1,4.8-1.1h2v-1.4c0-0.7-0.2-1.2-0.6-1.6
			c-0.4-0.4-1-0.6-1.8-0.6c-0.4,0-0.8,0.1-1.2,0.2c-0.3,0.1-0.6,0.2-0.8,0.4l-0.3,1.6h-2.9l0-3.2c0.7-0.5,1.5-0.9,2.5-1.2
			s1.9-0.5,3-0.5c1.8,0,3.3,0.4,4.4,1.3c1.1,0.9,1.7,2.1,1.7,3.8v6c0,0.2,0,0.4,0,0.6c0,0.2,0,0.4,0,0.6l1.2,0.2v2.3H455.9z
			 M452.5,226c0.6,0,1.1-0.1,1.6-0.4c0.5-0.3,0.9-0.6,1.1-1v-2.2h-2c-0.8,0-1.5,0.2-1.9,0.6c-0.4,0.4-0.6,0.9-0.6,1.4
			c0,0.5,0.2,0.9,0.5,1.2C451.5,225.9,451.9,226,452.5,226z"/>
		<path class="st4" d="M476.5,216.5l-1.4,0.2l-5.3,14.1c-0.4,1-1,1.9-1.7,2.6c-0.7,0.7-1.8,1.1-3.2,1.1c-0.3,0-0.6,0-0.9-0.1
			c-0.3-0.1-0.6-0.1-1-0.2l0.5-2.9c0.1,0,0.3,0,0.4,0.1c0.1,0,0.2,0,0.3,0c0.7,0,1.2-0.2,1.5-0.5c0.3-0.3,0.6-0.7,0.8-1.2l0.4-1.1
			l-4.6-11.9l-1.4-0.2v-2.4h7.1v2.4l-1.6,0.3l2,5.8l0.2,1l0.1,0l2.3-6.8l-1.6-0.3v-2.4h7.1V216.5z"/>
		<path class="st4" d="M481.3,223.1c0-1.2,0.2-2.2,0.6-2.7s1.1-1.3,2.2-2.1c0.6-0.5,1.1-1.1,1.5-1.7c0.4-0.6,0.6-1.3,0.6-2
			c0-0.8-0.2-1.5-0.6-1.9s-1.1-0.7-1.9-0.7c-0.7,0-1.2,0.2-1.7,0.6c-0.5,0.4-0.7,1-0.7,1.7h-3.8l0-0.1c0-1.7,0.5-3,1.7-3.9
			c1.2-0.9,2.7-1.4,4.5-1.4c2,0,3.6,0.5,4.7,1.5c1.1,1,1.7,2.4,1.7,4.1c0,1.1-0.3,2.2-1,3.1s-1.5,1.8-2.5,2.4
			c-0.5,0.4-0.9,0.8-1.1,1.3c-0.2,0.4-0.3,1-0.3,1.7H481.3z M485.2,228.6h-3.9v-3.3h3.9V228.6z"/>
	</g>
	<g class="st3">
		<path class="st4" d="M288.8,393.5h-1v10.9h1v1.5h-3v-13.9h3V393.5z"/>
		<path class="st4" d="M292.8,402.2c0.4,0,0.6-0.1,0.9-0.3c0.2-0.2,0.3-0.5,0.3-0.8h1.8l0,0c0,0.7-0.3,1.4-0.8,1.9
			c-0.6,0.5-1.3,0.8-2.2,0.8c-1.1,0-2-0.3-2.5-1s-0.9-1.6-0.9-2.7v-0.2c0-1.1,0.3-2,0.9-2.7s1.5-1.1,2.6-1.1c0.6,0,1.1,0.1,1.6,0.3
			s0.9,0.4,1.2,0.8l0,2h-1.6l-0.3-1.2c-0.1-0.1-0.2-0.2-0.4-0.2c-0.1-0.1-0.3-0.1-0.5-0.1c-0.6,0-1,0.2-1.2,0.6s-0.3,0.9-0.3,1.6
			v0.2c0,0.7,0.1,1.2,0.3,1.6C291.8,402,292.2,402.2,292.8,402.2z"/>
		<path class="st4" d="M296.4,394.2v-1.2h3.1v9.3l1,0.2v1.2h-3.9v-1.2l1-0.2v-7.9L296.4,394.2z"/>
		<path class="st4" d="M301.1,402.4l1-0.2v-4.6l-1.1-0.2v-1.2h3.1v6l1,0.2v1.2h-3.9V402.4z M304,394.4h-2v-1.5h2V394.4z"/>
		<path class="st4" d="M309.1,402.2c0.4,0,0.6-0.1,0.9-0.3c0.2-0.2,0.3-0.5,0.3-0.8h1.8l0,0c0,0.7-0.3,1.4-0.8,1.9
			c-0.6,0.5-1.3,0.8-2.2,0.8c-1.1,0-2-0.3-2.5-1s-0.9-1.6-0.9-2.7v-0.2c0-1.1,0.3-2,0.9-2.7s1.5-1.1,2.6-1.1c0.6,0,1.1,0.1,1.6,0.3
			s0.9,0.4,1.2,0.8l0,2h-1.6l-0.3-1.2c-0.1-0.1-0.2-0.2-0.4-0.2c-0.1-0.1-0.3-0.1-0.5-0.1c-0.6,0-1,0.2-1.2,0.6s-0.3,0.9-0.3,1.6
			v0.2c0,0.7,0.1,1.2,0.3,1.6C308.2,402,308.6,402.2,309.1,402.2z"/>
		<path class="st4" d="M312.8,394.2v-1.2h3.1v6.2h0.4l1.1-1.6l-0.6-0.1v-1.2h3.6v1.2l-0.9,0.2l-1.3,1.8l1.9,2.8l0.8,0.2v1.2h-3.4
			v-1.2l0.4-0.1l-1.1-1.8h-0.9v1.7l0.9,0.2v1.2h-3.8v-1.2l1-0.2v-7.9L312.8,394.2z"/>
		<path class="st4" d="M327.9,394.4v1.8h1.3v1.4h-1.3v3.8c0,0.3,0.1,0.5,0.2,0.6s0.3,0.2,0.5,0.2c0.1,0,0.3,0,0.4,0
			c0.1,0,0.2,0,0.3-0.1l0.2,1.4c-0.2,0.1-0.4,0.1-0.7,0.2c-0.2,0-0.5,0.1-0.7,0.1c-0.7,0-1.2-0.2-1.6-0.6s-0.6-1-0.6-1.8v-3.8h-1.1
			v-1.4h1.1v-1.8H327.9z"/>
		<path class="st4" d="M330,399.8c0-1.1,0.3-2,0.9-2.7c0.6-0.7,1.5-1.1,2.6-1.1c1.1,0,1.9,0.4,2.6,1.1s0.9,1.6,0.9,2.7v0.1
			c0,1.1-0.3,2-0.9,2.7c-0.6,0.7-1.5,1-2.6,1c-1.1,0-2-0.3-2.6-1c-0.6-0.7-0.9-1.6-0.9-2.7V399.8z M332,400c0,0.7,0.1,1.2,0.4,1.6
			c0.2,0.4,0.6,0.6,1.1,0.6c0.5,0,0.9-0.2,1.1-0.6s0.4-1,0.4-1.6v-0.1c0-0.7-0.1-1.2-0.4-1.6s-0.6-0.6-1.1-0.6s-0.9,0.2-1.1,0.6
			s-0.4,1-0.4,1.6V400z"/>
		<path class="st4" d="M344.8,402.2c0.4,0,0.6-0.1,0.9-0.3c0.2-0.2,0.3-0.5,0.3-0.8h1.8l0,0c0,0.7-0.3,1.4-0.8,1.9
			c-0.6,0.5-1.3,0.8-2.2,0.8c-1.1,0-2-0.3-2.5-1s-0.9-1.6-0.9-2.7v-0.2c0-1.1,0.3-2,0.9-2.7s1.5-1.1,2.6-1.1c0.6,0,1.1,0.1,1.6,0.3
			c0.5,0.2,0.9,0.4,1.2,0.8l0,2H346l-0.3-1.2c-0.1-0.1-0.2-0.2-0.4-0.2c-0.1-0.1-0.3-0.1-0.5-0.1c-0.6,0-1,0.2-1.2,0.6
			s-0.3,0.9-0.3,1.6v0.2c0,0.7,0.1,1.2,0.3,1.6C343.8,402,344.2,402.2,344.8,402.2z"/>
		<path class="st4" d="M348.4,394.2v-1.2h3.1v9.3l1,0.2v1.2h-3.9v-1.2l1-0.2v-7.9L348.4,394.2z"/>
		<path class="st4" d="M353,399.8c0-1.1,0.3-2,0.9-2.7c0.6-0.7,1.5-1.1,2.6-1.1c1.1,0,1.9,0.4,2.6,1.1c0.6,0.7,0.9,1.6,0.9,2.7v0.1
			c0,1.1-0.3,2-0.9,2.7c-0.6,0.7-1.5,1-2.6,1c-1.1,0-2-0.3-2.6-1c-0.6-0.7-0.9-1.6-0.9-2.7V399.8z M355,400c0,0.7,0.1,1.2,0.4,1.6
			c0.2,0.4,0.6,0.6,1.1,0.6c0.5,0,0.9-0.2,1.1-0.6s0.4-1,0.4-1.6v-0.1c0-0.7-0.1-1.2-0.4-1.6c-0.2-0.4-0.6-0.6-1.1-0.6
			s-0.9,0.2-1.1,0.6c-0.2,0.4-0.4,1-0.4,1.6V400z"/>
		<path class="st4" d="M366.9,398.8h-1.3l-0.2-0.9c-0.1-0.1-0.3-0.2-0.5-0.3c-0.2-0.1-0.4-0.1-0.7-0.1c-0.4,0-0.6,0.1-0.8,0.2
			c-0.2,0.2-0.3,0.4-0.3,0.6c0,0.2,0.1,0.4,0.3,0.6c0.2,0.1,0.6,0.3,1.2,0.4c0.9,0.2,1.6,0.5,2,0.8c0.4,0.4,0.7,0.8,0.7,1.5
			c0,0.7-0.3,1.2-0.9,1.6c-0.6,0.4-1.3,0.6-2.3,0.6c-0.6,0-1.1-0.1-1.6-0.2c-0.5-0.2-0.9-0.4-1.3-0.7l0-1.7h1.4l0.3,1
			c0.1,0.1,0.3,0.2,0.5,0.2c0.2,0,0.4,0.1,0.6,0.1c0.4,0,0.7-0.1,0.9-0.2s0.3-0.3,0.3-0.6c0-0.2-0.1-0.4-0.3-0.6
			c-0.2-0.2-0.6-0.3-1.2-0.4c-0.9-0.2-1.5-0.4-2-0.8c-0.4-0.3-0.7-0.8-0.7-1.4c0-0.6,0.3-1.2,0.8-1.6c0.5-0.4,1.2-0.7,2.2-0.7
			c0.6,0,1.1,0.1,1.6,0.2s0.9,0.4,1.2,0.6L366.9,398.8z"/>
		<path class="st4" d="M371.6,403.8c-1.1,0-1.9-0.3-2.6-1c-0.6-0.7-1-1.6-1-2.6v-0.3c0-1.1,0.3-2,0.9-2.7c0.6-0.7,1.4-1.1,2.4-1.1
			c1,0,1.8,0.3,2.3,0.9c0.6,0.6,0.8,1.4,0.8,2.4v1.1h-4.4l0,0c0,0.5,0.2,0.9,0.5,1.2c0.3,0.3,0.7,0.5,1.2,0.5c0.4,0,0.8,0,1.1-0.1
			c0.3-0.1,0.6-0.2,1-0.4l0.5,1.2c-0.3,0.2-0.7,0.4-1.2,0.6S372.2,403.8,371.6,403.8z M371.4,397.6c-0.4,0-0.7,0.1-0.9,0.4
			c-0.2,0.3-0.3,0.7-0.4,1.1l0,0h2.4V399c0-0.4-0.1-0.8-0.3-1C372.1,397.7,371.8,397.6,371.4,397.6z"/>
		<path class="st4" d="M378.7,397.4v-1.2h2.9l0.1,1c0.2-0.4,0.5-0.6,0.9-0.8c0.4-0.2,0.8-0.3,1.2-0.3c0.5,0,0.9,0.1,1.2,0.3
			c0.3,0.2,0.6,0.5,0.8,1c0.2-0.4,0.5-0.7,0.9-0.9c0.4-0.2,0.8-0.3,1.3-0.3c0.7,0,1.3,0.3,1.7,0.8c0.4,0.5,0.6,1.3,0.6,2.3v3.1
			l1,0.2v1.2h-3.8v-1.2l0.9-0.2v-3.1c0-0.6-0.1-1-0.3-1.2c-0.2-0.2-0.5-0.3-0.8-0.3c-0.3,0-0.5,0.1-0.7,0.2
			c-0.2,0.1-0.4,0.3-0.5,0.5c0,0.1,0,0.2,0,0.2c0,0.1,0,0.1,0,0.2v3.5l0.8,0.2v1.2h-3.6v-1.2l0.8-0.2v-3.1c0-0.5-0.1-0.9-0.3-1.2
			c-0.2-0.2-0.5-0.3-0.8-0.3c-0.3,0-0.5,0.1-0.7,0.2c-0.2,0.1-0.4,0.2-0.5,0.4v4l0.9,0.2v1.2h-3.8v-1.2l1-0.2v-4.6L378.7,397.4z"/>
		<path class="st4" d="M395.4,403.8c-1.1,0-1.9-0.3-2.6-1c-0.6-0.7-1-1.6-1-2.6v-0.3c0-1.1,0.3-2,0.9-2.7c0.6-0.7,1.4-1.1,2.4-1.1
			c1,0,1.8,0.3,2.3,0.9c0.6,0.6,0.8,1.4,0.8,2.4v1.1H394l0,0c0,0.5,0.2,0.9,0.5,1.2c0.3,0.3,0.7,0.5,1.2,0.5c0.4,0,0.8,0,1.1-0.1
			c0.3-0.1,0.6-0.2,1-0.4l0.5,1.2c-0.3,0.2-0.7,0.4-1.2,0.6S396,403.8,395.4,403.8z M395.2,397.6c-0.4,0-0.7,0.1-0.9,0.4
			c-0.2,0.3-0.3,0.7-0.4,1.1l0,0h2.4V399c0-0.4-0.1-0.8-0.3-1C395.9,397.7,395.6,397.6,395.2,397.6z"/>
		<path class="st4" d="M399,392.1h3v13.9h-3v-1.5h1v-10.9h-1V392.1z"/>
	</g>
</g>
</svg>
