<?xml version="1.0" encoding="utf-8"?>
<!-- Generator: Adobe Illustrator 22.0.1, SVG Export Plug-In . SVG Version: 6.00 Build 0)  -->
<!DOCTYPE svg PUBLIC "-//W3C//DTD SVG 1.1//EN" "http://www.w3.org/Graphics/SVG/1.1/DTD/svg11.dtd">
<svg version="1.1" id="Layer_1" xmlns="http://www.w3.org/2000/svg" xmlns:xlink="http://www.w3.org/1999/xlink" x="0px" y="0px"
	 viewBox="0 0 688.1 453.6" style="enable-background:new 0 0 688.1 453.6;" xml:space="preserve">
<style type="text/css">
	.st0{fill:#40EDE2;}
	.st1{fill:#F0F0F0;}
	.st2{fill:#DCDCDC;}
	.st3{fill:#FFFFFF;}
	.st4{font-family:'RobotoSlab-Bold';}
	.st5{font-size:27.4217px;}
	.st6{font-size:14px;}
</style>
<g>
	<g>
		<path class="st0" d="M688.1,16.2v409.4c0,27.9,0,27.9-24.9,27.9H24.9C0,453.6,0,453.6,0,425.7V16.2C0,0.5,0,0.5,24.9,0.5h638.3
			C688.1,0.5,688.1,0.5,688.1,16.2z"/>
		<path class="st1" d="M0,31.9V15.7C0,0,0,0,24.9,0h638.3c24.9,0,24.9,0,24.9,15.7v15.6"/>
		<ellipse class="st0" cx="24.1" cy="16.7" rx="6" ry="5.8"/>
		<ellipse class="st0" cx="43.2" cy="16.7" rx="6" ry="5.8"/>
		<ellipse class="st0" cx="62.4" cy="16.7" rx="6" ry="5.8"/>
		<path class="st2" d="M688.1,31.2v28.5H0V31.2h99.2c1.8-3.5,9.6-18,14.8-18h79.2c6.9,0,15.6,14.5,17.7,18H688.1z"/>
	</g>
	<text transform="matrix(1 0 0 1 195.6796 228.6111)" class="st3 st4 st5">Sorry, am I in the way?</text>
	<text transform="matrix(1 0 0 1 284.9039 403.6111)" class="st3 st4 st6">[click to close me]</text>
</g>
</svg>
