<?xml version="1.0" encoding="utf-8"?>
<!-- Generator: Adobe Illustrator 22.0.1, SVG Export Plug-In . SVG Version: 6.00 Build 0)  -->
<!DOCTYPE svg PUBLIC "-//W3C//DTD SVG 1.1//EN" "http://www.w3.org/Graphics/SVG/1.1/DTD/svg11.dtd">
<svg version="1.1" id="Layer_1" xmlns="http://www.w3.org/2000/svg" xmlns:xlink="http://www.w3.org/1999/xlink" x="0px" y="0px"
	 viewBox="0 0 351.7 231.8" style="enable-background:new 0 0 351.7 231.8;" xml:space="preserve">
<style type="text/css">
	.st0{fill:#EF3C61;}
	.st1{fill:#F0F0F0;}
	.st2{fill:#DCDCDC;}
	.st3{fill:#FFFFFF;}
	.st4{font-family:'RobotoSlab-Bold';}
	.st5{font-size:18px;}
	.st6{font-family:'Lato-BlackItalic';}
	.st7{font-size:14px;}
	.st8{font-size:12px;}
</style>
<g>
	<path class="st0" d="M351.7,8.2v209.4c0,14.2,0,14.2-12.7,14.2H12.7C0,231.8,0,231.8,0,217.7V8.2c0-8,0-8,12.7-8h326.2
		C351.7,0.2,351.7,0.2,351.7,8.2z"/>
	<path class="st1" d="M0,16.3V8c0-8,0-8,12.7-8H339c12.7,0,12.7,0,12.7,8v8"/>
	<ellipse class="st0" cx="12.3" cy="8.5" rx="3.1" ry="2.9"/>
	<ellipse class="st0" cx="22.1" cy="8.5" rx="3.1" ry="2.9"/>
	<ellipse class="st0" cx="31.9" cy="8.5" rx="3.1" ry="2.9"/>
	<path class="st2" d="M351.7,15.9v14.6H0V15.9h50.7c1-1.8,5-9.2,7.6-9.2h40.5c3.5,0,7.9,7.4,9,9.2H351.7z"/>
</g>
<g>
	<text transform="matrix(1 0 0 1 36.6046 87.1702)" class="st3 st4 st5">intrusive</text>
	<text transform="matrix(1 0 0 1 37.3046 104.1702)" class="st3 st6 st7">a</text>
	<text transform="matrix(1 0 0 1 45.4046 104.1702)" class="st3 st6 st7">d</text>
	<text transform="matrix(1 0 0 1 53.8046 104.0702)" class="st3 st6 st7">j</text>
	<text transform="matrix(1 0 0 1 58.3046 104.1702)" class="st3 st6 st7">e</text>
	<text transform="matrix(1 0 0 1 65.8046 104.1702)" class="st3 st6 st7">c</text>
	<text transform="matrix(1 0 0 1 72.7046 104.0702)" class="st3 st6 st7">t</text>
	<text transform="matrix(1 0 0 1 78.5046 104.0702)" class="st3 st6 st7">i</text>
	<text transform="matrix(1 0 0 1 83.0046 104.1702)" class="st3 st6 st7">v</text>
	<text transform="matrix(1 0 0 1 90.9046 104.1702)" class="st3 st6 st7">e</text>
	<text transform="matrix(1 0 0 1 36.6046 120.7702)" class="st3 st4 st7">causing disruption or annoyance through </text>
	<text transform="matrix(1 0 0 1 36.6046 137.5702)" class="st3 st4 st7">being unwelcome or uninvited</text>
	<text transform="matrix(1 0 0 1 157.514 195.6732)" class="st3 st4 st8">[enter]</text>
</g>
</svg>
