<?xml version="1.0" encoding="utf-8"?>
<!-- Generator: Adobe Illustrator 22.0.1, SVG Export Plug-In . SVG Version: 6.00 Build 0)  -->
<!DOCTYPE svg PUBLIC "-//W3C//DTD SVG 1.1//EN" "http://www.w3.org/Graphics/SVG/1.1/DTD/svg11.dtd">
<svg version="1.1" id="Layer_1" xmlns="http://www.w3.org/2000/svg" xmlns:xlink="http://www.w3.org/1999/xlink" x="0px" y="0px"
	 viewBox="0 0 351.7 231.8" style="enable-background:new 0 0 351.7 231.8;" xml:space="preserve">
<style type="text/css">
	.st0{fill:#EF3C61;}
	.st1{fill:#F0F0F0;}
	.st2{fill:#DCDCDC;}
	.st3{enable-background:new    ;}
	.st4{fill:#FFFFFF;}
</style>
<g>
	<path class="st0" d="M351.7,8.2v209.4c0,14.2,0,14.2-12.7,14.2H12.7C0,231.8,0,231.8,0,217.7V8.2c0-8,0-8,12.7-8h326.2
		C351.7,0.2,351.7,0.2,351.7,8.2z"/>
	<path class="st1" d="M0,16.3V8c0-8,0-8,12.7-8H339c12.7,0,12.7,0,12.7,8v8"/>
	<ellipse class="st0" cx="12.3" cy="8.5" rx="3.1" ry="2.9"/>
	<ellipse class="st0" cx="22.1" cy="8.5" rx="3.1" ry="2.9"/>
	<ellipse class="st0" cx="31.9" cy="8.5" rx="3.1" ry="2.9"/>
	<path class="st2" d="M351.7,15.9v14.6H0V15.9h50.7c1-1.8,5-9.2,7.6-9.2h40.5c3.5,0,7.9,7.4,9,9.2H351.7z"/>
</g>
<g>
	<g class="st3">
		<path class="st4" d="M37.1,85.6l1.2-0.3v-5.9l-1.4-0.3v-1.5h3.9v7.7l1.2,0.3v1.5h-5V85.6z M40.9,75.4h-2.6v-1.9h2.6V75.4z"/>
		<path class="st4" d="M42.8,85.6l1.2-0.3v-5.9l-1.4-0.3v-1.5h3.8l0.1,1.4c0.3-0.5,0.7-0.9,1.2-1.1s1-0.4,1.6-0.4
			c1,0,1.7,0.3,2.2,0.9s0.8,1.5,0.8,2.8v4.1l1.2,0.3v1.5h-4.9v-1.5l1.1-0.3v-4.1c0-0.6-0.1-1.1-0.4-1.4c-0.3-0.3-0.6-0.4-1.2-0.4
			c-0.3,0-0.6,0.1-0.9,0.2c-0.3,0.1-0.5,0.3-0.7,0.6v5.1l1,0.3v1.5h-4.8V85.6z"/>
		<path class="st4" d="M58.2,75.3v2.3h1.7v1.8h-1.7v4.8c0,0.4,0.1,0.6,0.2,0.8s0.4,0.2,0.6,0.2c0.2,0,0.3,0,0.5,0
			c0.1,0,0.3,0,0.4-0.1l0.2,1.9c-0.3,0.1-0.6,0.2-0.9,0.2c-0.3,0-0.6,0.1-0.9,0.1c-0.9,0-1.6-0.2-2-0.7s-0.7-1.3-0.7-2.3v-4.9h-1.4
			v-1.8h1.4v-2.3H58.2z"/>
		<path class="st4" d="M61.3,85.6l1.2-0.3v-5.9l-1.4-0.3v-1.5h3.8L65,79c0.2-0.5,0.5-0.9,0.9-1.2s0.8-0.4,1.2-0.4c0.1,0,0.3,0,0.4,0
			s0.3,0,0.4,0.1l-0.3,2.3l-1.1,0c-0.4,0-0.7,0.1-0.9,0.2s-0.4,0.4-0.6,0.6v4.6l1.2,0.3v1.5h-5V85.6z"/>
		<path class="st4" d="M75.3,86c-0.3,0.4-0.7,0.8-1.1,1s-1,0.4-1.5,0.4c-1,0-1.8-0.3-2.4-1c-0.6-0.6-0.9-1.6-0.9-3v-3.9l-1-0.3v-1.5
			h1H72v5.8c0,0.7,0.1,1.2,0.3,1.5c0.2,0.3,0.6,0.5,1,0.5c0.4,0,0.8-0.1,1.1-0.2c0.3-0.1,0.5-0.3,0.7-0.6v-5.1l-1.1-0.3v-1.5h1.1
			h2.6v7.7l1.2,0.3v1.5h-3.4L75.3,86z"/>
		<path class="st4" d="M87.7,80.9h-1.7l-0.3-1.2c-0.2-0.1-0.4-0.3-0.7-0.4s-0.6-0.1-0.9-0.1c-0.5,0-0.8,0.1-1.1,0.3
			c-0.3,0.2-0.4,0.5-0.4,0.8c0,0.3,0.1,0.5,0.4,0.7s0.8,0.4,1.5,0.5c1.2,0.2,2.1,0.6,2.6,1c0.6,0.5,0.9,1.1,0.9,1.9
			c0,0.9-0.4,1.6-1.1,2.1c-0.7,0.5-1.7,0.8-2.9,0.8c-0.7,0-1.4-0.1-2-0.3c-0.6-0.2-1.2-0.5-1.6-0.9l0-2.1h1.8l0.4,1.2
			c0.2,0.1,0.4,0.2,0.6,0.3c0.3,0.1,0.5,0.1,0.8,0.1c0.5,0,0.9-0.1,1.2-0.3s0.4-0.4,0.4-0.8c0-0.3-0.1-0.5-0.4-0.7s-0.8-0.4-1.5-0.5
			c-1.1-0.2-2-0.6-2.5-1c-0.6-0.4-0.9-1.1-0.9-1.8c0-0.8,0.3-1.5,1-2.1c0.7-0.6,1.6-0.9,2.8-0.9c0.7,0,1.4,0.1,2.1,0.3
			s1.2,0.5,1.6,0.8L87.7,80.9z"/>
		<path class="st4" d="M89.1,85.6l1.2-0.3v-5.9L89,79.2v-1.5h3.9v7.7l1.2,0.3v1.5h-5V85.6z M92.9,75.4h-2.6v-1.9h2.6V75.4z"/>
		<path class="st4" d="M99,79.2l-0.9,0.2l1.3,4.3l0.2,0.9h0.1l0.2-0.9l1.2-4.2l-0.9-0.2v-1.5h4.3v1.5l-0.8,0.1l-2.8,7.8h-2.5
			l-2.8-7.8l-0.8-0.1v-1.5H99V79.2z"/>
		<path class="st4" d="M109.7,87.4c-1.4,0-2.5-0.4-3.3-1.3s-1.2-2-1.2-3.3v-0.4c0-1.4,0.4-2.6,1.2-3.5s1.8-1.4,3.1-1.4
			c1.3,0,2.3,0.4,3,1.2s1.1,1.8,1.1,3.1v1.4h-5.7l0,0.1c0,0.6,0.3,1.1,0.6,1.5s0.9,0.6,1.5,0.6c0.6,0,1-0.1,1.4-0.2
			c0.4-0.1,0.8-0.3,1.2-0.5l0.7,1.6c-0.4,0.3-0.9,0.6-1.5,0.8S110.4,87.4,109.7,87.4z M109.4,79.5c-0.5,0-0.8,0.2-1.1,0.5
			s-0.4,0.8-0.5,1.4l0,0h3.1v-0.2c0-0.5-0.1-1-0.4-1.3C110.3,79.6,110,79.5,109.4,79.5z"/>
	</g>
	<g class="st3">
		<path class="st4" d="M43.6,104.2h-1.2c-0.1,0-0.2,0-0.3-0.1c-0.1,0-0.2-0.1-0.2-0.1s-0.1-0.1-0.1-0.2s0-0.2,0-0.3V103
			c-0.3,0.4-0.6,0.7-1,1c-0.4,0.2-0.8,0.4-1.2,0.4c-0.3,0-0.5-0.1-0.8-0.2c-0.2-0.1-0.5-0.3-0.6-0.5s-0.3-0.5-0.4-0.8
			c-0.1-0.3-0.2-0.7-0.2-1.2c0-0.7,0.1-1.3,0.4-1.9c0.2-0.6,0.6-1.1,1-1.6s0.9-0.8,1.5-1.1c0.6-0.3,1.2-0.4,2-0.4c0.3,0,0.7,0,1,0.1
			c0.4,0,0.7,0.1,1.1,0.3L43.6,104.2z M40.4,102.6c0.2,0,0.3-0.1,0.5-0.2s0.3-0.3,0.4-0.5c0.1-0.2,0.3-0.4,0.4-0.7
			c0.1-0.3,0.2-0.6,0.3-0.9l0.3-2h-0.1c-0.4,0-0.7,0.1-1,0.2c-0.3,0.2-0.5,0.4-0.8,0.6c-0.2,0.3-0.4,0.6-0.5,1
			c-0.1,0.4-0.2,0.7-0.2,1.2c0,0.2,0,0.4,0.1,0.6c0,0.2,0.1,0.3,0.2,0.4s0.1,0.2,0.2,0.2C40.2,102.5,40.3,102.6,40.4,102.6z"/>
	</g>
	<g class="st3">
		<path class="st4" d="M50.8,104.2c-0.1,0-0.2,0-0.3-0.1c-0.1,0-0.2-0.1-0.2-0.1s-0.1-0.1-0.1-0.2s0-0.2,0-0.3v-0.6
			c-0.3,0.4-0.7,0.8-1.1,1c-0.4,0.2-0.8,0.4-1.3,0.4c-0.3,0-0.6-0.1-0.8-0.2c-0.2-0.1-0.5-0.3-0.6-0.5s-0.3-0.5-0.4-0.9
			c-0.1-0.3-0.2-0.8-0.2-1.2c0-0.4,0-0.8,0.1-1.2c0.1-0.4,0.2-0.8,0.4-1.1s0.3-0.7,0.6-1c0.2-0.3,0.5-0.5,0.7-0.7
			c0.3-0.2,0.5-0.4,0.8-0.5c0.3-0.1,0.6-0.2,0.9-0.2c0.3,0,0.6,0.1,0.8,0.2c0.2,0.1,0.5,0.2,0.6,0.4l0.5-3.7h2.1l-1.3,10.5H50.8z
			 M48.5,102.6c0.1,0,0.3-0.1,0.5-0.2s0.3-0.3,0.5-0.5c0.2-0.2,0.3-0.4,0.4-0.7s0.2-0.5,0.3-0.9l0.2-1.8c-0.1-0.1-0.3-0.2-0.5-0.2
			s-0.3-0.1-0.5-0.1c-0.3,0-0.5,0.1-0.7,0.3s-0.4,0.4-0.5,0.7c-0.2,0.3-0.3,0.6-0.4,0.9c-0.1,0.3-0.1,0.7-0.1,1.1
			c0,0.5,0.1,0.8,0.2,1S48.3,102.6,48.5,102.6z"/>
	</g>
	<g class="st3">
		<path class="st4" d="M57.2,96.8l-0.9,7.3c0,0.3-0.1,0.7-0.3,1s-0.3,0.6-0.5,0.8s-0.5,0.4-0.8,0.5s-0.7,0.2-1.1,0.2
			c-0.2,0-0.4,0-0.5,0c-0.1,0-0.3-0.1-0.4-0.1l0.2-1.1c0-0.1,0.1-0.2,0.1-0.2c0.1,0,0.2-0.1,0.3-0.1c0.1,0,0.3,0,0.4,0
			c0.1,0,0.2-0.1,0.2-0.1s0.1-0.2,0.2-0.3c0-0.1,0.1-0.3,0.1-0.5l0.9-7.3H57.2z M57.5,94.8c0,0.2,0,0.3-0.1,0.5
			c-0.1,0.2-0.2,0.3-0.3,0.4c-0.1,0.1-0.3,0.2-0.4,0.3c-0.2,0.1-0.3,0.1-0.5,0.1c-0.2,0-0.3,0-0.5-0.1c-0.1-0.1-0.3-0.2-0.4-0.3
			s-0.2-0.2-0.3-0.4C55,95.2,55,95,55,94.8s0-0.3,0.1-0.5c0.1-0.2,0.2-0.3,0.3-0.4c0.1-0.1,0.3-0.2,0.4-0.3c0.1-0.1,0.3-0.1,0.5-0.1
			c0.2,0,0.3,0,0.5,0.1c0.2,0.1,0.3,0.2,0.4,0.3c0.1,0.1,0.2,0.3,0.3,0.4S57.5,94.6,57.5,94.8z"/>
	</g>
	<g class="st3">
		<path class="st4" d="M65,98.7c0,0.3-0.1,0.6-0.2,0.9c-0.1,0.3-0.4,0.5-0.7,0.7c-0.3,0.2-0.8,0.4-1.3,0.5c-0.5,0.1-1.2,0.3-2.1,0.3
			c0,0.5,0.1,0.9,0.3,1.1c0.2,0.2,0.5,0.3,0.9,0.3c0.2,0,0.4,0,0.5,0c0.1,0,0.3-0.1,0.4-0.1c0.1-0.1,0.2-0.1,0.3-0.2
			c0.1-0.1,0.2-0.1,0.2-0.2c0.1-0.1,0.2-0.1,0.2-0.1c0.1,0,0.2,0,0.3,0c0.1,0,0.1,0,0.2,0.1c0.1,0,0.1,0.1,0.2,0.1l0.6,0.7
			c-0.3,0.3-0.5,0.5-0.8,0.7s-0.5,0.3-0.8,0.5c-0.3,0.1-0.5,0.2-0.8,0.3c-0.3,0.1-0.6,0.1-1,0.1c-0.4,0-0.8-0.1-1.2-0.2
			c-0.4-0.1-0.7-0.4-0.9-0.6c-0.3-0.3-0.5-0.6-0.6-1c-0.1-0.4-0.2-0.8-0.2-1.3c0-0.4,0-0.8,0.1-1.1c0.1-0.4,0.2-0.7,0.4-1
			s0.4-0.6,0.6-0.9c0.2-0.3,0.5-0.5,0.8-0.7c0.3-0.2,0.6-0.3,1-0.5s0.7-0.2,1.1-0.2c0.4,0,0.7,0.1,1,0.2c0.3,0.1,0.6,0.3,0.8,0.4
			c0.2,0.2,0.4,0.4,0.5,0.6C64.9,98.2,65,98.5,65,98.7z M62.4,98.3c-0.4,0-0.7,0.1-0.9,0.4c-0.3,0.3-0.5,0.7-0.6,1.2
			c0.5-0.1,0.8-0.1,1.1-0.2c0.3-0.1,0.5-0.2,0.7-0.3c0.2-0.1,0.3-0.2,0.3-0.3C63,99,63,98.9,63,98.8c0-0.1,0-0.2-0.1-0.3
			C62.8,98.3,62.6,98.3,62.4,98.3z"/>
	</g>
	<g class="st3">
		<path class="st4" d="M71.1,103.5c-0.2,0.2-0.4,0.3-0.7,0.4s-0.5,0.2-0.7,0.2c-0.3,0-0.5,0.1-0.9,0.1c-0.4,0-0.8-0.1-1.1-0.2
			c-0.3-0.1-0.6-0.3-0.9-0.6c-0.2-0.3-0.4-0.6-0.6-1c-0.1-0.4-0.2-0.8-0.2-1.3c0-0.6,0.1-1.2,0.3-1.7c0.2-0.5,0.5-1,0.8-1.4
			s0.8-0.7,1.2-1c0.5-0.2,1-0.4,1.6-0.4c0.5,0,0.9,0.1,1.2,0.2s0.7,0.4,0.9,0.8l-0.7,0.8c-0.1,0.1-0.1,0.1-0.2,0.1
			c-0.1,0-0.1,0.1-0.2,0.1c-0.1,0-0.2,0-0.2-0.1c-0.1,0-0.1-0.1-0.2-0.1c-0.1,0-0.2-0.1-0.3-0.1c-0.1,0-0.2-0.1-0.4-0.1
			c-0.2,0-0.4,0.1-0.6,0.2c-0.2,0.1-0.4,0.3-0.5,0.5s-0.3,0.5-0.4,0.9s-0.1,0.7-0.1,1.2c0,0.2,0,0.5,0.1,0.6s0.1,0.3,0.2,0.4
			c0.1,0.1,0.2,0.2,0.3,0.3c0.1,0.1,0.3,0.1,0.4,0.1c0.2,0,0.4,0,0.5-0.1c0.1-0.1,0.3-0.1,0.4-0.2c0.1-0.1,0.2-0.1,0.3-0.2
			c0.1-0.1,0.2-0.1,0.3-0.1c0.1,0,0.1,0,0.2,0c0.1,0,0.1,0.1,0.2,0.1l0.6,0.7C71.6,103.2,71.3,103.4,71.1,103.5z"/>
	</g>
	<g class="st3">
		<path class="st4" d="M73.6,102.5c0,0,0-0.1,0-0.1c0,0,0-0.1,0-0.2c0-0.1,0-0.2,0-0.3c0-0.1,0-0.3,0.1-0.6l0.4-3h-0.6
			c-0.1,0-0.2,0-0.2-0.1s-0.1-0.1-0.1-0.3c0,0,0,0,0-0.1s0-0.2,0-0.2c0-0.1,0-0.2,0-0.2c0-0.1,0-0.1,0-0.1l0-0.2l1.1-0.2L75,95
			c0.1-0.2,0.2-0.3,0.5-0.3h1.2l-0.3,2.1h1.6l-0.2,1.5h-1.6l-0.3,2.8c0,0.2,0,0.3-0.1,0.5c0,0.1,0,0.2,0,0.3c0,0.1,0,0.1,0,0.1
			c0,0,0,0,0,0c0,0.1,0,0.2,0.1,0.3c0.1,0.1,0.2,0.1,0.3,0.1c0.1,0,0.1,0,0.2,0c0,0,0.1,0,0.1-0.1c0,0,0.1,0,0.1-0.1
			c0,0,0.1,0,0.1,0c0.1,0,0.1,0,0.1,0s0.1,0.1,0.1,0.1l0.5,1c-0.3,0.2-0.6,0.4-0.9,0.5c-0.3,0.1-0.7,0.2-1,0.2c-0.3,0-0.5,0-0.8-0.1
			c-0.2-0.1-0.4-0.2-0.6-0.3c-0.2-0.1-0.3-0.3-0.4-0.5C73.7,103,73.7,102.8,73.6,102.5z"/>
	</g>
	<g class="st3">
		<path class="st4" d="M81.9,96.8l-0.9,7.3h-2.1l0.9-7.3H81.9z M82.3,94.8c0,0.2,0,0.3-0.1,0.5c-0.1,0.2-0.2,0.3-0.3,0.4
			c-0.1,0.1-0.3,0.2-0.4,0.3c-0.2,0.1-0.3,0.1-0.5,0.1c-0.2,0-0.3,0-0.5-0.1c-0.1-0.1-0.3-0.2-0.4-0.3c-0.1-0.1-0.2-0.2-0.3-0.4
			c-0.1-0.2-0.1-0.3-0.1-0.5s0-0.3,0.1-0.5c0.1-0.2,0.2-0.3,0.3-0.4c0.1-0.1,0.3-0.2,0.4-0.3c0.1-0.1,0.3-0.1,0.5-0.1
			c0.2,0,0.3,0,0.5,0.1c0.2,0.1,0.3,0.2,0.4,0.3c0.1,0.1,0.2,0.3,0.3,0.4S82.3,94.6,82.3,94.8z"/>
	</g>
	<g class="st3">
		<path class="st4" d="M83.4,96.9h1.8c0.1,0,0.3,0,0.4,0.1c0.1,0.1,0.1,0.2,0.2,0.3l0.5,3.3c0,0.3,0.1,0.5,0.1,0.8s0.1,0.5,0.1,0.8
			c0.1-0.3,0.2-0.5,0.3-0.8c0.1-0.3,0.2-0.5,0.3-0.8l1.3-3.3c0-0.1,0.1-0.2,0.2-0.3c0.1-0.1,0.2-0.1,0.4-0.1h1.7l-3.5,7.3h-1.8
			L83.4,96.9z"/>
	</g>
	<g class="st3">
		<path class="st4" d="M97.6,98.7c0,0.3-0.1,0.6-0.2,0.9c-0.1,0.3-0.4,0.5-0.7,0.7c-0.3,0.2-0.8,0.4-1.3,0.5
			c-0.5,0.1-1.2,0.3-2.1,0.3c0,0.5,0.1,0.9,0.3,1.1c0.2,0.2,0.5,0.3,0.9,0.3c0.2,0,0.4,0,0.5,0c0.1,0,0.3-0.1,0.4-0.1
			c0.1-0.1,0.2-0.1,0.3-0.2c0.1-0.1,0.2-0.1,0.2-0.2c0.1-0.1,0.2-0.1,0.2-0.1c0.1,0,0.2,0,0.3,0c0.1,0,0.1,0,0.2,0.1
			c0.1,0,0.1,0.1,0.2,0.1l0.6,0.7c-0.3,0.3-0.5,0.5-0.8,0.7s-0.5,0.3-0.8,0.5c-0.3,0.1-0.5,0.2-0.8,0.3c-0.3,0.1-0.6,0.1-1,0.1
			c-0.4,0-0.8-0.1-1.2-0.2c-0.4-0.1-0.7-0.4-0.9-0.6c-0.3-0.3-0.5-0.6-0.6-1c-0.1-0.4-0.2-0.8-0.2-1.3c0-0.4,0-0.8,0.1-1.1
			c0.1-0.4,0.2-0.7,0.4-1s0.4-0.6,0.6-0.9c0.2-0.3,0.5-0.5,0.8-0.7c0.3-0.2,0.6-0.3,1-0.5s0.7-0.2,1.1-0.2c0.4,0,0.7,0.1,1,0.2
			c0.3,0.1,0.6,0.3,0.8,0.4c0.2,0.2,0.4,0.4,0.5,0.6C97.5,98.2,97.6,98.5,97.6,98.7z M95,98.3c-0.4,0-0.7,0.1-0.9,0.4
			c-0.3,0.3-0.5,0.7-0.6,1.2c0.5-0.1,0.8-0.1,1.1-0.2c0.3-0.1,0.5-0.2,0.7-0.3c0.2-0.1,0.3-0.2,0.3-0.3c0.1-0.1,0.1-0.2,0.1-0.3
			c0-0.1,0-0.2-0.1-0.3C95.4,98.3,95.2,98.3,95,98.3z"/>
	</g>
	<g class="st3">
		<path class="st4" d="M40.5,119.4c0.4,0,0.6-0.1,0.9-0.3c0.2-0.2,0.3-0.5,0.3-0.8h1.8l0,0c0,0.7-0.3,1.4-0.8,1.9
			c-0.6,0.5-1.3,0.8-2.2,0.8c-1.1,0-2-0.3-2.5-1s-0.9-1.6-0.9-2.7V117c0-1.1,0.3-2,0.9-2.7s1.5-1.1,2.6-1.1c0.6,0,1.1,0.1,1.6,0.3
			s0.9,0.4,1.2,0.8l0,2h-1.6l-0.3-1.2c-0.1-0.1-0.2-0.2-0.4-0.2c-0.1-0.1-0.3-0.1-0.5-0.1c-0.6,0-1,0.2-1.2,0.6s-0.3,0.9-0.3,1.6
			v0.2c0,0.7,0.1,1.2,0.3,1.6C39.6,119.2,40,119.4,40.5,119.4z"/>
		<path class="st4" d="M49.1,120.8c-0.1-0.1-0.1-0.2-0.1-0.4c0-0.1-0.1-0.3-0.1-0.4c-0.2,0.3-0.5,0.5-0.9,0.7s-0.7,0.3-1.2,0.3
			c-0.7,0-1.3-0.2-1.7-0.6c-0.4-0.4-0.6-0.9-0.6-1.6c0-0.7,0.3-1.2,0.8-1.6c0.6-0.4,1.4-0.6,2.4-0.6h1v-0.7c0-0.4-0.1-0.6-0.3-0.8
			s-0.5-0.3-0.9-0.3c-0.2,0-0.4,0-0.6,0.1c-0.2,0.1-0.3,0.1-0.4,0.2l-0.1,0.8h-1.5l0-1.6c0.4-0.2,0.8-0.5,1.3-0.6s1-0.3,1.5-0.3
			c0.9,0,1.7,0.2,2.2,0.7c0.6,0.4,0.9,1.1,0.9,1.9v3.1c0,0.1,0,0.2,0,0.3s0,0.2,0,0.3l0.6,0.1v1.2H49.1z M47.4,119.4
			c0.3,0,0.6-0.1,0.8-0.2c0.2-0.1,0.4-0.3,0.6-0.5v-1.1h-1c-0.4,0-0.7,0.1-1,0.3c-0.2,0.2-0.3,0.4-0.3,0.7c0,0.3,0.1,0.4,0.2,0.6
			S47.1,119.4,47.4,119.4z"/>
		<path class="st4" d="M57.1,119.8c-0.2,0.3-0.5,0.6-0.9,0.8s-0.7,0.3-1.2,0.3c-0.8,0-1.4-0.2-1.8-0.7c-0.4-0.5-0.7-1.3-0.7-2.3
			v-3.1l-0.8-0.2v-1.2h0.8h2v4.5c0,0.5,0.1,0.9,0.3,1.2c0.2,0.2,0.4,0.4,0.8,0.4c0.3,0,0.6-0.1,0.8-0.2c0.2-0.1,0.4-0.2,0.6-0.4v-4
			l-0.9-0.2v-1.2h0.9h2v6l0.9,0.2v1.2h-2.6L57.1,119.8z"/>
		<path class="st4" d="M66.7,115.9h-1.3l-0.2-0.9c-0.1-0.1-0.3-0.2-0.5-0.3s-0.4-0.1-0.7-0.1c-0.4,0-0.6,0.1-0.8,0.2
			c-0.2,0.2-0.3,0.4-0.3,0.6c0,0.2,0.1,0.4,0.3,0.6c0.2,0.1,0.6,0.3,1.2,0.4c0.9,0.2,1.6,0.5,2,0.8c0.4,0.4,0.7,0.8,0.7,1.5
			c0,0.7-0.3,1.2-0.9,1.6c-0.6,0.4-1.3,0.6-2.3,0.6c-0.6,0-1.1-0.1-1.6-0.2c-0.5-0.2-0.9-0.4-1.3-0.7l0-1.7h1.4l0.3,1
			c0.1,0.1,0.3,0.2,0.5,0.2c0.2,0,0.4,0.1,0.6,0.1c0.4,0,0.7-0.1,0.9-0.2s0.3-0.3,0.3-0.6c0-0.2-0.1-0.4-0.3-0.6s-0.6-0.3-1.2-0.4
			c-0.9-0.2-1.5-0.4-2-0.8c-0.4-0.3-0.7-0.8-0.7-1.4c0-0.6,0.3-1.2,0.8-1.6c0.5-0.4,1.2-0.7,2.2-0.7c0.6,0,1.1,0.1,1.6,0.2
			s0.9,0.4,1.2,0.6L66.7,115.9z"/>
		<path class="st4" d="M67.8,119.6l1-0.2v-4.6l-1.1-0.2v-1.2h3.1v6l1,0.2v1.2h-3.9V119.6z M70.7,111.6h-2v-1.5h2V111.6z"/>
		<path class="st4" d="M72.2,119.6l1-0.2v-4.6l-1.1-0.2v-1.2H75l0.1,1.1c0.2-0.4,0.5-0.7,0.9-0.9s0.8-0.3,1.2-0.3
			c0.7,0,1.3,0.2,1.8,0.7s0.6,1.2,0.6,2.2v3.2l1,0.2v1.2h-3.8v-1.2l0.9-0.2v-3.2c0-0.5-0.1-0.8-0.3-1.1c-0.2-0.2-0.5-0.3-0.9-0.3
			c-0.3,0-0.5,0.1-0.7,0.2c-0.2,0.1-0.4,0.3-0.5,0.5v4l0.8,0.2v1.2h-3.8V119.6z"/>
		<path class="st4" d="M81.3,117.1c0-1.2,0.3-2.1,0.8-2.8s1.2-1.1,2.1-1.1c0.4,0,0.8,0.1,1.1,0.3c0.3,0.2,0.6,0.4,0.8,0.8l0.1-0.9
			H88v7.2c0,1-0.3,1.8-0.9,2.3c-0.6,0.6-1.5,0.9-2.5,0.9c-0.4,0-0.8-0.1-1.2-0.2c-0.4-0.1-0.8-0.2-1.2-0.4l0.4-1.4
			c0.3,0.1,0.6,0.2,1,0.3c0.3,0.1,0.7,0.1,1,0.1c0.5,0,0.9-0.1,1.1-0.4s0.4-0.7,0.4-1.2v-0.5c-0.2,0.3-0.5,0.5-0.8,0.6
			s-0.6,0.2-1,0.2c-0.9,0-1.6-0.3-2.1-1c-0.5-0.7-0.8-1.5-0.8-2.6V117.1z M83.3,117.3c0,0.6,0.1,1.2,0.3,1.5
			c0.2,0.4,0.6,0.6,1.1,0.6c0.3,0,0.6-0.1,0.8-0.2c0.2-0.1,0.4-0.3,0.5-0.5v-3.2c-0.1-0.2-0.3-0.4-0.5-0.5s-0.5-0.2-0.8-0.2
			c-0.5,0-0.8,0.2-1.1,0.6s-0.3,1-0.3,1.7V117.3z"/>
		<path class="st4" d="M97.4,119.9c-0.2,0.3-0.5,0.6-0.8,0.8s-0.7,0.3-1.1,0.3c-0.9,0-1.6-0.3-2.1-1s-0.8-1.5-0.8-2.6v-0.1
			c0-1.2,0.3-2.1,0.8-2.8s1.2-1.1,2.1-1.1c0.4,0,0.7,0.1,1,0.2c0.3,0.2,0.6,0.4,0.8,0.7v-2.7l-1.1-0.2v-1.2h1.1h2v9.3l1,0.2v1.2
			h-2.7L97.4,119.9z M94.6,117.3c0,0.6,0.1,1.2,0.3,1.5c0.2,0.4,0.6,0.6,1.1,0.6c0.3,0,0.5-0.1,0.8-0.2s0.4-0.3,0.5-0.5v-3.1
			c-0.1-0.2-0.3-0.4-0.5-0.6c-0.2-0.1-0.5-0.2-0.7-0.2c-0.5,0-0.8,0.2-1.1,0.6s-0.3,1-0.3,1.7V117.3z"/>
		<path class="st4" d="M100.8,119.6l1-0.2v-4.6l-1.1-0.2v-1.2h3.1v6l1,0.2v1.2h-3.9V119.6z M103.8,111.6h-2v-1.5h2V111.6z"/>
		<path class="st4" d="M111.4,115.9h-1.3l-0.2-0.9c-0.1-0.1-0.3-0.2-0.5-0.3s-0.4-0.1-0.7-0.1c-0.4,0-0.6,0.1-0.8,0.2
			c-0.2,0.2-0.3,0.4-0.3,0.6c0,0.2,0.1,0.4,0.3,0.6c0.2,0.1,0.6,0.3,1.2,0.4c0.9,0.2,1.6,0.5,2,0.8c0.4,0.4,0.7,0.8,0.7,1.5
			c0,0.7-0.3,1.2-0.9,1.6c-0.6,0.4-1.3,0.6-2.3,0.6c-0.6,0-1.1-0.1-1.6-0.2c-0.5-0.2-0.9-0.4-1.3-0.7l0-1.7h1.4l0.3,1
			c0.1,0.1,0.3,0.2,0.5,0.2c0.2,0,0.4,0.1,0.6,0.1c0.4,0,0.7-0.1,0.9-0.2s0.3-0.3,0.3-0.6c0-0.2-0.1-0.4-0.3-0.6s-0.6-0.3-1.2-0.4
			c-0.9-0.2-1.5-0.4-2-0.8c-0.4-0.3-0.7-0.8-0.7-1.4c0-0.6,0.3-1.2,0.8-1.6c0.5-0.4,1.2-0.7,2.2-0.7c0.6,0,1.1,0.1,1.6,0.2
			s0.9,0.4,1.2,0.6L111.4,115.9z"/>
		<path class="st4" d="M112.7,119.6l1-0.2v-4.6l-1.1-0.2v-1.2h2.9l0.1,1.1c0.2-0.4,0.4-0.7,0.7-0.9s0.6-0.3,1-0.3c0.1,0,0.2,0,0.3,0
			c0.1,0,0.2,0,0.3,0.1l-0.2,1.8l-0.8,0c-0.3,0-0.5,0.1-0.7,0.2s-0.3,0.3-0.4,0.5v3.6l1,0.2v1.2h-3.9V119.6z"/>
		<path class="st4" d="M123.7,119.8c-0.2,0.3-0.5,0.6-0.9,0.8s-0.7,0.3-1.2,0.3c-0.8,0-1.4-0.2-1.8-0.7c-0.4-0.5-0.7-1.3-0.7-2.3
			v-3.1l-0.8-0.2v-1.2h0.8h2v4.5c0,0.5,0.1,0.9,0.3,1.2c0.2,0.2,0.4,0.4,0.8,0.4c0.3,0,0.6-0.1,0.8-0.2c0.2-0.1,0.4-0.2,0.6-0.4v-4
			l-0.9-0.2v-1.2h0.9h2v6l0.9,0.2v1.2h-2.6L123.7,119.8z"/>
		<path class="st4" d="M127.1,114.6v-1.2h2.9l0.1,0.9c0.2-0.3,0.5-0.6,0.8-0.7s0.7-0.3,1.1-0.3c0.9,0,1.6,0.4,2.1,1.1
			s0.8,1.7,0.8,2.8v0.1c0,1.1-0.3,2-0.8,2.6s-1.2,1-2.1,1c-0.4,0-0.7-0.1-1-0.2c-0.3-0.1-0.6-0.4-0.8-0.6v2.1l1,0.2v1.2h-3.9v-1.2
			l1-0.2v-7.4L127.1,114.6z M132.8,117.1c0-0.7-0.1-1.3-0.3-1.7s-0.6-0.6-1.1-0.6c-0.3,0-0.6,0.1-0.8,0.2s-0.4,0.3-0.5,0.5v3.2
			c0.1,0.2,0.3,0.4,0.5,0.5s0.5,0.2,0.8,0.2c0.5,0,0.8-0.2,1.1-0.6s0.3-0.9,0.3-1.5V117.1z"/>
		<path class="st4" d="M138.6,111.6v1.8h1.3v1.4h-1.3v3.8c0,0.3,0.1,0.5,0.2,0.6s0.3,0.2,0.5,0.2c0.1,0,0.3,0,0.4,0
			c0.1,0,0.2,0,0.3-0.1l0.2,1.4c-0.2,0.1-0.4,0.1-0.7,0.2c-0.2,0-0.5,0.1-0.7,0.1c-0.7,0-1.2-0.2-1.6-0.6s-0.6-1-0.6-1.8v-3.8h-1.1
			v-1.4h1.1v-1.8H138.6z"/>
		<path class="st4" d="M140.9,119.6l1-0.2v-4.6l-1.1-0.2v-1.2h3.1v6l1,0.2v1.2h-3.9V119.6z M143.8,111.6h-2v-1.5h2V111.6z"/>
		<path class="st4" d="M145.4,117c0-1.1,0.3-2,0.9-2.7c0.6-0.7,1.5-1.1,2.6-1.1c1.1,0,1.9,0.4,2.6,1.1s0.9,1.6,0.9,2.7v0.1
			c0,1.1-0.3,2-0.9,2.7c-0.6,0.7-1.5,1-2.6,1c-1.1,0-2-0.3-2.6-1c-0.6-0.7-0.9-1.6-0.9-2.7V117z M147.4,117.1c0,0.7,0.1,1.2,0.4,1.6
			c0.2,0.4,0.6,0.6,1.1,0.6c0.5,0,0.9-0.2,1.1-0.6s0.4-1,0.4-1.6V117c0-0.7-0.1-1.2-0.4-1.6s-0.6-0.6-1.1-0.6s-0.9,0.2-1.1,0.6
			s-0.4,1-0.4,1.6V117.1z"/>
		<path class="st4" d="M153.2,119.6l1-0.2v-4.6l-1.1-0.2v-1.2h2.9l0.1,1.1c0.2-0.4,0.5-0.7,0.9-0.9s0.8-0.3,1.2-0.3
			c0.7,0,1.3,0.2,1.8,0.7s0.6,1.2,0.6,2.2v3.2l1,0.2v1.2h-3.8v-1.2l0.9-0.2v-3.2c0-0.5-0.1-0.8-0.3-1.1c-0.2-0.2-0.5-0.3-0.9-0.3
			c-0.3,0-0.5,0.1-0.7,0.2c-0.2,0.1-0.4,0.3-0.5,0.5v4l0.8,0.2v1.2h-3.8V119.6z"/>
		<path class="st4" d="M165.6,117c0-1.1,0.3-2,0.9-2.7c0.6-0.7,1.5-1.1,2.6-1.1c1.1,0,1.9,0.4,2.6,1.1s0.9,1.6,0.9,2.7v0.1
			c0,1.1-0.3,2-0.9,2.7c-0.6,0.7-1.5,1-2.6,1c-1.1,0-2-0.3-2.6-1c-0.6-0.7-0.9-1.6-0.9-2.7V117z M167.6,117.1c0,0.7,0.1,1.2,0.4,1.6
			c0.2,0.4,0.6,0.6,1.1,0.6c0.5,0,0.9-0.2,1.1-0.6s0.4-1,0.4-1.6V117c0-0.7-0.1-1.2-0.4-1.6s-0.6-0.6-1.1-0.6s-0.9,0.2-1.1,0.6
			s-0.4,1-0.4,1.6V117.1z"/>
		<path class="st4" d="M173.6,119.6l1-0.2v-4.6l-1.1-0.2v-1.2h2.9l0.1,1.1c0.2-0.4,0.4-0.7,0.7-0.9s0.6-0.3,1-0.3c0.1,0,0.2,0,0.3,0
			c0.1,0,0.2,0,0.3,0.1l-0.2,1.8l-0.8,0c-0.3,0-0.5,0.1-0.7,0.2s-0.3,0.3-0.4,0.5v3.6l1,0.2v1.2h-3.9V119.6z"/>
		<path class="st4" d="M187.5,120.8c-0.1-0.1-0.1-0.2-0.1-0.4c0-0.1-0.1-0.3-0.1-0.4c-0.2,0.3-0.5,0.5-0.9,0.7
			c-0.3,0.2-0.7,0.3-1.2,0.3c-0.7,0-1.3-0.2-1.7-0.6c-0.4-0.4-0.6-0.9-0.6-1.6c0-0.7,0.3-1.2,0.8-1.6c0.6-0.4,1.4-0.6,2.4-0.6h1
			v-0.7c0-0.4-0.1-0.6-0.3-0.8s-0.5-0.3-0.9-0.3c-0.2,0-0.4,0-0.6,0.1c-0.2,0.1-0.3,0.1-0.4,0.2l-0.1,0.8h-1.5l0-1.6
			c0.4-0.2,0.8-0.5,1.3-0.6s1-0.3,1.5-0.3c0.9,0,1.7,0.2,2.2,0.7c0.6,0.4,0.9,1.1,0.9,1.9v3.1c0,0.1,0,0.2,0,0.3c0,0.1,0,0.2,0,0.3
			l0.6,0.1v1.2H187.5z M185.7,119.4c0.3,0,0.6-0.1,0.8-0.2c0.2-0.1,0.4-0.3,0.6-0.5v-1.1h-1c-0.4,0-0.7,0.1-1,0.3
			c-0.2,0.2-0.3,0.4-0.3,0.7c0,0.3,0.1,0.4,0.2,0.6C185.2,119.4,185.5,119.4,185.7,119.4z"/>
		<path class="st4" d="M190.3,119.6l1-0.2v-4.6l-1.1-0.2v-1.2h2.9l0.1,1.1c0.2-0.4,0.5-0.7,0.9-0.9c0.4-0.2,0.8-0.3,1.2-0.3
			c0.7,0,1.3,0.2,1.8,0.7c0.4,0.5,0.6,1.2,0.6,2.2v3.2l1,0.2v1.2h-3.8v-1.2l0.9-0.2v-3.2c0-0.5-0.1-0.8-0.3-1.1
			c-0.2-0.2-0.5-0.3-0.9-0.3c-0.3,0-0.5,0.1-0.7,0.2c-0.2,0.1-0.4,0.3-0.5,0.5v4l0.8,0.2v1.2h-3.8V119.6z"/>
		<path class="st4" d="M199.2,119.6l1-0.2v-4.6l-1.1-0.2v-1.2h2.9l0.1,1.1c0.2-0.4,0.5-0.7,0.9-0.9c0.4-0.2,0.8-0.3,1.2-0.3
			c0.7,0,1.3,0.2,1.8,0.7c0.4,0.5,0.6,1.2,0.6,2.2v3.2l1,0.2v1.2h-3.8v-1.2l0.9-0.2v-3.2c0-0.5-0.1-0.8-0.3-1.1
			c-0.2-0.2-0.5-0.3-0.9-0.3c-0.3,0-0.5,0.1-0.7,0.2c-0.2,0.1-0.4,0.3-0.5,0.5v4l0.8,0.2v1.2h-3.8V119.6z"/>
		<path class="st4" d="M208.2,117c0-1.1,0.3-2,0.9-2.7c0.6-0.7,1.5-1.1,2.6-1.1c1.1,0,1.9,0.4,2.6,1.1c0.6,0.7,0.9,1.6,0.9,2.7v0.1
			c0,1.1-0.3,2-0.9,2.7c-0.6,0.7-1.5,1-2.6,1c-1.1,0-2-0.3-2.6-1c-0.6-0.7-0.9-1.6-0.9-2.7V117z M210.2,117.1c0,0.7,0.1,1.2,0.4,1.6
			c0.2,0.4,0.6,0.6,1.1,0.6c0.5,0,0.9-0.2,1.1-0.6s0.4-1,0.4-1.6V117c0-0.7-0.1-1.2-0.4-1.6c-0.2-0.4-0.6-0.6-1.1-0.6
			s-0.9,0.2-1.1,0.6c-0.2,0.4-0.4,1-0.4,1.6V117.1z"/>
		<path class="st4" d="M223.6,114.6l-0.7,0.1l-2.7,7.2c-0.2,0.5-0.5,1-0.9,1.3c-0.4,0.4-0.9,0.5-1.6,0.5c-0.2,0-0.3,0-0.5,0
			c-0.1,0-0.3-0.1-0.5-0.1l0.2-1.5c0.1,0,0.1,0,0.2,0s0.1,0,0.2,0c0.3,0,0.6-0.1,0.8-0.2c0.2-0.2,0.3-0.4,0.4-0.6l0.2-0.6l-2.3-6.1
			l-0.7-0.1v-1.2h3.6v1.2l-0.8,0.1l1,3l0.1,0.5l0,0l1.2-3.5l-0.8-0.1v-1.2h3.6V114.6z"/>
		<path class="st4" d="M228.8,120.8c-0.1-0.1-0.1-0.2-0.1-0.4c0-0.1-0.1-0.3-0.1-0.4c-0.2,0.3-0.5,0.5-0.9,0.7
			c-0.3,0.2-0.7,0.3-1.2,0.3c-0.7,0-1.3-0.2-1.7-0.6c-0.4-0.4-0.6-0.9-0.6-1.6c0-0.7,0.3-1.2,0.8-1.6c0.6-0.4,1.4-0.6,2.4-0.6h1
			v-0.7c0-0.4-0.1-0.6-0.3-0.8s-0.5-0.3-0.9-0.3c-0.2,0-0.4,0-0.6,0.1c-0.2,0.1-0.3,0.1-0.4,0.2l-0.1,0.8h-1.5l0-1.6
			c0.4-0.2,0.8-0.5,1.3-0.6s1-0.3,1.5-0.3c0.9,0,1.7,0.2,2.2,0.7c0.6,0.4,0.9,1.1,0.9,1.9v3.1c0,0.1,0,0.2,0,0.3c0,0.1,0,0.2,0,0.3
			l0.6,0.1v1.2H228.8z M227.1,119.4c0.3,0,0.6-0.1,0.8-0.2c0.2-0.1,0.4-0.3,0.6-0.5v-1.1h-1c-0.4,0-0.7,0.1-1,0.3
			c-0.2,0.2-0.3,0.4-0.3,0.7c0,0.3,0.1,0.4,0.2,0.6C226.6,119.4,226.8,119.4,227.1,119.4z"/>
		<path class="st4" d="M231.7,119.6l1-0.2v-4.6l-1.1-0.2v-1.2h2.9l0.1,1.1c0.2-0.4,0.5-0.7,0.9-0.9c0.4-0.2,0.8-0.3,1.2-0.3
			c0.7,0,1.3,0.2,1.8,0.7c0.4,0.5,0.6,1.2,0.6,2.2v3.2l1,0.2v1.2h-3.8v-1.2l0.9-0.2v-3.2c0-0.5-0.1-0.8-0.3-1.1
			c-0.2-0.2-0.5-0.3-0.9-0.3c-0.3,0-0.5,0.1-0.7,0.2c-0.2,0.1-0.4,0.3-0.5,0.5v4l0.8,0.2v1.2h-3.8V119.6z"/>
		<path class="st4" d="M244.1,119.4c0.4,0,0.6-0.1,0.9-0.3c0.2-0.2,0.3-0.5,0.3-0.8h1.8l0,0c0,0.7-0.3,1.4-0.8,1.9
			c-0.6,0.5-1.3,0.8-2.2,0.8c-1.1,0-2-0.3-2.5-1c-0.6-0.7-0.9-1.6-0.9-2.7V117c0-1.1,0.3-2,0.9-2.7c0.6-0.7,1.5-1.1,2.6-1.1
			c0.6,0,1.1,0.1,1.6,0.3c0.5,0.2,0.9,0.4,1.2,0.8l0,2h-1.6l-0.3-1.2c-0.1-0.1-0.2-0.2-0.4-0.2c-0.1-0.1-0.3-0.1-0.5-0.1
			c-0.6,0-1,0.2-1.2,0.6s-0.3,0.9-0.3,1.6v0.2c0,0.7,0.1,1.2,0.3,1.6C243.2,119.2,243.5,119.4,244.1,119.4z"/>
		<path class="st4" d="M251.5,120.9c-1.1,0-1.9-0.3-2.6-1c-0.6-0.7-1-1.6-1-2.6V117c0-1.1,0.3-2,0.9-2.7c0.6-0.7,1.4-1.1,2.4-1.1
			c1,0,1.8,0.3,2.3,0.9c0.6,0.6,0.8,1.4,0.8,2.4v1.1h-4.4l0,0c0,0.5,0.2,0.9,0.5,1.2c0.3,0.3,0.7,0.5,1.2,0.5c0.4,0,0.8,0,1.1-0.1
			c0.3-0.1,0.6-0.2,1-0.4l0.5,1.2c-0.3,0.2-0.7,0.4-1.2,0.6S252.1,120.9,251.5,120.9z M251.3,114.8c-0.4,0-0.7,0.1-0.9,0.4
			c-0.2,0.3-0.3,0.7-0.4,1.1l0,0h2.4v-0.2c0-0.4-0.1-0.8-0.3-1C252,114.9,251.7,114.8,251.3,114.8z"/>
		<path class="st4" d="M261.8,111.6v1.8h1.3v1.4h-1.3v3.8c0,0.3,0.1,0.5,0.2,0.6c0.1,0.1,0.3,0.2,0.5,0.2c0.1,0,0.3,0,0.4,0
			c0.1,0,0.2,0,0.3-0.1l0.2,1.4c-0.2,0.1-0.4,0.1-0.7,0.2c-0.2,0-0.5,0.1-0.7,0.1c-0.7,0-1.2-0.2-1.6-0.6c-0.4-0.4-0.6-1-0.6-1.8
			v-3.8h-1.1v-1.4h1.1v-1.8H261.8z"/>
		<path class="st4" d="M264,119.6l1-0.2v-7.9l-1.1-0.2v-1.2h3.1v4.2c0.2-0.3,0.5-0.6,0.9-0.8c0.3-0.2,0.7-0.3,1.1-0.3
			c0.8,0,1.4,0.3,1.8,0.8c0.4,0.5,0.7,1.3,0.7,2.4v3l1,0.2v1.2h-3.8v-1.2l0.9-0.2v-3c0-0.6-0.1-1-0.3-1.2c-0.2-0.2-0.5-0.4-0.9-0.4
			c-0.3,0-0.5,0-0.7,0.2c-0.2,0.1-0.4,0.2-0.5,0.4v4l0.9,0.2v1.2H264V119.6z"/>
		<path class="st4" d="M273.1,119.6l1-0.2v-4.6l-1.1-0.2v-1.2h2.9l0.1,1.1c0.2-0.4,0.4-0.7,0.7-0.9s0.6-0.3,1-0.3c0.1,0,0.2,0,0.3,0
			c0.1,0,0.2,0,0.3,0.1l-0.2,1.8l-0.8,0c-0.3,0-0.5,0.1-0.7,0.2s-0.3,0.3-0.4,0.5v3.6l1,0.2v1.2h-3.9V119.6z"/>
		<path class="st4" d="M278.7,117c0-1.1,0.3-2,0.9-2.7c0.6-0.7,1.5-1.1,2.6-1.1c1.1,0,1.9,0.4,2.6,1.1c0.6,0.7,0.9,1.6,0.9,2.7v0.1
			c0,1.1-0.3,2-0.9,2.7c-0.6,0.7-1.5,1-2.6,1c-1.1,0-2-0.3-2.6-1c-0.6-0.7-0.9-1.6-0.9-2.7V117z M280.7,117.1c0,0.7,0.1,1.2,0.4,1.6
			c0.2,0.4,0.6,0.6,1.1,0.6c0.5,0,0.9-0.2,1.1-0.6s0.4-1,0.4-1.6V117c0-0.7-0.1-1.2-0.4-1.6c-0.2-0.4-0.6-0.6-1.1-0.6
			s-0.9,0.2-1.1,0.6c-0.2,0.4-0.4,1-0.4,1.6V117.1z"/>
		<path class="st4" d="M291.8,119.8c-0.2,0.3-0.5,0.6-0.9,0.8s-0.7,0.3-1.2,0.3c-0.8,0-1.4-0.2-1.8-0.7c-0.4-0.5-0.7-1.3-0.7-2.3
			v-3.1l-0.8-0.2v-1.2h0.8h2v4.5c0,0.5,0.1,0.9,0.3,1.2c0.2,0.2,0.4,0.4,0.8,0.4c0.3,0,0.6-0.1,0.8-0.2c0.2-0.1,0.4-0.2,0.6-0.4v-4
			l-0.9-0.2v-1.2h0.9h2v6l0.9,0.2v1.2h-2.6L291.8,119.8z"/>
		<path class="st4" d="M295.4,117.1c0-1.2,0.3-2.1,0.8-2.8c0.5-0.7,1.2-1.1,2.1-1.1c0.4,0,0.8,0.1,1.1,0.3c0.3,0.2,0.6,0.4,0.8,0.8
			l0.1-0.9h1.7v7.2c0,1-0.3,1.8-0.9,2.3c-0.6,0.6-1.5,0.9-2.5,0.9c-0.4,0-0.8-0.1-1.2-0.2c-0.4-0.1-0.8-0.2-1.2-0.4l0.4-1.4
			c0.3,0.1,0.6,0.2,1,0.3c0.3,0.1,0.7,0.1,1,0.1c0.5,0,0.9-0.1,1.1-0.4c0.2-0.3,0.4-0.7,0.4-1.2v-0.5c-0.2,0.3-0.5,0.5-0.8,0.6
			c-0.3,0.1-0.6,0.2-1,0.2c-0.9,0-1.6-0.3-2.1-1c-0.5-0.7-0.8-1.5-0.8-2.6V117.1z M297.4,117.3c0,0.6,0.1,1.2,0.3,1.5
			c0.2,0.4,0.6,0.6,1.1,0.6c0.3,0,0.6-0.1,0.8-0.2c0.2-0.1,0.4-0.3,0.5-0.5v-3.2c-0.1-0.2-0.3-0.4-0.5-0.5s-0.5-0.2-0.8-0.2
			c-0.5,0-0.8,0.2-1.1,0.6s-0.3,1-0.3,1.7V117.3z"/>
		<path class="st4" d="M303.2,119.6l1-0.2v-7.9l-1.1-0.2v-1.2h3.1v4.2c0.2-0.3,0.5-0.6,0.9-0.8c0.3-0.2,0.7-0.3,1.1-0.3
			c0.8,0,1.4,0.3,1.8,0.8c0.4,0.5,0.7,1.3,0.7,2.4v3l1,0.2v1.2h-3.8v-1.2l0.9-0.2v-3c0-0.6-0.1-1-0.3-1.2c-0.2-0.2-0.5-0.4-0.9-0.4
			c-0.3,0-0.5,0-0.7,0.2c-0.2,0.1-0.4,0.2-0.5,0.4v4l0.9,0.2v1.2h-3.8V119.6z"/>
	</g>
	<g class="st3">
		<path class="st4" d="M44.2,134.1c0,1.1-0.2,2-0.7,2.6s-1.2,1-2.1,1c-0.4,0-0.8-0.1-1.1-0.3c-0.3-0.2-0.6-0.4-0.8-0.8l-0.1,0.9
			h-1.7v-9.3l-1.1-0.2v-1.2h3v4.1c0.2-0.3,0.5-0.5,0.8-0.7s0.6-0.2,1-0.2c0.9,0,1.7,0.4,2.1,1.1c0.5,0.7,0.7,1.7,0.7,2.8V134.1z
			 M42.2,133.9c0-0.7-0.1-1.3-0.3-1.7c-0.2-0.4-0.6-0.6-1.1-0.6c-0.3,0-0.6,0.1-0.8,0.2c-0.2,0.1-0.4,0.3-0.5,0.6v3.1
			c0.1,0.2,0.3,0.4,0.5,0.5s0.5,0.2,0.8,0.2c0.5,0,0.9-0.2,1.1-0.5c0.2-0.4,0.3-0.9,0.3-1.5V133.9z"/>
		<path class="st4" d="M48.6,137.7c-1.1,0-1.9-0.3-2.6-1s-1-1.6-1-2.6v-0.3c0-1.1,0.3-2,0.9-2.7s1.4-1.1,2.4-1.1
			c1,0,1.8,0.3,2.3,0.9s0.8,1.4,0.8,2.4v1.1h-4.4l0,0c0,0.5,0.2,0.9,0.5,1.2s0.7,0.5,1.2,0.5c0.4,0,0.8,0,1.1-0.1
			c0.3-0.1,0.6-0.2,1-0.4l0.5,1.2c-0.3,0.2-0.7,0.4-1.2,0.6S49.2,137.7,48.6,137.7z M48.5,131.6c-0.4,0-0.7,0.1-0.9,0.4
			s-0.3,0.7-0.4,1.1l0,0h2.4V133c0-0.4-0.1-0.8-0.3-1C49.2,131.7,48.9,131.6,48.5,131.6z"/>
		<path class="st4" d="M52.5,136.4l1-0.2v-4.6l-1.1-0.2v-1.2h3.1v6l1,0.2v1.2h-3.9V136.4z M55.5,128.4h-2v-1.5h2V128.4z"/>
		<path class="st4" d="M57,136.4l1-0.2v-4.6l-1.1-0.2v-1.2h2.9l0.1,1.1c0.2-0.4,0.5-0.7,0.9-0.9s0.8-0.3,1.2-0.3
			c0.7,0,1.3,0.2,1.8,0.7s0.6,1.2,0.6,2.2v3.2l1,0.2v1.2h-3.8v-1.2l0.9-0.2V133c0-0.5-0.1-0.8-0.3-1.1c-0.2-0.2-0.5-0.3-0.9-0.3
			c-0.3,0-0.5,0.1-0.7,0.2c-0.2,0.1-0.4,0.3-0.5,0.5v4l0.8,0.2v1.2H57V136.4z"/>
		<path class="st4" d="M66,133.9c0-1.2,0.3-2.1,0.8-2.8s1.2-1.1,2.1-1.1c0.4,0,0.8,0.1,1.1,0.3c0.3,0.2,0.6,0.4,0.8,0.8l0.1-0.9h1.7
			v7.2c0,1-0.3,1.8-0.9,2.3c-0.6,0.6-1.5,0.9-2.5,0.9c-0.4,0-0.8-0.1-1.2-0.2c-0.4-0.1-0.8-0.2-1.2-0.4l0.4-1.4
			c0.3,0.1,0.6,0.2,1,0.3c0.3,0.1,0.7,0.1,1,0.1c0.5,0,0.9-0.1,1.1-0.4s0.4-0.7,0.4-1.2v-0.5c-0.2,0.3-0.5,0.5-0.8,0.6
			s-0.6,0.2-1,0.2c-0.9,0-1.6-0.3-2.1-1c-0.5-0.7-0.8-1.5-0.8-2.6V133.9z M68,134.1c0,0.6,0.1,1.2,0.3,1.5c0.2,0.4,0.6,0.6,1.1,0.6
			c0.3,0,0.6-0.1,0.8-0.2c0.2-0.1,0.4-0.3,0.5-0.5v-3.2c-0.1-0.2-0.3-0.4-0.5-0.5s-0.5-0.2-0.8-0.2c-0.5,0-0.8,0.2-1.1,0.6
			s-0.3,1-0.3,1.7V134.1z"/>
		<path class="st4" d="M82.5,136.6c-0.2,0.3-0.5,0.6-0.9,0.8s-0.7,0.3-1.2,0.3c-0.8,0-1.4-0.2-1.8-0.7c-0.4-0.5-0.7-1.3-0.7-2.3
			v-3.1l-0.8-0.2v-1.2h0.8h2v4.5c0,0.5,0.1,0.9,0.3,1.2c0.2,0.2,0.4,0.4,0.8,0.4c0.3,0,0.6-0.1,0.8-0.2c0.2-0.1,0.4-0.2,0.6-0.4v-4
			l-0.9-0.2v-1.2h0.9h2v6l0.9,0.2v1.2h-2.6L82.5,136.6z"/>
		<path class="st4" d="M86,136.4l1-0.2v-4.6l-1.1-0.2v-1.2h2.9l0.1,1.1c0.2-0.4,0.5-0.7,0.9-0.9s0.8-0.3,1.2-0.3
			c0.7,0,1.3,0.2,1.8,0.7s0.6,1.2,0.6,2.2v3.2l1,0.2v1.2h-3.8v-1.2l0.9-0.2V133c0-0.5-0.1-0.8-0.3-1.1c-0.2-0.2-0.5-0.3-0.9-0.3
			c-0.3,0-0.5,0.1-0.7,0.2c-0.2,0.1-0.4,0.3-0.5,0.5v4l0.8,0.2v1.2H86V136.4z"/>
		<path class="st4" d="M105.5,131.4l-0.7,0.1l-1.5,6.1h-1.7l-1.4-4.4h0l-1.4,4.4h-1.7l-1.6-6.1l-0.7-0.1v-1.2h3.3v1.2l-0.8,0.2
			l0.7,3.4h0l1.4-4.7h1.3l1.4,4.8h0l0.7-3.4l-0.8-0.2v-1.2h3.3V131.4z"/>
		<path class="st4" d="M109.7,137.7c-1.1,0-1.9-0.3-2.6-1s-1-1.6-1-2.6v-0.3c0-1.1,0.3-2,0.9-2.7s1.4-1.1,2.4-1.1
			c1,0,1.8,0.3,2.3,0.9s0.8,1.4,0.8,2.4v1.1h-4.4l0,0c0,0.5,0.2,0.9,0.5,1.2s0.7,0.5,1.2,0.5c0.4,0,0.8,0,1.1-0.1
			c0.3-0.1,0.6-0.2,1-0.4l0.5,1.2c-0.3,0.2-0.7,0.4-1.2,0.6S110.3,137.7,109.7,137.7z M109.5,131.6c-0.4,0-0.7,0.1-0.9,0.4
			s-0.3,0.7-0.4,1.1l0,0h2.4V133c0-0.4-0.1-0.8-0.3-1C110.2,131.7,109.9,131.6,109.5,131.6z"/>
		<path class="st4" d="M113.4,128.1v-1.2h3.1v9.3l1,0.2v1.2h-3.9v-1.2l1-0.2v-7.9L113.4,128.1z"/>
		<path class="st4" d="M121.6,136.2c0.4,0,0.6-0.1,0.9-0.3c0.2-0.2,0.3-0.5,0.3-0.8h1.8l0,0c0,0.7-0.3,1.4-0.8,1.9
			c-0.6,0.5-1.3,0.8-2.2,0.8c-1.1,0-2-0.3-2.5-1s-0.9-1.6-0.9-2.7v-0.2c0-1.1,0.3-2,0.9-2.7s1.5-1.1,2.6-1.1c0.6,0,1.1,0.1,1.6,0.3
			s0.9,0.4,1.2,0.8l0,2h-1.6l-0.3-1.2c-0.1-0.1-0.2-0.2-0.4-0.2c-0.1-0.1-0.3-0.1-0.5-0.1c-0.6,0-1,0.2-1.2,0.6s-0.3,0.9-0.3,1.6
			v0.2c0,0.7,0.1,1.2,0.3,1.6C120.7,136,121,136.2,121.6,136.2z"/>
		<path class="st4" d="M125.5,133.8c0-1.1,0.3-2,0.9-2.7c0.6-0.7,1.5-1.1,2.6-1.1c1.1,0,1.9,0.4,2.6,1.1s0.9,1.6,0.9,2.7v0.1
			c0,1.1-0.3,2-0.9,2.7c-0.6,0.7-1.5,1-2.6,1c-1.1,0-2-0.3-2.6-1c-0.6-0.7-0.9-1.6-0.9-2.7V133.8z M127.5,133.9
			c0,0.7,0.1,1.2,0.4,1.6c0.2,0.4,0.6,0.6,1.1,0.6c0.5,0,0.9-0.2,1.1-0.6s0.4-1,0.4-1.6v-0.1c0-0.7-0.1-1.2-0.4-1.6
			s-0.6-0.6-1.1-0.6s-0.9,0.2-1.1,0.6s-0.4,1-0.4,1.6V133.9z"/>
		<path class="st4" d="M133.1,131.4v-1.2h2.9l0.1,1c0.2-0.4,0.5-0.6,0.9-0.8c0.4-0.2,0.8-0.3,1.2-0.3c0.5,0,0.9,0.1,1.2,0.3
			s0.6,0.5,0.8,1c0.2-0.4,0.5-0.7,0.9-0.9s0.8-0.3,1.3-0.3c0.7,0,1.3,0.3,1.7,0.8c0.4,0.5,0.6,1.3,0.6,2.3v3.1l1,0.2v1.2h-3.8v-1.2
			l0.9-0.2v-3.1c0-0.6-0.1-1-0.3-1.2s-0.5-0.3-0.8-0.3c-0.3,0-0.5,0.1-0.7,0.2c-0.2,0.1-0.4,0.3-0.5,0.5c0,0.1,0,0.2,0,0.2
			c0,0.1,0,0.1,0,0.2v3.5l0.8,0.2v1.2h-3.6v-1.2l0.8-0.2v-3.1c0-0.5-0.1-0.9-0.3-1.2c-0.2-0.2-0.5-0.3-0.8-0.3
			c-0.3,0-0.5,0.1-0.7,0.2c-0.2,0.1-0.4,0.2-0.5,0.4v4l0.9,0.2v1.2h-3.8v-1.2l1-0.2v-4.6L133.1,131.4z"/>
		<path class="st4" d="M149.8,137.7c-1.1,0-1.9-0.3-2.6-1s-1-1.6-1-2.6v-0.3c0-1.1,0.3-2,0.9-2.7s1.4-1.1,2.4-1.1
			c1,0,1.8,0.3,2.3,0.9s0.8,1.4,0.8,2.4v1.1h-4.4l0,0c0,0.5,0.2,0.9,0.5,1.2s0.7,0.5,1.2,0.5c0.4,0,0.8,0,1.1-0.1
			c0.3-0.1,0.6-0.2,1-0.4l0.5,1.2c-0.3,0.2-0.7,0.4-1.2,0.6S150.4,137.7,149.8,137.7z M149.6,131.6c-0.4,0-0.7,0.1-0.9,0.4
			s-0.3,0.7-0.4,1.1l0,0h2.4V133c0-0.4-0.1-0.8-0.3-1C150.3,131.7,150,131.6,149.6,131.6z"/>
		<path class="st4" d="M157.2,133.8c0-1.1,0.3-2,0.9-2.7c0.6-0.7,1.5-1.1,2.6-1.1c1.1,0,1.9,0.4,2.6,1.1s0.9,1.6,0.9,2.7v0.1
			c0,1.1-0.3,2-0.9,2.7c-0.6,0.7-1.5,1-2.6,1c-1.1,0-2-0.3-2.6-1c-0.6-0.7-0.9-1.6-0.9-2.7V133.8z M159.2,133.9
			c0,0.7,0.1,1.2,0.4,1.6c0.2,0.4,0.6,0.6,1.1,0.6c0.5,0,0.9-0.2,1.1-0.6s0.4-1,0.4-1.6v-0.1c0-0.7-0.1-1.2-0.4-1.6
			s-0.6-0.6-1.1-0.6s-0.9,0.2-1.1,0.6s-0.4,1-0.4,1.6V133.9z"/>
		<path class="st4" d="M165.2,136.4l1-0.2v-4.6l-1.1-0.2v-1.2h2.9l0.1,1.1c0.2-0.4,0.4-0.7,0.7-0.9s0.6-0.3,1-0.3c0.1,0,0.2,0,0.3,0
			c0.1,0,0.2,0,0.3,0.1l-0.2,1.8l-0.8,0c-0.3,0-0.5,0.1-0.7,0.2s-0.3,0.3-0.4,0.5v3.6l1,0.2v1.2h-3.9V136.4z"/>
		<path class="st4" d="M179.5,136.6c-0.2,0.3-0.5,0.6-0.9,0.8s-0.7,0.3-1.2,0.3c-0.8,0-1.4-0.2-1.8-0.7c-0.4-0.5-0.7-1.3-0.7-2.3
			v-3.1l-0.8-0.2v-1.2h0.8h2v4.5c0,0.5,0.1,0.9,0.3,1.2c0.2,0.2,0.4,0.4,0.8,0.4c0.3,0,0.6-0.1,0.8-0.2c0.2-0.1,0.4-0.2,0.6-0.4v-4
			l-0.9-0.2v-1.2h0.9h2v6l0.9,0.2v1.2h-2.6L179.5,136.6z"/>
		<path class="st4" d="M183,136.4l1-0.2v-4.6l-1.1-0.2v-1.2h2.9l0.1,1.1c0.2-0.4,0.5-0.7,0.9-0.9c0.4-0.2,0.8-0.3,1.2-0.3
			c0.7,0,1.3,0.2,1.8,0.7c0.4,0.5,0.6,1.2,0.6,2.2v3.2l1,0.2v1.2h-3.8v-1.2l0.9-0.2V133c0-0.5-0.1-0.8-0.3-1.1
			c-0.2-0.2-0.5-0.3-0.9-0.3c-0.3,0-0.5,0.1-0.7,0.2c-0.2,0.1-0.4,0.3-0.5,0.5v4l0.8,0.2v1.2H183V136.4z"/>
		<path class="st4" d="M191.9,136.4l1-0.2v-4.6l-1.1-0.2v-1.2h3.1v6l1,0.2v1.2h-3.9V136.4z M194.9,128.4h-2v-1.5h2V128.4z"/>
		<path class="st4" d="M196.4,136.4l1-0.2v-4.6l-1.1-0.2v-1.2h2.9l0.1,1.1c0.2-0.4,0.5-0.7,0.9-0.9c0.4-0.2,0.8-0.3,1.2-0.3
			c0.7,0,1.3,0.2,1.8,0.7c0.4,0.5,0.6,1.2,0.6,2.2v3.2l1,0.2v1.2h-3.8v-1.2l0.9-0.2V133c0-0.5-0.1-0.8-0.3-1.1
			c-0.2-0.2-0.5-0.3-0.9-0.3c-0.3,0-0.5,0.1-0.7,0.2c-0.2,0.1-0.4,0.3-0.5,0.5v4l0.8,0.2v1.2h-3.8V136.4z"/>
		<path class="st4" d="M208.5,131.4l-0.7,0.1l1,3.3l0.1,0.7h0l0.1-0.7l1-3.3l-0.7-0.1v-1.2h3.4v1.2l-0.6,0.1l-2.2,6.1H208l-2.2-6.1
			l-0.6-0.1v-1.2h3.4V131.4z"/>
		<path class="st4" d="M213.3,136.4l1-0.2v-4.6l-1.1-0.2v-1.2h3.1v6l1,0.2v1.2h-3.9V136.4z M216.2,128.4h-2v-1.5h2V128.4z"/>
		<path class="st4" d="M220.8,128.4v1.8h1.3v1.4h-1.3v3.8c0,0.3,0.1,0.5,0.2,0.6c0.1,0.1,0.3,0.2,0.5,0.2c0.1,0,0.3,0,0.4,0
			c0.1,0,0.2,0,0.3-0.1l0.2,1.4c-0.2,0.1-0.4,0.1-0.7,0.2c-0.2,0-0.5,0.1-0.7,0.1c-0.7,0-1.2-0.2-1.6-0.6c-0.4-0.4-0.6-1-0.6-1.8
			v-3.8h-1.1v-1.4h1.1v-1.8H220.8z"/>
		<path class="st4" d="M226.6,137.7c-1.1,0-1.9-0.3-2.6-1c-0.6-0.7-1-1.6-1-2.6v-0.3c0-1.1,0.3-2,0.9-2.7c0.6-0.7,1.4-1.1,2.4-1.1
			c1,0,1.8,0.3,2.3,0.9c0.6,0.6,0.8,1.4,0.8,2.4v1.1h-4.4l0,0c0,0.5,0.2,0.9,0.5,1.2c0.3,0.3,0.7,0.5,1.2,0.5c0.4,0,0.8,0,1.1-0.1
			c0.3-0.1,0.6-0.2,1-0.4l0.5,1.2c-0.3,0.2-0.7,0.4-1.2,0.6S227.2,137.7,226.6,137.7z M226.4,131.6c-0.4,0-0.7,0.1-0.9,0.4
			c-0.2,0.3-0.3,0.7-0.4,1.1l0,0h2.4V133c0-0.4-0.1-0.8-0.3-1C227.1,131.7,226.8,131.6,226.4,131.6z"/>
		<path class="st4" d="M235.3,136.7c-0.2,0.3-0.5,0.6-0.8,0.8c-0.3,0.2-0.7,0.3-1.1,0.3c-0.9,0-1.6-0.3-2.1-1
			c-0.5-0.7-0.8-1.5-0.8-2.6v-0.1c0-1.2,0.3-2.1,0.8-2.8s1.2-1.1,2.1-1.1c0.4,0,0.7,0.1,1,0.2c0.3,0.2,0.6,0.4,0.8,0.7v-2.7
			l-1.1-0.2v-1.2h1.1h2v9.3l1,0.2v1.2h-2.7L235.3,136.7z M232.5,134.1c0,0.6,0.1,1.2,0.3,1.5c0.2,0.4,0.6,0.6,1.1,0.6
			c0.3,0,0.5-0.1,0.8-0.2c0.2-0.1,0.4-0.3,0.5-0.5v-3.1c-0.1-0.2-0.3-0.4-0.5-0.6c-0.2-0.1-0.5-0.2-0.7-0.2c-0.5,0-0.8,0.2-1.1,0.6
			c-0.2,0.4-0.3,1-0.3,1.7V134.1z"/>
	</g>
	<g class="st3">
		<path class="st4" d="M160.9,187H160v9.3h0.8v1.3h-2.5v-11.9h2.5V187z"/>
		<path class="st4" d="M164.3,195.8c-0.9,0-1.6-0.3-2.2-0.9s-0.8-1.3-0.8-2.2v-0.2c0-0.9,0.3-1.7,0.8-2.3s1.2-0.9,2.1-0.9
			c0.9,0,1.5,0.3,2,0.8s0.7,1.2,0.7,2.1v0.9h-3.8l0,0c0,0.4,0.2,0.8,0.4,1s0.6,0.4,1,0.4c0.4,0,0.7,0,0.9-0.1s0.5-0.2,0.8-0.4
			l0.5,1.1c-0.3,0.2-0.6,0.4-1,0.5S164.8,195.8,164.3,195.8z M164.2,190.5c-0.3,0-0.6,0.1-0.8,0.4s-0.3,0.6-0.3,1l0,0h2.1v-0.2
			c0-0.4-0.1-0.7-0.3-0.9S164.5,190.5,164.2,190.5z"/>
		<path class="st4" d="M167.6,194.6l0.8-0.2v-3.9l-0.9-0.2v-1h2.5l0.1,0.9c0.2-0.3,0.5-0.6,0.8-0.8s0.7-0.3,1-0.3
			c0.6,0,1.1,0.2,1.5,0.6s0.5,1,0.5,1.9v2.8l0.8,0.2v1h-3.3v-1l0.7-0.2v-2.8c0-0.4-0.1-0.7-0.3-0.9s-0.4-0.3-0.8-0.3
			c-0.2,0-0.4,0-0.6,0.1s-0.3,0.2-0.5,0.4v3.4l0.7,0.2v1h-3.2V194.6z"/>
		<path class="st4" d="M177.8,187.8v1.6h1.1v1.2h-1.1v3.2c0,0.2,0.1,0.4,0.2,0.5s0.2,0.2,0.4,0.2c0.1,0,0.2,0,0.3,0s0.2,0,0.3,0
			l0.1,1.2c-0.2,0.1-0.4,0.1-0.6,0.1s-0.4,0-0.6,0c-0.6,0-1-0.2-1.4-0.5s-0.5-0.8-0.5-1.5v-3.2h-0.9v-1.2h0.9v-1.6H177.8z"/>
		<path class="st4" d="M182.8,195.8c-0.9,0-1.6-0.3-2.2-0.9s-0.8-1.3-0.8-2.2v-0.2c0-0.9,0.3-1.7,0.8-2.3s1.2-0.9,2.1-0.9
			c0.9,0,1.5,0.3,2,0.8s0.7,1.2,0.7,2.1v0.9h-3.8l0,0c0,0.4,0.2,0.8,0.4,1s0.6,0.4,1,0.4c0.4,0,0.7,0,0.9-0.1s0.5-0.2,0.8-0.4
			l0.5,1.1c-0.3,0.2-0.6,0.4-1,0.5S183.3,195.8,182.8,195.8z M182.6,190.5c-0.3,0-0.6,0.1-0.8,0.4s-0.3,0.6-0.3,1l0,0h2.1v-0.2
			c0-0.4-0.1-0.7-0.3-0.9S183,190.5,182.6,190.5z"/>
		<path class="st4" d="M186.3,194.6l0.8-0.2v-3.9l-0.9-0.2v-1h2.5l0.1,0.9c0.1-0.3,0.3-0.6,0.6-0.8s0.5-0.3,0.8-0.3
			c0.1,0,0.2,0,0.3,0s0.2,0,0.2,0l-0.2,1.6l-0.7,0c-0.2,0-0.5,0-0.6,0.1s-0.3,0.2-0.4,0.4v3.1l0.8,0.2v1h-3.4V194.6z"/>
		<path class="st4" d="M190.9,185.8h2.5v11.9h-2.5v-1.3h0.8V187h-0.8V185.8z"/>
	</g>
</g>
</svg>
