<?xml version="1.0" encoding="utf-8"?>
<!-- Generator: Adobe Illustrator 22.0.1, SVG Export Plug-In . SVG Version: 6.00 Build 0)  -->
<!DOCTYPE svg PUBLIC "-//W3C//DTD SVG 1.1//EN" "http://www.w3.org/Graphics/SVG/1.1/DTD/svg11.dtd">
<svg version="1.1" id="Layer_1" xmlns="http://www.w3.org/2000/svg" xmlns:xlink="http://www.w3.org/1999/xlink" x="0px" y="0px"
	 viewBox="0 0 179.2 37.6" style="enable-background:new 0 0 179.2 37.6;" xml:space="preserve">
<style type="text/css">
	.st0{fill:#482FDF;}
	.st1{fill:#EF3C61;}
	.st2{fill:none;stroke:#482FDF;stroke-width:2.9947;stroke-miterlimit:10;}
	.st3{fill:#FFFFFF;stroke:#482FDF;stroke-width:2.0326;stroke-miterlimit:10;}
</style>
<g>
	<path class="st0" d="M3.4,29.9H0L8.5,4.7h3.4L3.4,29.9z"/>
	<path class="st0" d="M13.1,25.1l2.2-0.5V13.9l-2.5-0.5v-2.8H20v13.9l2.2,0.5v2.8h-9.1V25.1z M20,6.5h-4.6V3.1H20V6.5z"/>
	<path class="st0" d="M23.5,25.1l2.2-0.5V13.9l-2.5-0.5v-2.8h6.8l0.2,2.5c0.6-0.9,1.3-1.6,2.1-2.1c0.8-0.5,1.8-0.7,2.8-0.7
		c1.7,0,3.1,0.5,4.1,1.6c1,1.1,1.5,2.8,1.5,5.1v7.5l2.2,0.5v2.8h-8.9v-2.8l2-0.5v-7.5c0-1.2-0.2-2-0.7-2.5c-0.5-0.5-1.2-0.7-2.1-0.7
		c-0.6,0-1.2,0.1-1.7,0.4c-0.5,0.2-0.9,0.6-1.2,1.1v9.2l1.9,0.5v2.8h-8.7V25.1z"/>
	<path class="st0" d="M67.3,6.4v4.2h3v3.3h-3v8.8c0,0.7,0.1,1.1,0.4,1.4s0.6,0.4,1.1,0.4c0.3,0,0.6,0,0.8,0c0.2,0,0.5-0.1,0.8-0.1
		l0.4,3.4c-0.5,0.2-1,0.3-1.5,0.4c-0.5,0.1-1.1,0.1-1.7,0.1c-1.6,0-2.8-0.4-3.7-1.3c-0.9-0.9-1.3-2.3-1.3-4.2v-8.8h-2.5v-3.3h2.5
		V6.4H67.3z"/>
	<path class="st0" d="M72.9,25.1l2.2-0.5V13.9l-2.5-0.5v-2.8h6.8l0.2,2.5c0.4-0.9,0.9-1.6,1.6-2.1c0.6-0.5,1.4-0.7,2.2-0.7
		c0.2,0,0.5,0,0.8,0.1s0.5,0.1,0.7,0.1l-0.5,4.2l-1.9,0c-0.7,0-1.2,0.1-1.7,0.4c-0.4,0.3-0.8,0.6-1,1.1v8.4l2.2,0.5v2.8h-9.1V25.1z"
		/>
	<path class="st1" d="M85.9,19.1c0-2.6,0.7-4.7,2.2-6.3c1.4-1.6,3.4-2.5,6-2.5c2.5,0,4.5,0.8,6,2.4s2.2,3.7,2.2,6.3v0.3
		c0,2.6-0.7,4.7-2.2,6.3s-3.4,2.4-5.9,2.4c-2.6,0-4.6-0.8-6-2.4s-2.2-3.7-2.2-6.3V19.1z M90.6,19.4c0,1.6,0.3,2.8,0.8,3.8
		c0.6,0.9,1.4,1.4,2.7,1.4c1.2,0,2.1-0.5,2.6-1.4s0.8-2.2,0.8-3.8v-0.3c0-1.5-0.3-2.8-0.8-3.7c-0.6-1-1.4-1.4-2.7-1.4
		s-2.1,0.5-2.6,1.4c-0.6,1-0.8,2.2-0.8,3.7V19.4z"/>
	<path class="st1" d="M104.2,19.1c0-2.6,0.7-4.7,2.2-6.3c1.4-1.6,3.4-2.5,6-2.5c2.5,0,4.5,0.8,6,2.4s2.2,3.7,2.2,6.3v0.3
		c0,2.6-0.7,4.7-2.2,6.3s-3.4,2.4-5.9,2.4c-2.6,0-4.6-0.8-6-2.4c-1.4-1.6-2.2-3.7-2.2-6.3V19.1z M108.8,19.4c0,1.6,0.3,2.8,0.8,3.8
		c0.6,0.9,1.4,1.4,2.7,1.4c1.2,0,2.1-0.5,2.6-1.4s0.8-2.2,0.8-3.8v-0.3c0-1.5-0.3-2.8-0.8-3.7c-0.6-1-1.4-1.4-2.7-1.4
		c-1.2,0-2.1,0.5-2.6,1.4c-0.6,1-0.8,2.2-0.8,3.7V19.4z"/>
	<path class="st0" d="M136.5,16.6h-3.1l-0.5-2.1c-0.3-0.3-0.7-0.5-1.2-0.6s-1-0.3-1.6-0.3c-0.8,0-1.5,0.2-1.9,0.5
		c-0.5,0.4-0.7,0.8-0.7,1.4c0,0.5,0.2,1,0.7,1.3c0.5,0.3,1.4,0.6,2.7,0.9c2.1,0.4,3.7,1,4.7,1.9c1,0.8,1.5,2,1.5,3.4
		c0,1.5-0.7,2.8-2,3.8c-1.3,1-3.1,1.5-5.3,1.5c-1.3,0-2.5-0.2-3.6-0.6c-1.1-0.4-2.1-0.9-3-1.7l0-3.9h3.2l0.6,2.2
		c0.3,0.2,0.7,0.4,1.1,0.5c0.5,0.1,1,0.2,1.5,0.2c0.9,0,1.7-0.2,2.2-0.5c0.5-0.3,0.7-0.8,0.7-1.4c0-0.5-0.2-0.9-0.7-1.3
		s-1.4-0.7-2.8-1c-2-0.4-3.6-1-4.6-1.8c-1-0.8-1.6-1.9-1.6-3.3c0-1.4,0.6-2.7,1.8-3.7c1.2-1,2.9-1.6,5.1-1.6c1.3,0,2.6,0.2,3.8,0.5
		c1.2,0.4,2.1,0.8,2.8,1.4L136.5,16.6z"/>
	<path class="st0" d="M139.1,25.1l2.2-0.5V13.9l-2.5-0.5v-2.8h7.1v13.9l2.2,0.5v2.8h-9.1V25.1z M146,6.5h-4.6V3.1h4.6V6.5z"/>
	<path class="st0" d="M157,13.5l-1.6,0.3l2.3,7.7l0.3,1.6h0.1l0.3-1.6l2.2-7.7l-1.7-0.3v-2.8h7.8v2.8l-1.5,0.2l-5.1,14.2h-4.4
		l-5.1-14.2l-1.5-0.2v-2.8h7.8V13.5z"/>
	<path class="st0" d="M170.3,29.9h-3.4l8.5-25.1h3.4L170.3,29.9z"/>
</g>
<line class="st2" x1="94.3" y1="3.5" x2="114.3" y2="3.5"/>
<line class="st3" x1="52.4" y1="4.8" x2="52.4" y2="10.3"/>
</svg>
