<svg id="ff674529-1ea6-4761-b752-3d7deeb6ab5e" data-name="Layer 1" xmlns="http://www.w3.org/2000/svg" viewBox="0 0 61.84 39.07"><defs><style>.\33 e138d47-8075-4aeb-a34d-9599e227c8b5{fill:#40ede2;}.\34 87019d7-e45e-410f-97a9-3a8d9fbaa4e9{fill:none;stroke-width:4.47px;}.\34 87019d7-e45e-410f-97a9-3a8d9fbaa4e9,.cb597124-e2b6-4f0b-bc5e-465e2f54fe00{stroke:#482fdf;stroke-miterlimit:10;}.cb597124-e2b6-4f0b-bc5e-465e2f54fe00{fill:#fff;stroke-width:3.03px;}</style></defs><title>navicon</title><path class="3e138d47-8075-4aeb-a34d-9599e227c8b5" d="M10.36,28.5a13.78,13.78,0,0,1,3.22-9.41,11.22,11.22,0,0,1,8.89-3.66,11.26,11.26,0,0,1,8.91,3.65A13.77,13.77,0,0,1,34.6,28.5V29a13.77,13.77,0,0,1-3.22,9.44,11.23,11.23,0,0,1-8.86,3.64q-5.73,0-8.94-3.64A13.77,13.77,0,0,1,10.36,29Zm6.93.5a11.23,11.23,0,0,0,1.24,5.64,4.27,4.27,0,0,0,4,2.12,4.22,4.22,0,0,0,3.92-2.13A11,11,0,0,0,27.69,29v-.5a11,11,0,0,0-1.26-5.57,4.26,4.26,0,0,0-4-2.16,4.19,4.19,0,0,0-3.94,2.16,11.18,11.18,0,0,0-1.24,5.57Z" transform="translate(0 -3.01)"/><path class="3e138d47-8075-4aeb-a34d-9599e227c8b5" d="M37.61,28.5a13.73,13.73,0,0,1,3.22-9.41,11.19,11.19,0,0,1,8.88-3.66,11.29,11.29,0,0,1,8.92,3.65,13.76,13.76,0,0,1,3.21,9.42V29a13.76,13.76,0,0,1-3.21,9.44,11.25,11.25,0,0,1-8.87,3.64q-5.71,0-8.93-3.64A13.72,13.72,0,0,1,37.61,29Zm6.93.5a11.23,11.23,0,0,0,1.23,5.64,4.29,4.29,0,0,0,4,2.12,4.22,4.22,0,0,0,3.93-2.13A11.13,11.13,0,0,0,54.94,29v-.5a11,11,0,0,0-1.26-5.57,4.26,4.26,0,0,0-4-2.16,4.21,4.21,0,0,0-3.94,2.16,11.18,11.18,0,0,0-1.23,5.57Z" transform="translate(0 -3.01)"/><line class="487019d7-e45e-410f-97a9-3a8d9fbaa4e9" x1="21.21" y1="2.23" x2="51" y2="2.23"/><line class="cb597124-e2b6-4f0b-bc5e-465e2f54fe00" x1="1.52" y1="4.09" x2="1.52" y2="12.29"/></svg>