<svg id="53f5e4cf-21a6-4e11-a033-648bcdedb8d6" data-name="Layer 1" xmlns="http://www.w3.org/2000/svg" viewBox="0 0 252.13 73.81"><defs><style>.\33 c76eae9-b79f-4bdb-a629-89ff72f8756d{fill:#482fdf;}.\38 c39b15a-3d06-404b-8b99-8bed540b7b2e{fill:#f0f0f0;}.\32 c0aaebb-d18a-4ade-b87c-2a2cdf3f61ff{font-size:11px;fill:#fff;font-family:RobotoSlab-Bold, Roboto Slab;font-weight:700;}.\34 07fb522-809f-41e6-bfb1-5906dfc214f3{letter-spacing:0em;}.\35 a185157-67b4-4126-a46a-cef8652986f9{letter-spacing:-0.01em;}.f4e96624-0059-4684-a7e9-e7e66529c026{letter-spacing:0em;}.\39 65b623f-cbe6-49ce-b088-46cd1a67e353{letter-spacing:0em;}.\39 c7d8ef8-7927-4b63-ab8a-61ca0abfcdcd{letter-spacing:-0.01em;}</style></defs><title>nonintrusive</title><path class="3c76eae9-b79f-4bdb-a629-89ff72f8756d" d="M252.13,4.72V69.6c0,4.21,0,4.21-13.33,4.21H13.33C0,73.81,0,73.81,0,69.6V4.72C0,0,0,0,13.33,0H238.8C252.13,0,252.13,0,252.13,4.72Z"/><path class="8c39b15a-3d06-404b-8b99-8bed540b7b2e" d="M0,9.6V4.72C0,0,0,0,13.33,0H238.8c13.33,0,13.33,0,13.33,4.72V9.4"/><ellipse class="3c76eae9-b79f-4bdb-a629-89ff72f8756d" cx="6.97" cy="5.37" rx="2.29" ry="2.25"/><text class="2c0aaebb-d18a-4ade-b87c-2a2cdf3f61ff" transform="translate(52.72 46.89)"><tspan class="407fb522-809f-41e6-bfb1-5906dfc214f3">h</tspan><tspan x="6.94" y="0">ope I</tspan><tspan class="5a185157-67b4-4126-a46a-cef8652986f9" x="32.15" y="0">’</tspan><tspan class="f4e96624-0059-4684-a7e9-e7e66529c026" x="34.57" y="0">m </tspan><tspan class="407fb522-809f-41e6-bfb1-5906dfc214f3" x="47.5" y="0">n</tspan><tspan x="54.43" y="0">ot disturbi</tspan><tspan class="965b623f-cbe6-49ce-b088-46cd1a67e353" x="108.6" y="0">n</tspan><tspan class="f4e96624-0059-4684-a7e9-e7e66529c026" x="115.53" y="0">g </tspan><tspan class="9c7d8ef8-7927-4b63-ab8a-61ca0abfcdcd" x="124.51" y="0">y</tspan><tspan x="130.94" y="0">ou!</tspan></text></svg>