<svg xmlns="http://www.w3.org/2000/svg" viewBox="0 0 69.6 140.36"><defs><style>.\32 6e54b49-8d22-4689-9cb4-bc0cd1562ddd{fill:#40ede2;}.b81acfc5-494a-491d-a125-d87889edf7d5{fill:#482fdf;}</style></defs><title>Asset 3</title><g id="b33df2f3-279a-4085-8cfe-839ac040463e" data-name="Layer 2"><g id="b66d789a-52e1-4f73-b193-e40ce4ace6d8" data-name="whitecont"><rect class="26e54b49-8d22-4689-9cb4-bc0cd1562ddd" width="69.6" height="140.36"/></g><g id="40bd521f-9554-4211-8870-ff516fe1dc8e" data-name="greencont"><path class="b81acfc5-494a-491d-a125-d87889edf7d5" d="M13.73,11.42H12.35l-.19-1.23a1.84,1.84,0,0,0-.69-.43,2.65,2.65,0,0,0-1-.16,2.2,2.2,0,0,0-1.86.87A3.79,3.79,0,0,0,8,12.76v.32a3.77,3.77,0,0,0,.65,2.29,2.13,2.13,0,0,0,1.83.89,3.18,3.18,0,0,0,1-.16,1.78,1.78,0,0,0,.7-.43l.19-1.23h1.38v1.82a3.79,3.79,0,0,1-1.43,1,4.64,4.64,0,0,1-1.94.39,3.94,3.94,0,0,1-3-1.29,4.7,4.7,0,0,1-1.19-3.31v-.31A4.73,4.73,0,0,1,7.31,9.46a3.94,3.94,0,0,1,3.05-1.29,4.67,4.67,0,0,1,1.94.39,4.24,4.24,0,0,1,1.43,1Z"/><path class="b81acfc5-494a-491d-a125-d87889edf7d5" d="M14.62,14.05a3.7,3.7,0,0,1,.86-2.52,3,3,0,0,1,2.38-1,3,3,0,0,1,2.38,1,3.64,3.64,0,0,1,.86,2.52v.13a3.68,3.68,0,0,1-.86,2.53,3,3,0,0,1-2.37,1,3.06,3.06,0,0,1-2.39-1,3.73,3.73,0,0,1-.86-2.53Zm1.86.13a3,3,0,0,0,.33,1.51,1.26,1.26,0,0,0,2.11,0,2.94,2.94,0,0,0,.34-1.51v-.13a3,3,0,0,0-.34-1.49A1.13,1.13,0,0,0,17.86,12a1.11,1.11,0,0,0-1.05.58,3,3,0,0,0-.33,1.49Z"/><path class="b81acfc5-494a-491d-a125-d87889edf7d5" d="M21.81,16.43l.89-.19V12l-1-.2V10.68h2.71l.09,1a2.62,2.62,0,0,1,.84-.82,2.22,2.22,0,0,1,1.12-.29,2.09,2.09,0,0,1,1.63.65,3,3,0,0,1,.58,2.05v3l.89.19v1.12H26V16.43l.79-.19v-3a1.37,1.37,0,0,0-.28-1A1.11,1.11,0,0,0,25.7,12a1.4,1.4,0,0,0-.66.15,1.33,1.33,0,0,0-.49.42v3.68l.75.19v1.12H21.81Z"/><path class="b81acfc5-494a-491d-a125-d87889edf7d5" d="M32.9,9v1.68h1.2V12H32.9v3.5a.83.83,0,0,0,.16.57.61.61,0,0,0,.45.17l.33,0,.32-.05.16,1.34a4.61,4.61,0,0,1-.62.14,4.43,4.43,0,0,1-.66.05,2,2,0,0,1-1.47-.53,2.29,2.29,0,0,1-.52-1.67V12H30v-1.3h1V9Z"/><path class="b81acfc5-494a-491d-a125-d87889edf7d5" d="M35,16.43l.9-.19V12l-1-.2V10.68H37.7v5.56l.89.19v1.12H35ZM37.7,9H35.85V7.64H37.7Z"/><path class="b81acfc5-494a-491d-a125-d87889edf7d5" d="M39.1,16.43l.89-.19V12l-1-.2V10.68h2.71l.09,1a2.62,2.62,0,0,1,.84-.82,2.25,2.25,0,0,1,1.12-.29,2.09,2.09,0,0,1,1.63.65A3,3,0,0,1,46,13.25v3l.89.19v1.12H43.32V16.43l.79-.19v-3a1.37,1.37,0,0,0-.28-1A1.11,1.11,0,0,0,43,12a1.43,1.43,0,0,0-.66.15,1.41,1.41,0,0,0-.49.42v3.68l.75.19v1.12H39.1Z"/><path class="b81acfc5-494a-491d-a125-d87889edf7d5" d="M52.26,16.68a2.23,2.23,0,0,1-.82.74,2.33,2.33,0,0,1-1.11.26,2.14,2.14,0,0,1-1.7-.7A3.18,3.18,0,0,1,48,14.82V12l-.76-.2V10.68h2.61v4.15a1.79,1.79,0,0,0,.25,1.08.89.89,0,0,0,.75.33,2,2,0,0,0,.76-.14,1.5,1.5,0,0,0,.52-.41V12l-.81-.2V10.68H54v5.56l.83.19v1.12H52.38Z"/><path class="b81acfc5-494a-491d-a125-d87889edf7d5" d="M58.85,17.68a3.1,3.1,0,0,1-2.37-.95,3.42,3.42,0,0,1-.89-2.42v-.26a3.76,3.76,0,0,1,.84-2.52,3.14,3.14,0,0,1,4.42-.14,3.22,3.22,0,0,1,.76,2.26v1h-4.1v0A1.78,1.78,0,0,0,58,15.82a1.4,1.4,0,0,0,1.09.44,3.29,3.29,0,0,0,1-.13,4.39,4.39,0,0,0,.89-.39l.5,1.15a3.65,3.65,0,0,1-1.1.56A4.74,4.74,0,0,1,58.85,17.68ZM58.69,12a.94.94,0,0,0-.81.39,2,2,0,0,0-.37,1l0,0H59.8v-.17a1.46,1.46,0,0,0-.28-.94A1,1,0,0,0,58.69,12Z"/><path class="b81acfc5-494a-491d-a125-d87889edf7d5" d="M6.14,32l.9-.2V27.58l-1-.19V26.28H8.89v5.56l.89.2v1.11H6.14Zm2.75-7.41H7V23.24H8.89Z"/><path class="b81acfc5-494a-491d-a125-d87889edf7d5" d="M10.29,32l.89-.2V27.58l-1-.19V26.28H12.9l.09,1a2.44,2.44,0,0,1,.84-.82A2.22,2.22,0,0,1,15,26.15a2.09,2.09,0,0,1,1.63.65,3,3,0,0,1,.58,2.05v3l.89.2v1.11H14.51V32l.79-.2v-3a1.37,1.37,0,0,0-.28-1,1.11,1.11,0,0,0-.84-.29,1.4,1.4,0,0,0-.66.15,1.33,1.33,0,0,0-.49.42v3.68l.75.2v1.11H10.29Z"/><path class="b81acfc5-494a-491d-a125-d87889edf7d5" d="M26.72,26l-.16-.62H24.07l-.26,2.13a2.12,2.12,0,0,1,.62-.31,2.28,2.28,0,0,1,.8-.13,2.51,2.51,0,0,1,2.06.8,3.34,3.34,0,0,1,.73,2.3,3.2,3.2,0,0,1-.8,2.22,3,3,0,0,1-2.31.88,3.43,3.43,0,0,1-2.18-.7,2.19,2.19,0,0,1-.88-1.91l0,0,1.77-.09a1.3,1.3,0,0,0,.35,1,1.27,1.27,0,0,0,.92.35,1.06,1.06,0,0,0,.95-.47,2.1,2.1,0,0,0,.32-1.2,2.23,2.23,0,0,0-.33-1.28,1.12,1.12,0,0,0-1-.48,1.42,1.42,0,0,0-.81.2,1.06,1.06,0,0,0-.4.53L22,29.05l.53-5.15h5.32V26Z"/><path class="b81acfc5-494a-491d-a125-d87889edf7d5" d="M34.36,28.64H33.12l-.2-.86a1.54,1.54,0,0,0-.48-.25,1.81,1.81,0,0,0-.63-.1,1.23,1.23,0,0,0-.78.22.64.64,0,0,0-.28.54.63.63,0,0,0,.27.52,3,3,0,0,0,1.09.37,4.56,4.56,0,0,1,1.89.74,1.65,1.65,0,0,1,.62,1.36,1.8,1.8,0,0,1-.8,1.51,3.46,3.46,0,0,1-2.1.59,4.45,4.45,0,0,1-1.45-.23,3.7,3.7,0,0,1-1.18-.67l0-1.54h1.29l.26.9a1,1,0,0,0,.45.2,2.35,2.35,0,0,0,.6.07,1.58,1.58,0,0,0,.86-.2.66.66,0,0,0,.29-.56.63.63,0,0,0-.3-.52,3.07,3.07,0,0,0-1.1-.4,4.47,4.47,0,0,1-1.83-.73A1.58,1.58,0,0,1,29,28.28a1.9,1.9,0,0,1,.71-1.49,2.93,2.93,0,0,1,2-.63,5.3,5.3,0,0,1,1.51.22,3.16,3.16,0,0,1,1.12.55Z"/><path class="b81acfc5-494a-491d-a125-d87889edf7d5" d="M37.72,33.15H35.87V31.52h1.85Z"/><path class="b81acfc5-494a-491d-a125-d87889edf7d5" d="M41,33.15H39.18V31.52H41Z"/><path class="b81acfc5-494a-491d-a125-d87889edf7d5" d="M44.34,33.15H42.49V31.52h1.85Z"/></g></g></svg>