<?xml version="1.0" encoding="utf-8"?>
<!-- Generator: Adobe Illustrator 22.0.1, SVG Export Plug-In . SVG Version: 6.00 Build 0)  -->
<!DOCTYPE svg PUBLIC "-//W3C//DTD SVG 1.1//EN" "http://www.w3.org/Graphics/SVG/1.1/DTD/svg11.dtd">
<svg version="1.1" id="Layer_1" xmlns="http://www.w3.org/2000/svg" xmlns:xlink="http://www.w3.org/1999/xlink" x="0px" y="0px"
	 viewBox="0 0 229.5 244.6" style="enable-background:new 0 0 229.5 244.6;" xml:space="preserve">
<style type="text/css">
	.st0{fill:#40EDE2;}
	.st1{enable-background:new    ;}
	.st2{fill:#482FDF;}
</style>
<title>Asset 1</title>
<g id="_x31_5f40467-a76a-45a3-bcc1-98efa14bada8">
	<g id="_x33_a8335fb-d2e4-4efa-9cb7-fd8a81417af1">
		<rect class="st0" width="229.5" height="244.6"/>
		<g class="st1">
			<path class="st2" d="M27,23.7h-1.9L24.8,22c-0.3-0.3-0.6-0.5-1-0.6s-0.8-0.2-1.4-0.2c-1.1,0-2,0.4-2.6,1.2S19,24.3,19,25.6v0.4
				c0,1.3,0.3,2.4,0.9,3.2s1.4,1.2,2.5,1.2c0.5,0,1-0.1,1.4-0.2s0.7-0.3,1-0.6l0.3-1.7H27v2.5c-0.5,0.6-1.2,1.1-2,1.4
				c-0.8,0.4-1.7,0.5-2.7,0.5c-1.7,0-3.1-0.6-4.2-1.8s-1.6-2.7-1.6-4.6v-0.4c0-1.9,0.5-3.4,1.6-4.6s2.5-1.8,4.2-1.8
				c1,0,1.9,0.2,2.7,0.5c0.8,0.4,1.5,0.8,2,1.4V23.7z"/>
			<path class="st2" d="M28.2,27.4c0-1.4,0.4-2.6,1.2-3.5c0.8-0.9,1.9-1.4,3.3-1.4c1.4,0,2.5,0.5,3.3,1.4s1.2,2.1,1.2,3.5v0.2
				c0,1.4-0.4,2.6-1.2,3.5s-1.9,1.3-3.3,1.3c-1.4,0-2.5-0.4-3.3-1.3s-1.2-2.1-1.2-3.5V27.4z M30.8,27.6c0,0.9,0.2,1.6,0.5,2.1
				s0.8,0.8,1.5,0.8c0.7,0,1.1-0.3,1.5-0.8s0.5-1.2,0.5-2.1v-0.2c0-0.8-0.2-1.5-0.5-2.1s-0.8-0.8-1.5-0.8s-1.2,0.3-1.5,0.8
				s-0.5,1.2-0.5,2.1V27.6z"/>
			<path class="st2" d="M38.2,30.7l1.2-0.3v-5.9L38,24.3v-1.5h3.8l0.1,1.4c0.3-0.5,0.7-0.9,1.2-1.1s1-0.4,1.6-0.4
				c1,0,1.7,0.3,2.2,0.9s0.8,1.5,0.8,2.8v4.1l1.2,0.3v1.5H44v-1.5l1.1-0.3v-4.1c0-0.6-0.1-1.1-0.4-1.4c-0.3-0.3-0.6-0.4-1.2-0.4
				c-0.3,0-0.6,0.1-0.9,0.2c-0.3,0.1-0.5,0.3-0.7,0.6v5.1l1,0.3v1.5h-4.8V30.7z"/>
			<path class="st2" d="M53.5,20.4v2.3h1.7v1.8h-1.7v4.8c0,0.4,0.1,0.6,0.2,0.8s0.4,0.2,0.6,0.2c0.2,0,0.3,0,0.5,0
				c0.1,0,0.3,0,0.4-0.1l0.2,1.9c-0.3,0.1-0.6,0.2-0.9,0.2c-0.3,0-0.6,0.1-0.9,0.1c-0.9,0-1.6-0.2-2-0.7S51,30.4,51,29.4v-4.9h-1.4
				v-1.8H51v-2.3H53.5z"/>
			<path class="st2" d="M56.4,30.7l1.2-0.3v-5.9l-1.4-0.3v-1.5h3.9v7.7l1.2,0.3v1.5h-5V30.7z M60.2,20.4h-2.6v-1.9h2.6V20.4z"/>
			<path class="st2" d="M62.1,30.7l1.2-0.3v-5.9L62,24.3v-1.5h3.8l0.1,1.4c0.3-0.5,0.7-0.9,1.2-1.1s1-0.4,1.6-0.4
				c1,0,1.7,0.3,2.2,0.9s0.8,1.5,0.8,2.8v4.1l1.2,0.3v1.5H68v-1.5l1.1-0.3v-4.1c0-0.6-0.1-1.1-0.4-1.4c-0.3-0.3-0.6-0.4-1.2-0.4
				c-0.3,0-0.6,0.1-0.9,0.2c-0.3,0.1-0.5,0.3-0.7,0.6v5.1l1,0.3v1.5h-4.8V30.7z"/>
			<path class="st2" d="M80.3,31c-0.3,0.4-0.7,0.8-1.1,1s-1,0.4-1.5,0.4c-1,0-1.8-0.3-2.4-1c-0.6-0.6-0.9-1.6-0.9-3v-3.9l-1-0.3
				v-1.5h1H77v5.8c0,0.7,0.1,1.2,0.3,1.5c0.2,0.3,0.6,0.5,1,0.5c0.4,0,0.8-0.1,1.1-0.2c0.3-0.1,0.5-0.3,0.7-0.6v-5.1l-1.1-0.3v-1.5
				h1.1h2.6v7.7l1.2,0.3v1.5h-3.4L80.3,31z"/>
			<path class="st2" d="M89.5,32.4c-1.4,0-2.5-0.4-3.3-1.3s-1.2-2-1.2-3.3v-0.4c0-1.4,0.4-2.6,1.2-3.5s1.8-1.4,3.1-1.4
				c1.3,0,2.3,0.4,3,1.2s1.1,1.8,1.1,3.1v1.4h-5.7l0,0.1c0,0.6,0.3,1.1,0.6,1.5s0.9,0.6,1.5,0.6c0.6,0,1-0.1,1.4-0.2
				c0.4-0.1,0.8-0.3,1.2-0.5l0.7,1.6c-0.4,0.3-0.9,0.6-1.5,0.8S90.2,32.4,89.5,32.4z M89.2,24.5c-0.5,0-0.8,0.2-1.1,0.5
				s-0.4,0.8-0.5,1.4l0,0h3.1v-0.2c0-0.5-0.1-1-0.4-1.3C90.1,24.7,89.7,24.5,89.2,24.5z"/>
			<path class="st2" d="M98.8,30.7l1.2-0.3v-5.9l-1.4-0.3v-1.5h3.9v7.7l1.2,0.3v1.5h-5V30.7z M102.6,20.4h-2.6v-1.9h2.6V20.4z"/>
			<path class="st2" d="M104.6,30.7l1.2-0.3v-5.9l-1.4-0.3v-1.5h3.8l0.1,1.4c0.3-0.5,0.7-0.9,1.2-1.1s1-0.4,1.6-0.4
				c1,0,1.7,0.3,2.2,0.9s0.8,1.5,0.8,2.8v4.1l1.2,0.3v1.5h-4.9v-1.5l1.1-0.3v-4.1c0-0.6-0.1-1.1-0.4-1.4c-0.3-0.3-0.6-0.4-1.2-0.4
				c-0.3,0-0.6,0.1-0.9,0.2c-0.3,0.1-0.5,0.3-0.7,0.6v5.1l1,0.3v1.5h-4.8V30.7z"/>
			<path class="st2" d="M127.3,22.4l-0.2-0.9h-3.4l-0.4,3c0.2-0.2,0.5-0.3,0.9-0.4c0.3-0.1,0.7-0.2,1.1-0.2c1.2,0,2.2,0.4,2.9,1.1
				s1,1.8,1,3.2c0,1.2-0.4,2.3-1.1,3.1c-0.7,0.8-1.8,1.2-3.2,1.2c-1.2,0-2.2-0.3-3-1c-0.8-0.6-1.2-1.5-1.2-2.7l0,0l2.5-0.1
				c0,0.6,0.2,1,0.5,1.3c0.3,0.3,0.7,0.5,1.3,0.5c0.6,0,1-0.2,1.3-0.6s0.4-1,0.4-1.7c0-0.7-0.2-1.3-0.5-1.8s-0.8-0.7-1.4-0.7
				c-0.5,0-0.9,0.1-1.1,0.3c-0.3,0.2-0.4,0.4-0.6,0.7l-2.3-0.1l0.7-7.1h7.4v2.9H127.3z"/>
			<path class="st2" d="M142.3,26h-1.7l-0.3-1.2c-0.2-0.1-0.4-0.3-0.7-0.4c-0.3-0.1-0.6-0.1-0.9-0.1c-0.5,0-0.8,0.1-1.1,0.3
				c-0.3,0.2-0.4,0.5-0.4,0.8c0,0.3,0.1,0.5,0.4,0.7s0.8,0.4,1.5,0.5c1.2,0.2,2.1,0.6,2.6,1c0.6,0.5,0.9,1.1,0.9,1.9
				c0,0.9-0.4,1.6-1.1,2.1c-0.7,0.5-1.7,0.8-2.9,0.8c-0.7,0-1.4-0.1-2-0.3c-0.6-0.2-1.2-0.5-1.6-0.9l0-2.1h1.8l0.4,1.2
				c0.2,0.1,0.4,0.2,0.6,0.3c0.3,0.1,0.5,0.1,0.8,0.1c0.5,0,0.9-0.1,1.2-0.3c0.3-0.2,0.4-0.4,0.4-0.8c0-0.3-0.1-0.5-0.4-0.7
				s-0.8-0.4-1.5-0.5c-1.1-0.2-2-0.6-2.5-1c-0.6-0.4-0.9-1.1-0.9-1.8c0-0.8,0.3-1.5,1-2.1c0.7-0.6,1.6-0.9,2.8-0.9
				c0.7,0,1.4,0.1,2.1,0.3c0.7,0.2,1.2,0.5,1.6,0.8L142.3,26z"/>
			<path class="st2" d="M148.4,32.4c-1.4,0-2.5-0.4-3.3-1.3s-1.2-2-1.2-3.3v-0.4c0-1.4,0.4-2.6,1.2-3.5c0.8-0.9,1.8-1.4,3.1-1.4
				c1.3,0,2.3,0.4,3,1.2s1.1,1.8,1.1,3.1v1.4h-5.7l0,0.1c0,0.6,0.3,1.1,0.6,1.5c0.4,0.4,0.9,0.6,1.5,0.6c0.6,0,1-0.1,1.4-0.2
				c0.4-0.1,0.8-0.3,1.2-0.5l0.7,1.6c-0.4,0.3-0.9,0.6-1.5,0.8C149.8,32.3,149.1,32.4,148.4,32.4z M148.1,24.5
				c-0.5,0-0.8,0.2-1.1,0.5s-0.4,0.8-0.5,1.4l0,0h3.1v-0.2c0-0.5-0.1-1-0.4-1.3C149,24.7,148.7,24.5,148.1,24.5z"/>
			<path class="st2" d="M157.9,30.4c0.5,0,0.8-0.1,1.1-0.4s0.4-0.6,0.4-1.1h2.3l0,0.1c0,1-0.3,1.8-1.1,2.4c-0.7,0.6-1.7,1-2.8,1
				c-1.4,0-2.5-0.4-3.3-1.3s-1.2-2-1.2-3.5v-0.3c0-1.4,0.4-2.6,1.2-3.5c0.8-0.9,1.9-1.4,3.4-1.4c0.8,0,1.5,0.1,2.1,0.3
				s1.1,0.6,1.5,1l0,2.5h-2.1l-0.4-1.5c-0.1-0.1-0.3-0.2-0.5-0.3s-0.4-0.1-0.6-0.1c-0.7,0-1.2,0.3-1.5,0.8s-0.4,1.2-0.4,2v0.3
				c0,0.8,0.1,1.5,0.4,2.1C156.7,30.2,157.2,30.4,157.9,30.4z"/>
			<path class="st2" d="M162.9,27.4c0-1.4,0.4-2.6,1.2-3.5c0.8-0.9,1.9-1.4,3.3-1.4c1.4,0,2.5,0.5,3.3,1.4c0.8,0.9,1.2,2.1,1.2,3.5
				v0.2c0,1.4-0.4,2.6-1.2,3.5c-0.8,0.9-1.9,1.3-3.3,1.3c-1.4,0-2.5-0.4-3.3-1.3c-0.8-0.9-1.2-2.1-1.2-3.5V27.4z M165.5,27.6
				c0,0.9,0.2,1.6,0.5,2.1s0.8,0.8,1.5,0.8c0.7,0,1.1-0.3,1.5-0.8c0.3-0.5,0.5-1.2,0.5-2.1v-0.2c0-0.8-0.2-1.5-0.5-2.1
				s-0.8-0.8-1.5-0.8s-1.2,0.3-1.5,0.8s-0.5,1.2-0.5,2.1V27.6z"/>
		</g>
		<g class="st1">
			<path class="st2" d="M172.8,30.7l1.2-0.3v-5.9l-1.4-0.3v-1.5h3.8l0.1,1.4c0.3-0.5,0.7-0.9,1.2-1.1s1-0.4,1.6-0.4
				c1,0,1.7,0.3,2.2,0.9s0.8,1.5,0.8,2.8v4.1l1.2,0.3v1.5h-4.9v-1.5l1.1-0.3v-4.1c0-0.6-0.1-1.1-0.4-1.4c-0.3-0.3-0.6-0.4-1.2-0.4
				c-0.3,0-0.6,0.1-0.9,0.2c-0.3,0.1-0.5,0.3-0.7,0.6v5.1l1,0.3v1.5h-4.8V30.7z"/>
		</g>
		<g class="st1">
			<path class="st2" d="M190.5,31.1c-0.3,0.4-0.7,0.8-1.1,1s-0.9,0.3-1.4,0.3c-1.2,0-2.1-0.4-2.7-1.3s-1-2-1-3.4v-0.2
				c0-1.5,0.3-2.7,1-3.6s1.6-1.4,2.7-1.4c0.5,0,0.9,0.1,1.3,0.3s0.7,0.5,1,0.9v-3.4l-1.4-0.3v-1.5h1.4h2.6v11.9l1.2,0.3v1.5h-3.5
				L190.5,31.1z M186.9,27.7c0,0.8,0.1,1.5,0.4,2c0.3,0.5,0.7,0.7,1.4,0.7c0.4,0,0.7-0.1,1-0.2s0.5-0.4,0.7-0.7v-4
				c-0.2-0.3-0.4-0.5-0.7-0.7c-0.3-0.2-0.6-0.3-1-0.3c-0.6,0-1.1,0.3-1.4,0.8s-0.4,1.3-0.4,2.2V27.7z"/>
			<path class="st2" d="M202.7,26H201l-0.3-1.2c-0.2-0.1-0.4-0.3-0.7-0.4s-0.6-0.1-0.9-0.1c-0.5,0-0.8,0.1-1.1,0.3
				c-0.3,0.2-0.4,0.5-0.4,0.8c0,0.3,0.1,0.5,0.4,0.7s0.8,0.4,1.5,0.5c1.2,0.2,2.1,0.6,2.6,1c0.6,0.5,0.9,1.1,0.9,1.9
				c0,0.9-0.4,1.6-1.1,2.1c-0.7,0.5-1.7,0.8-2.9,0.8c-0.7,0-1.4-0.1-2-0.3c-0.6-0.2-1.2-0.5-1.6-0.9l0-2.1h1.8l0.4,1.2
				c0.2,0.1,0.4,0.2,0.6,0.3c0.3,0.1,0.5,0.1,0.8,0.1c0.5,0,0.9-0.1,1.2-0.3s0.4-0.4,0.4-0.8c0-0.3-0.1-0.5-0.4-0.7
				s-0.8-0.4-1.5-0.5c-1.1-0.2-2-0.6-2.5-1c-0.6-0.4-0.9-1.1-0.9-1.8c0-0.8,0.3-1.5,1-2.1c0.7-0.6,1.6-0.9,2.8-0.9
				c0.7,0,1.4,0.1,2.1,0.3s1.2,0.5,1.6,0.8L202.7,26z"/>
			<path class="st2" d="M207.4,32.2h-2.6V30h2.6V32.2z"/>
			<path class="st2" d="M212,32.2h-2.6V30h2.6V32.2z"/>
			<path class="st2" d="M216.6,32.2H214V30h2.6V32.2z"/>
		</g>
	</g>
</g>
</svg>
