<svg xmlns="http://www.w3.org/2000/svg" viewBox="0 0 69.6 140.36"><defs><style>.ee18b47a-3b79-4db4-9309-60561afc106e{fill:#40ede2;}.aad7164e-21c9-40d6-b1ac-7ff472eb2d9b{fill:#482fdf;}</style></defs><title>Asset 4</title><g id="9f3ee917-4d58-4509-9427-3952f0afa8d1" data-name="Layer 2"><g id="6e350716-9bbb-456a-9c34-2a6cba87699b" data-name="top"><rect class="ee18b47a-3b79-4db4-9309-60561afc106e" width="69.6" height="140.36"/><path class="aad7164e-21c9-40d6-b1ac-7ff472eb2d9b" d="M7.81,62.11a1,1,0,0,0,.73-.27.93.93,0,0,0,.28-.71h1.55v0a2,2,0,0,1-.72,1.61,2.71,2.71,0,0,1-1.85.65,2.71,2.71,0,0,1-2.18-.9,3.37,3.37,0,0,1-.77-2.3V60a3.35,3.35,0,0,1,.79-2.3,2.81,2.81,0,0,1,2.24-.9,3.73,3.73,0,0,1,1.38.23,2.61,2.61,0,0,1,1,.64l0,1.7H8.92l-.28-1a1.22,1.22,0,0,0-.32-.18,1.14,1.14,0,0,0-.43-.07,1.07,1.07,0,0,0-1,.52A2.77,2.77,0,0,0,6.57,60v.18a2.85,2.85,0,0,0,.28,1.37A1,1,0,0,0,7.81,62.11Z"/><path class="aad7164e-21c9-40d6-b1ac-7ff472eb2d9b" d="M11.16,60.07A3.41,3.41,0,0,1,12,57.74a2.78,2.78,0,0,1,2.2-.9,2.79,2.79,0,0,1,2.2.9,3.39,3.39,0,0,1,.79,2.33v.12a3.39,3.39,0,0,1-.79,2.33,2.77,2.77,0,0,1-2.19.9,2.8,2.8,0,0,1-2.21-.9,3.39,3.39,0,0,1-.79-2.33Zm1.71.12a2.78,2.78,0,0,0,.3,1.39,1.06,1.06,0,0,0,1,.53,1.05,1.05,0,0,0,1-.53,2.81,2.81,0,0,0,.3-1.39v-.12a2.69,2.69,0,0,0-.31-1.38,1,1,0,0,0-1-.53,1,1,0,0,0-1,.53,2.79,2.79,0,0,0-.3,1.38Z"/><path class="aad7164e-21c9-40d6-b1ac-7ff472eb2d9b" d="M17.79,62.27l.82-.18V58.16L17.7,58V57h2.5l.08.9a2.32,2.32,0,0,1,.78-.75,2,2,0,0,1,1-.27,1.91,1.91,0,0,1,1.5.6,2.79,2.79,0,0,1,.54,1.89v2.76l.82.18v1H21.69v-1l.73-.18V59.34a1.26,1.26,0,0,0-.26-.9,1,1,0,0,0-.78-.27,1.25,1.25,0,0,0-.61.14,1.2,1.2,0,0,0-.45.39v3.39l.69.18v1H17.79Z"/><path class="aad7164e-21c9-40d6-b1ac-7ff472eb2d9b" d="M28,55.4V57h1.11v1.2H28v3.23a.73.73,0,0,0,.15.52.53.53,0,0,0,.41.16h.31l.29-.05.15,1.23a2.93,2.93,0,0,1-.57.13,3.86,3.86,0,0,1-.61.05,1.8,1.8,0,0,1-1.36-.49,2.12,2.12,0,0,1-.48-1.54V58.16h-.93V57h.93V55.4Z"/><path class="aad7164e-21c9-40d6-b1ac-7ff472eb2d9b" d="M29.93,62.27l.82-.18V58.16L29.84,58V57h2.62v5.13l.82.18v1H29.93Zm2.53-6.83H30.75V54.16h1.71Z"/><path class="aad7164e-21c9-40d6-b1ac-7ff472eb2d9b" d="M33.75,62.27l.82-.18V58.16L33.66,58V57h2.51l.07.9a2.32,2.32,0,0,1,.78-.75,2,2,0,0,1,1-.27,1.91,1.91,0,0,1,1.5.6,2.79,2.79,0,0,1,.54,1.89v2.76l.82.18v1H37.65v-1l.73-.18V59.34a1.26,1.26,0,0,0-.26-.9,1,1,0,0,0-.78-.27,1.25,1.25,0,0,0-.61.14,1.2,1.2,0,0,0-.45.39v3.39l.69.18v1H33.75Z"/><path class="aad7164e-21c9-40d6-b1ac-7ff472eb2d9b" d="M45.9,62.49a2.17,2.17,0,0,1-.76.69,2.08,2.08,0,0,1-1,.24,2,2,0,0,1-1.57-.64,3,3,0,0,1-.57-2V58.16L41.29,58V57h2.4v3.83a1.63,1.63,0,0,0,.24,1,.8.8,0,0,0,.68.3,1.82,1.82,0,0,0,.7-.13,1.32,1.32,0,0,0,.49-.38V58.16L45.05,58V57h2.46v5.13l.77.18v1H46Z"/><path class="aad7164e-21c9-40d6-b1ac-7ff472eb2d9b" d="M52,63.42a2.86,2.86,0,0,1-2.2-.88A3.18,3.18,0,0,1,49,60.31v-.24a3.44,3.44,0,0,1,.78-2.32,2.56,2.56,0,0,1,2.08-.91,2.61,2.61,0,0,1,2,.77,3,3,0,0,1,.7,2.09v.94H50.75v0a1.63,1.63,0,0,0,.42,1,1.29,1.29,0,0,0,1,.41,3.11,3.11,0,0,0,.94-.12,3.73,3.73,0,0,0,.82-.36l.46,1.06a3.53,3.53,0,0,1-1,.52A4.36,4.36,0,0,1,52,63.42Zm-.16-5.26a.91.91,0,0,0-.75.36,2,2,0,0,0-.34,1l0,0h2.1v-.15a1.39,1.39,0,0,0-.26-.87A.93.93,0,0,0,51.83,58.16Z"/><polygon class="aad7164e-21c9-40d6-b1ac-7ff472eb2d9b" points="58.84 57.34 58.84 62.46 62.09 59.9 58.84 57.34"/></g></g></svg>