<?xml version="1.0" encoding="utf-8"?>
<!-- Generator: Adobe Illustrator 22.0.1, SVG Export Plug-In . SVG Version: 6.00 Build 0)  -->
<!DOCTYPE svg PUBLIC "-//W3C//DTD SVG 1.1//EN" "http://www.w3.org/Graphics/SVG/1.1/DTD/svg11.dtd">
<svg version="1.1" id="Layer_1" xmlns="http://www.w3.org/2000/svg" xmlns:xlink="http://www.w3.org/1999/xlink" x="0px" y="0px"
	 viewBox="0 0 368.1 103.8" style="enable-background:new 0 0 368.1 103.8;" xml:space="preserve">
<style type="text/css">
	.st0{fill:#482FDF;}
	.st1{fill:#F0F0F0;}
	.st2{enable-background:new    ;}
	.st3{fill:#FFFFFF;}
</style>
<g>
	<path class="st0" d="M368.1,4.7v94.9c0,4.2,0,4.2-13.3,4.2H13.3C0,103.8,0,103.8,0,99.6V4.7C0,0,0,0,13.3,0h341.5
		C368.1,0,368.1,0,368.1,4.7z"/>
	<path class="st1" d="M0,9.6V4.7C0,0,0,0,13.3,0h341.5c13.3,0,13.3,0,13.3,4.7v4.7"/>
	<ellipse class="st0" cx="7" cy="5.4" rx="2.3" ry="2.3"/>
</g>
<g>
	<g class="st2">
		<path class="st3" d="M63.6,42L63,42.1l-2.1,5.7c-0.2,0.4-0.4,0.8-0.7,1.1c-0.3,0.3-0.7,0.4-1.3,0.4c-0.1,0-0.3,0-0.4,0
			c-0.1,0-0.3-0.1-0.4-0.1l0.2-1.1c0.1,0,0.1,0,0.2,0c0.1,0,0.1,0,0.1,0c0.3,0,0.5-0.1,0.6-0.2s0.2-0.3,0.3-0.5l0.2-0.4l-1.8-4.8
			L57.4,42v-0.9h2.8V42l-0.6,0.1l0.8,2.3l0.1,0.4l0,0l0.9-2.7L60.7,42v-0.9h2.8V42z"/>
		<path class="st3" d="M64,43.9c0-0.9,0.2-1.6,0.7-2.1c0.5-0.6,1.2-0.8,2-0.8c0.9,0,1.5,0.3,2,0.8c0.5,0.6,0.7,1.3,0.7,2.1V44
			c0,0.9-0.2,1.6-0.7,2.1c-0.5,0.5-1.2,0.8-2,0.8c-0.9,0-1.5-0.3-2-0.8C64.2,45.6,64,44.9,64,44V43.9z M65.6,44c0,0.5,0.1,1,0.3,1.3
			s0.5,0.5,0.9,0.5c0.4,0,0.7-0.2,0.9-0.5c0.2-0.3,0.3-0.7,0.3-1.3v-0.1c0-0.5-0.1-0.9-0.3-1.3s-0.5-0.5-0.9-0.5s-0.7,0.2-0.9,0.5
			s-0.3,0.7-0.3,1.3V44z"/>
		<path class="st3" d="M74.2,46.2c-0.2,0.3-0.4,0.5-0.7,0.6C73.3,46.9,73,47,72.6,47c-0.6,0-1.1-0.2-1.4-0.6c-0.3-0.4-0.5-1-0.5-1.8
			v-2.4L70,42v-0.9h0.6h1.6v3.5c0,0.4,0.1,0.7,0.2,0.9c0.1,0.2,0.4,0.3,0.6,0.3c0.2,0,0.5,0,0.6-0.1c0.2-0.1,0.3-0.2,0.4-0.3v-3.1
			L73.5,42v-0.9h0.7h1.6v4.7l0.7,0.2v0.9h-2.1L74.2,46.2z"/>
		<path class="st3" d="M83.5,46.2c-0.2,0.3-0.4,0.5-0.6,0.6C82.6,46.9,82.3,47,82,47c-0.7,0-1.3-0.3-1.7-0.8
			c-0.4-0.5-0.6-1.2-0.6-2.1V44c0-0.9,0.2-1.7,0.6-2.2c0.4-0.6,1-0.8,1.7-0.8c0.3,0,0.6,0.1,0.8,0.2s0.4,0.3,0.6,0.5v-2.1l-0.8-0.2
			v-0.9h0.8H85v7.3l0.8,0.2v0.9h-2.1L83.5,46.2z M81.3,44.1c0,0.5,0.1,0.9,0.3,1.2c0.2,0.3,0.4,0.4,0.8,0.4c0.2,0,0.4,0,0.6-0.1
			s0.3-0.2,0.4-0.4v-2.5c-0.1-0.2-0.2-0.3-0.4-0.4c-0.2-0.1-0.4-0.2-0.6-0.2c-0.4,0-0.7,0.2-0.8,0.5s-0.3,0.8-0.3,1.3V44.1z"/>
		<path class="st3" d="M89,47c-0.8,0-1.5-0.3-2-0.8s-0.8-1.2-0.8-2v-0.2c0-0.9,0.2-1.6,0.7-2.1c0.5-0.6,1.1-0.8,1.9-0.8
			c0.8,0,1.4,0.2,1.8,0.7s0.6,1.1,0.6,1.9v0.9h-3.5l0,0c0,0.4,0.2,0.7,0.4,0.9c0.2,0.2,0.5,0.4,0.9,0.4c0.3,0,0.6,0,0.9-0.1
			c0.2-0.1,0.5-0.2,0.8-0.3l0.4,1c-0.2,0.2-0.6,0.3-0.9,0.5C89.9,46.9,89.5,47,89,47z M88.9,42.2c-0.3,0-0.5,0.1-0.7,0.3
			c-0.2,0.2-0.3,0.5-0.3,0.9l0,0h1.9v-0.1c0-0.3-0.1-0.6-0.2-0.8C89.4,42.3,89.2,42.2,88.9,42.2z"/>
		<path class="st3" d="M91.9,42.2v-1.1h0.9v-0.4c0-0.7,0.2-1.3,0.7-1.7c0.4-0.4,1.1-0.6,1.9-0.6c0.3,0,0.6,0,0.8,0.1
			s0.6,0.1,0.9,0.2L96.9,40c-0.3-0.1-0.5-0.1-0.7-0.2c-0.2,0-0.5-0.1-0.7-0.1c-0.4,0-0.6,0.1-0.8,0.2c-0.2,0.2-0.3,0.4-0.3,0.7v0.4
			h3.5v4.7l0.8,0.2v0.9h-3.2v-0.9l0.8-0.2v-3.6h-2v3.6l0.8,0.2v0.9H92v-0.9l0.8-0.2v-3.6H91.9z"/>
		<path class="st3" d="M99.2,45.9l0.8-0.2v-3.6L99.1,42v-0.9h2.3l0.1,0.8c0.2-0.3,0.4-0.5,0.7-0.7s0.6-0.2,1-0.2
			c0.6,0,1,0.2,1.4,0.6c0.3,0.4,0.5,0.9,0.5,1.7v2.5l0.8,0.2v0.9h-3v-0.9l0.7-0.2v-2.5c0-0.4-0.1-0.7-0.2-0.8s-0.4-0.2-0.7-0.2
			c-0.2,0-0.4,0-0.6,0.1s-0.3,0.2-0.4,0.4v3.1l0.6,0.2v0.9h-3V45.9z"/>
		<path class="st3" d="M106.2,45.9l0.8-0.2v-3.6l-0.8-0.2v-0.9h2.4v4.7l0.8,0.2v0.9h-3.1V45.9z M108.5,39.7H107v-1.2h1.6V39.7z"/>
		<path class="st3" d="M112.1,39.7v1.4h1v1.1h-1v3c0,0.2,0,0.4,0.1,0.5s0.2,0.1,0.4,0.1c0.1,0,0.2,0,0.3,0c0.1,0,0.2,0,0.3,0
			l0.1,1.1c-0.2,0.1-0.3,0.1-0.5,0.1c-0.2,0-0.4,0-0.6,0c-0.5,0-1-0.1-1.2-0.4c-0.3-0.3-0.4-0.8-0.4-1.4v-3h-0.9v-1.1h0.9v-1.4
			H112.1z"/>
		<path class="st3" d="M116.7,47c-0.8,0-1.5-0.3-2-0.8s-0.8-1.2-0.8-2v-0.2c0-0.9,0.2-1.6,0.7-2.1c0.5-0.6,1.1-0.8,1.9-0.8
			c0.8,0,1.4,0.2,1.8,0.7s0.6,1.1,0.6,1.9v0.9h-3.5l0,0c0,0.4,0.2,0.7,0.4,0.9c0.2,0.2,0.5,0.4,0.9,0.4c0.3,0,0.6,0,0.9-0.1
			c0.2-0.1,0.5-0.2,0.8-0.3l0.4,1c-0.2,0.2-0.6,0.3-0.9,0.5C117.6,46.9,117.2,47,116.7,47z M116.6,42.2c-0.3,0-0.5,0.1-0.7,0.3
			c-0.2,0.2-0.3,0.5-0.3,0.9l0,0h1.9v-0.1c0-0.3-0.1-0.6-0.2-0.8C117.1,42.3,116.9,42.2,116.6,42.2z"/>
		<path class="st3" d="M119.6,39.5v-0.9h2.4v7.3l0.8,0.2v0.9h-3.1v-0.9l0.8-0.2v-6.2L119.6,39.5z"/>
		<path class="st3" d="M129.3,42l-0.5,0.1l-2.1,5.7c-0.2,0.4-0.4,0.8-0.7,1.1c-0.3,0.3-0.7,0.4-1.3,0.4c-0.1,0-0.3,0-0.4,0
			c-0.1,0-0.3-0.1-0.4-0.1l0.2-1.1c0.1,0,0.1,0,0.2,0c0.1,0,0.1,0,0.1,0c0.3,0,0.5-0.1,0.6-0.2s0.2-0.3,0.3-0.5l0.2-0.4l-1.8-4.8
			l-0.5-0.1v-0.9h2.8V42l-0.6,0.1l0.8,2.3l0.1,0.4l0,0l0.9-2.7l-0.7-0.1v-0.9h2.8V42z"/>
		<path class="st3" d="M140.8,42l-0.6,0.1l-1.2,4.8h-1.3l-1.1-3.5h0l-1.1,3.5h-1.3l-1.2-4.8l-0.6-0.1v-0.9h2.6V42l-0.6,0.1l0.5,2.7
			h0l1.1-3.7h1.1l1.1,3.7h0l0.5-2.7l-0.6-0.1v-0.9h2.6V42z"/>
		<path class="st3" d="M145,46.9c0-0.1-0.1-0.2-0.1-0.3c0-0.1-0.1-0.2-0.1-0.3c-0.2,0.2-0.4,0.4-0.7,0.5c-0.3,0.1-0.6,0.2-0.9,0.2
			c-0.6,0-1-0.2-1.4-0.5c-0.3-0.3-0.5-0.7-0.5-1.3c0-0.5,0.2-1,0.7-1.3s1.1-0.4,1.9-0.4h0.8V43c0-0.3-0.1-0.5-0.2-0.6
			s-0.4-0.2-0.7-0.2c-0.2,0-0.3,0-0.5,0.1s-0.3,0.1-0.3,0.1l-0.1,0.6h-1.2l0-1.3c0.3-0.2,0.6-0.4,1-0.5c0.4-0.1,0.8-0.2,1.2-0.2
			c0.7,0,1.3,0.2,1.8,0.5c0.4,0.4,0.7,0.9,0.7,1.5v2.4c0,0.1,0,0.2,0,0.3c0,0.1,0,0.2,0,0.2l0.5,0.1v0.9H145z M143.6,45.8
			c0.2,0,0.5-0.1,0.6-0.2c0.2-0.1,0.3-0.2,0.5-0.4v-0.9h-0.8c-0.3,0-0.6,0.1-0.8,0.2c-0.2,0.2-0.3,0.3-0.3,0.6
			c0,0.2,0.1,0.4,0.2,0.5C143.2,45.8,143.4,45.8,143.6,45.8z"/>
		<path class="st3" d="M147.3,45.9l0.8-0.2v-3.6l-0.8-0.2v-0.9h2.3l0.1,0.8c0.2-0.3,0.4-0.5,0.7-0.7s0.6-0.2,1-0.2
			c0.6,0,1,0.2,1.4,0.6c0.3,0.4,0.5,0.9,0.5,1.7v2.5l0.8,0.2v0.9h-3v-0.9l0.7-0.2v-2.5c0-0.4-0.1-0.7-0.2-0.8s-0.4-0.2-0.7-0.2
			c-0.2,0-0.4,0-0.6,0.1s-0.3,0.2-0.4,0.4v3.1l0.6,0.2v0.9h-3V45.9z"/>
		<path class="st3" d="M156.6,39.7v1.4h1v1.1h-1v3c0,0.2,0,0.4,0.1,0.5s0.2,0.1,0.4,0.1c0.1,0,0.2,0,0.3,0c0.1,0,0.2,0,0.3,0
			l0.1,1.1c-0.2,0.1-0.3,0.1-0.5,0.1c-0.2,0-0.4,0-0.6,0c-0.5,0-1-0.1-1.2-0.4c-0.3-0.3-0.4-0.8-0.4-1.4v-3h-0.9v-1.1h0.9v-1.4
			H156.6z"/>
		<path class="st3" d="M163.4,39.7v1.4h1v1.1h-1v3c0,0.2,0,0.4,0.1,0.5s0.2,0.1,0.4,0.1c0.1,0,0.2,0,0.3,0c0.1,0,0.2,0,0.3,0
			l0.1,1.1c-0.2,0.1-0.3,0.1-0.5,0.1c-0.2,0-0.4,0-0.6,0c-0.5,0-1-0.1-1.2-0.4c-0.3-0.3-0.4-0.8-0.4-1.4v-3H161v-1.1h0.9v-1.4H163.4
			z"/>
		<path class="st3" d="M165.1,45.9l0.8-0.2v-6.2l-0.8-0.2v-0.9h2.4v3.3c0.2-0.3,0.4-0.5,0.7-0.6s0.6-0.2,0.9-0.2
			c0.6,0,1.1,0.2,1.4,0.6c0.3,0.4,0.5,1,0.5,1.9v2.3l0.8,0.2v0.9h-3v-0.9l0.7-0.2v-2.4c0-0.5-0.1-0.8-0.2-1
			c-0.2-0.2-0.4-0.3-0.7-0.3c-0.2,0-0.4,0-0.6,0.1c-0.2,0.1-0.3,0.2-0.4,0.3v3.1l0.7,0.2v0.9h-3V45.9z"/>
		<path class="st3" d="M172.2,45.9l0.8-0.2v-3.6l-0.8-0.2v-0.9h2.4v4.7l0.8,0.2v0.9h-3.1V45.9z M174.5,39.7h-1.6v-1.2h1.6V39.7z"/>
		<path class="st3" d="M180.5,43.1h-1.1l-0.2-0.7c-0.1-0.1-0.2-0.2-0.4-0.2c-0.2-0.1-0.3-0.1-0.5-0.1c-0.3,0-0.5,0.1-0.7,0.2
			c-0.2,0.1-0.2,0.3-0.2,0.5c0,0.2,0.1,0.3,0.2,0.4s0.5,0.2,0.9,0.3c0.7,0.1,1.3,0.4,1.6,0.6s0.5,0.7,0.5,1.1c0,0.5-0.2,1-0.7,1.3
			c-0.4,0.3-1,0.5-1.8,0.5c-0.4,0-0.9-0.1-1.2-0.2c-0.4-0.1-0.7-0.3-1-0.6l0-1.3h1.1l0.2,0.8c0.1,0.1,0.2,0.1,0.4,0.2
			c0.2,0,0.3,0.1,0.5,0.1c0.3,0,0.6-0.1,0.7-0.2c0.2-0.1,0.2-0.3,0.2-0.5c0-0.2-0.1-0.3-0.3-0.4c-0.2-0.1-0.5-0.2-0.9-0.3
			c-0.7-0.1-1.2-0.3-1.5-0.6c-0.3-0.3-0.5-0.6-0.5-1.1c0-0.5,0.2-0.9,0.6-1.3s1-0.5,1.7-0.5c0.5,0,0.9,0.1,1.3,0.2
			c0.4,0.1,0.7,0.3,0.9,0.5L180.5,43.1z"/>
		<path class="st3" d="M188.2,46.2c-0.2,0.3-0.4,0.5-0.7,0.6c-0.3,0.1-0.6,0.2-0.9,0.2c-0.6,0-1.1-0.2-1.4-0.6
			c-0.3-0.4-0.5-1-0.5-1.8v-2.4L184,42v-0.9h0.6h1.6v3.5c0,0.4,0.1,0.7,0.2,0.9c0.1,0.2,0.4,0.3,0.6,0.3c0.2,0,0.5,0,0.6-0.1
			c0.2-0.1,0.3-0.2,0.4-0.3v-3.1l-0.7-0.2v-0.9h0.7h1.6v4.7l0.7,0.2v0.9h-2.1L188.2,46.2z"/>
		<path class="st3" d="M190.9,45.9l0.8-0.2v-3.6l-0.8-0.2v-0.9h2.3l0.1,0.8c0.2-0.3,0.4-0.5,0.7-0.7c0.3-0.2,0.6-0.2,1-0.2
			c0.6,0,1,0.2,1.4,0.6c0.3,0.4,0.5,0.9,0.5,1.7v2.5l0.8,0.2v0.9h-3v-0.9l0.7-0.2v-2.5c0-0.4-0.1-0.7-0.2-0.8
			c-0.2-0.2-0.4-0.2-0.7-0.2c-0.2,0-0.4,0-0.6,0.1c-0.2,0.1-0.3,0.2-0.4,0.4v3.1l0.6,0.2v0.9h-3V45.9z"/>
		<path class="st3" d="M198.1,45.9l0.8-0.2v-3.6L198,42v-0.9h2.3l0.1,0.8c0.1-0.3,0.3-0.5,0.5-0.7c0.2-0.2,0.5-0.3,0.7-0.3
			c0.1,0,0.2,0,0.3,0c0.1,0,0.2,0,0.2,0l-0.2,1.4l-0.6,0c-0.2,0-0.4,0-0.6,0.1s-0.3,0.2-0.3,0.4v2.8l0.8,0.2v0.9h-3.1V45.9z"/>
		<path class="st3" d="M205.3,47c-0.8,0-1.5-0.3-2-0.8c-0.5-0.5-0.8-1.2-0.8-2v-0.2c0-0.9,0.2-1.6,0.7-2.1s1.1-0.8,1.9-0.8
			c0.8,0,1.4,0.2,1.8,0.7c0.4,0.5,0.7,1.1,0.7,1.9v0.9h-3.5l0,0c0,0.4,0.2,0.7,0.4,0.9s0.5,0.4,0.9,0.4c0.3,0,0.6,0,0.9-0.1
			c0.2-0.1,0.5-0.2,0.8-0.3l0.4,1c-0.2,0.2-0.6,0.3-0.9,0.5C206.2,46.9,205.8,47,205.3,47z M205.1,42.2c-0.3,0-0.5,0.1-0.7,0.3
			c-0.2,0.2-0.3,0.5-0.3,0.9l0,0h1.9v-0.1c0-0.3-0.1-0.6-0.2-0.8C205.7,42.3,205.5,42.2,205.1,42.2z"/>
		<path class="st3" d="M208.2,39.5v-0.9h2.4v7.3l0.8,0.2v0.9h-3.1v-0.9l0.8-0.2v-6.2L208.2,39.5z"/>
		<path class="st3" d="M215.6,46.9c0-0.1-0.1-0.2-0.1-0.3c0-0.1-0.1-0.2-0.1-0.3c-0.2,0.2-0.4,0.4-0.7,0.5c-0.3,0.1-0.6,0.2-0.9,0.2
			c-0.6,0-1-0.2-1.4-0.5s-0.5-0.7-0.5-1.3c0-0.5,0.2-1,0.7-1.3c0.4-0.3,1.1-0.4,1.9-0.4h0.8V43c0-0.3-0.1-0.5-0.2-0.6
			s-0.4-0.2-0.7-0.2c-0.2,0-0.3,0-0.5,0.1s-0.3,0.1-0.3,0.1l-0.1,0.6h-1.2l0-1.3c0.3-0.2,0.6-0.4,1-0.5c0.4-0.1,0.8-0.2,1.2-0.2
			c0.7,0,1.3,0.2,1.8,0.5c0.4,0.4,0.7,0.9,0.7,1.5v2.4c0,0.1,0,0.2,0,0.3c0,0.1,0,0.2,0,0.2l0.5,0.1v0.9H215.6z M214.2,45.8
			c0.2,0,0.5-0.1,0.6-0.2c0.2-0.1,0.3-0.2,0.5-0.4v-0.9h-0.8c-0.3,0-0.6,0.1-0.8,0.2c-0.2,0.2-0.3,0.3-0.3,0.6
			c0,0.2,0.1,0.4,0.2,0.5C213.8,45.8,214,45.8,214.2,45.8z"/>
		<path class="st3" d="M219.8,39.7v1.4h1v1.1h-1v3c0,0.2,0,0.4,0.1,0.5c0.1,0.1,0.2,0.1,0.4,0.1c0.1,0,0.2,0,0.3,0
			c0.1,0,0.2,0,0.3,0l0.1,1.1c-0.2,0.1-0.3,0.1-0.5,0.1c-0.2,0-0.4,0-0.6,0c-0.5,0-1-0.1-1.2-0.4s-0.4-0.8-0.4-1.4v-3h-0.9v-1.1h0.9
			v-1.4H219.8z"/>
		<path class="st3" d="M224.4,47c-0.8,0-1.5-0.3-2-0.8c-0.5-0.5-0.8-1.2-0.8-2v-0.2c0-0.9,0.2-1.6,0.7-2.1c0.5-0.6,1.1-0.8,1.9-0.8
			c0.8,0,1.4,0.2,1.8,0.7c0.4,0.5,0.6,1.1,0.6,1.9v0.9h-3.5l0,0c0,0.4,0.2,0.7,0.4,0.9c0.2,0.2,0.5,0.4,0.9,0.4c0.3,0,0.6,0,0.9-0.1
			c0.2-0.1,0.5-0.2,0.8-0.3l0.4,1c-0.2,0.2-0.6,0.3-0.9,0.5C225.3,46.9,224.8,47,224.4,47z M224.2,42.2c-0.3,0-0.5,0.1-0.7,0.3
			c-0.2,0.2-0.3,0.5-0.3,0.9l0,0h1.9v-0.1c0-0.3-0.1-0.6-0.2-0.8C224.8,42.3,224.5,42.2,224.2,42.2z"/>
		<path class="st3" d="M231.2,46.2c-0.2,0.3-0.4,0.5-0.6,0.6c-0.2,0.1-0.5,0.2-0.9,0.2c-0.7,0-1.3-0.3-1.7-0.8
			c-0.4-0.5-0.6-1.2-0.6-2.1V44c0-0.9,0.2-1.7,0.6-2.2c0.4-0.6,1-0.8,1.7-0.8c0.3,0,0.6,0.1,0.8,0.2c0.2,0.1,0.4,0.3,0.6,0.5v-2.1
			l-0.8-0.2v-0.9h0.8h1.6v7.3l0.8,0.2v0.9h-2.1L231.2,46.2z M229,44.1c0,0.5,0.1,0.9,0.3,1.2c0.2,0.3,0.4,0.4,0.8,0.4
			c0.2,0,0.4,0,0.6-0.1c0.2-0.1,0.3-0.2,0.4-0.4v-2.5c-0.1-0.2-0.2-0.3-0.4-0.4c-0.2-0.1-0.4-0.2-0.6-0.2c-0.4,0-0.7,0.2-0.8,0.5
			c-0.2,0.3-0.3,0.8-0.3,1.3V44.1z"/>
		<path class="st3" d="M240.4,46.9c0-0.1-0.1-0.2-0.1-0.3c0-0.1-0.1-0.2-0.1-0.3c-0.2,0.2-0.4,0.4-0.7,0.5c-0.3,0.1-0.6,0.2-0.9,0.2
			c-0.6,0-1-0.2-1.4-0.5s-0.5-0.7-0.5-1.3c0-0.5,0.2-1,0.7-1.3c0.4-0.3,1.1-0.4,1.9-0.4h0.8V43c0-0.3-0.1-0.5-0.2-0.6
			s-0.4-0.2-0.7-0.2c-0.2,0-0.3,0-0.5,0.1s-0.3,0.1-0.3,0.1l-0.1,0.6H237l0-1.3c0.3-0.2,0.6-0.4,1-0.5c0.4-0.1,0.8-0.2,1.2-0.2
			c0.7,0,1.3,0.2,1.8,0.5c0.4,0.4,0.7,0.9,0.7,1.5v2.4c0,0.1,0,0.2,0,0.3c0,0.1,0,0.2,0,0.2l0.5,0.1v0.9H240.4z M239,45.8
			c0.2,0,0.5-0.1,0.6-0.2c0.2-0.1,0.3-0.2,0.5-0.4v-0.9h-0.8c-0.3,0-0.6,0.1-0.8,0.2c-0.2,0.2-0.3,0.3-0.3,0.6
			c0,0.2,0.1,0.4,0.2,0.5C238.6,45.8,238.8,45.8,239,45.8z"/>
		<path class="st3" d="M246.5,46.2c-0.2,0.3-0.4,0.5-0.6,0.6S245.3,47,245,47c-0.7,0-1.3-0.3-1.7-0.8c-0.4-0.5-0.6-1.2-0.6-2.1V44
			c0-0.9,0.2-1.7,0.6-2.2c0.4-0.6,1-0.8,1.7-0.8c0.3,0,0.6,0.1,0.8,0.2c0.2,0.1,0.4,0.3,0.6,0.5v-2.1l-0.8-0.2v-0.9h0.8h1.6v7.3
			l0.8,0.2v0.9h-2.1L246.5,46.2z M244.3,44.1c0,0.5,0.1,0.9,0.3,1.2s0.4,0.4,0.8,0.4c0.2,0,0.4,0,0.6-0.1c0.2-0.1,0.3-0.2,0.4-0.4
			v-2.5c-0.1-0.2-0.2-0.3-0.4-0.4c-0.2-0.1-0.4-0.2-0.6-0.2c-0.4,0-0.7,0.2-0.8,0.5c-0.2,0.3-0.3,0.8-0.3,1.3V44.1z"/>
		<path class="st3" d="M251.8,45.9l0.8-0.2v-6.2l-0.8-0.2v-0.9h2.4v3.3c0.2-0.3,0.4-0.5,0.7-0.6c0.3-0.1,0.6-0.2,0.9-0.2
			c0.6,0,1.1,0.2,1.4,0.6c0.3,0.4,0.5,1,0.5,1.9v2.3l0.8,0.2v0.9h-3v-0.9l0.7-0.2v-2.4c0-0.5-0.1-0.8-0.2-1
			c-0.2-0.2-0.4-0.3-0.7-0.3c-0.2,0-0.4,0-0.6,0.1c-0.2,0.1-0.3,0.2-0.4,0.3v3.1l0.7,0.2v0.9h-3V45.9z"/>
		<path class="st3" d="M261.6,47c-0.8,0-1.5-0.3-2-0.8c-0.5-0.5-0.8-1.2-0.8-2v-0.2c0-0.9,0.2-1.6,0.7-2.1c0.5-0.6,1.1-0.8,1.9-0.8
			c0.8,0,1.4,0.2,1.8,0.7c0.4,0.5,0.6,1.1,0.6,1.9v0.9h-3.5l0,0c0,0.4,0.2,0.7,0.4,0.9c0.2,0.2,0.5,0.4,0.9,0.4c0.3,0,0.6,0,0.9-0.1
			c0.2-0.1,0.5-0.2,0.8-0.3l0.4,1c-0.2,0.2-0.6,0.3-0.9,0.5C262.5,46.9,262.1,47,261.6,47z M261.5,42.2c-0.3,0-0.5,0.1-0.7,0.3
			c-0.2,0.2-0.3,0.5-0.3,0.9l0,0h1.9v-0.1c0-0.3-0.1-0.6-0.2-0.8C262,42.3,261.8,42.2,261.5,42.2z"/>
		<path class="st3" d="M264.8,45.9l0.8-0.2v-3.6l-0.8-0.2v-0.9h2.3l0.1,0.8c0.1-0.3,0.3-0.5,0.5-0.7c0.2-0.2,0.5-0.3,0.7-0.3
			c0.1,0,0.2,0,0.3,0c0.1,0,0.2,0,0.2,0l-0.2,1.4l-0.6,0c-0.2,0-0.4,0-0.6,0.1s-0.3,0.2-0.3,0.4v2.8l0.8,0.2v0.9h-3.1V45.9z"/>
		<path class="st3" d="M272,47c-0.8,0-1.5-0.3-2-0.8c-0.5-0.5-0.8-1.2-0.8-2v-0.2c0-0.9,0.2-1.6,0.7-2.1c0.5-0.6,1.1-0.8,1.9-0.8
			c0.8,0,1.4,0.2,1.8,0.7c0.4,0.5,0.6,1.1,0.6,1.9v0.9h-3.5l0,0c0,0.4,0.2,0.7,0.4,0.9c0.2,0.2,0.5,0.4,0.9,0.4c0.3,0,0.6,0,0.9-0.1
			c0.2-0.1,0.5-0.2,0.8-0.3l0.4,1c-0.2,0.2-0.6,0.3-0.9,0.5C272.9,46.9,272.5,47,272,47z M271.9,42.2c-0.3,0-0.5,0.1-0.7,0.3
			c-0.2,0.2-0.3,0.5-0.3,0.9l0,0h1.9v-0.1c0-0.3-0.1-0.6-0.2-0.8C272.4,42.3,272.2,42.2,271.9,42.2z"/>
		<path class="st3" d="M276.9,46.7c0,0.4-0.1,0.8-0.3,1.2c-0.2,0.4-0.5,0.7-0.8,1l-0.8-0.4c0.1-0.3,0.2-0.5,0.3-0.8s0.1-0.6,0.1-0.9
			v-1.2h1.4L276.9,46.7z"/>
		<path class="st3" d="M280.6,45.9l0.8-0.2v-3.6l-0.8-0.2v-0.9h2.3l0.1,0.8c0.1-0.3,0.3-0.5,0.5-0.7c0.2-0.2,0.5-0.3,0.7-0.3
			c0.1,0,0.2,0,0.3,0c0.1,0,0.2,0,0.2,0l-0.2,1.4l-0.6,0c-0.2,0-0.4,0-0.6,0.1s-0.3,0.2-0.3,0.4v2.8l0.8,0.2v0.9h-3.1V45.9z"/>
		<path class="st3" d="M285.1,45.9l0.8-0.2v-3.6L285,42v-0.9h2.4v4.7l0.8,0.2v0.9h-3.1V45.9z M287.4,39.7h-1.6v-1.2h1.6V39.7z"/>
		<path class="st3" d="M288.8,44c0-0.9,0.2-1.7,0.6-2.2c0.4-0.6,1-0.8,1.7-0.8c0.3,0,0.6,0.1,0.9,0.2c0.2,0.1,0.5,0.4,0.6,0.6
			l0.1-0.7h1.4v5.6c0,0.8-0.2,1.4-0.7,1.8c-0.5,0.5-1.1,0.7-2,0.7c-0.3,0-0.6,0-0.9-0.1c-0.3-0.1-0.6-0.2-0.9-0.3l0.3-1.1
			c0.3,0.1,0.5,0.2,0.8,0.3c0.3,0.1,0.5,0.1,0.8,0.1c0.4,0,0.7-0.1,0.9-0.3c0.2-0.2,0.3-0.6,0.3-1v-0.4c-0.2,0.2-0.4,0.4-0.6,0.5
			c-0.2,0.1-0.5,0.2-0.8,0.2c-0.7,0-1.3-0.3-1.7-0.8s-0.6-1.2-0.6-2.1V44z M290.3,44.1c0,0.5,0.1,0.9,0.3,1.2s0.5,0.4,0.8,0.4
			c0.2,0,0.4,0,0.6-0.1c0.2-0.1,0.3-0.2,0.4-0.4v-2.5c-0.1-0.2-0.2-0.3-0.4-0.4c-0.2-0.1-0.4-0.1-0.6-0.1c-0.4,0-0.7,0.2-0.8,0.5
			c-0.2,0.3-0.3,0.8-0.3,1.3V44.1z"/>
		<path class="st3" d="M294.9,45.9l0.8-0.2v-6.2l-0.8-0.2v-0.9h2.4v3.3c0.2-0.3,0.4-0.5,0.7-0.6c0.3-0.1,0.6-0.2,0.9-0.2
			c0.6,0,1.1,0.2,1.4,0.6c0.3,0.4,0.5,1,0.5,1.9v2.3l0.8,0.2v0.9h-3v-0.9l0.7-0.2v-2.4c0-0.5-0.1-0.8-0.2-1
			c-0.2-0.2-0.4-0.3-0.7-0.3c-0.2,0-0.4,0-0.6,0.1c-0.2,0.1-0.3,0.2-0.4,0.3v3.1l0.7,0.2v0.9h-3V45.9z"/>
		<path class="st3" d="M304.3,39.7v1.4h1v1.1h-1v3c0,0.2,0,0.4,0.1,0.5c0.1,0.1,0.2,0.1,0.4,0.1c0.1,0,0.2,0,0.3,0
			c0.1,0,0.2,0,0.3,0l0.1,1.1c-0.2,0.1-0.3,0.1-0.5,0.1c-0.2,0-0.4,0-0.6,0c-0.5,0-1-0.1-1.2-0.4s-0.4-0.8-0.4-1.4v-3h-0.9v-1.1h0.9
			v-1.4H304.3z"/>
		<path class="st3" d="M307.5,44.7c0-0.5,0.1-0.9,0.2-1.1c0.1-0.2,0.4-0.5,0.9-0.8c0.3-0.2,0.5-0.4,0.6-0.7s0.2-0.5,0.2-0.8
			c0-0.3-0.1-0.6-0.3-0.8s-0.4-0.3-0.7-0.3c-0.3,0-0.5,0.1-0.7,0.2s-0.3,0.4-0.3,0.7h-1.5l0,0c0-0.7,0.2-1.2,0.7-1.6
			s1.1-0.5,1.8-0.5c0.8,0,1.4,0.2,1.9,0.6c0.5,0.4,0.7,1,0.7,1.7c0,0.5-0.1,0.9-0.4,1.3s-0.6,0.7-1,1c-0.2,0.2-0.4,0.3-0.4,0.5
			c-0.1,0.2-0.1,0.4-0.1,0.7H307.5z M309,46.9h-1.6v-1.3h1.6V46.9z"/>
	</g>
</g>
<g>
	<g class="st2">
		<path class="st3" d="M58.2,68.4c0-1.4,0.3-2.6,0.8-3.6s1.2-1.6,1.8-1.9h0l0.3,0.8c-0.5,0.4-0.9,0.9-1.2,1.7s-0.5,1.8-0.5,3v0.1
			c0,1.2,0.2,2.2,0.5,3c0.3,0.8,0.7,1.3,1.2,1.7L60.9,74h0c-0.7-0.3-1.3-0.9-1.8-1.9s-0.8-2.2-0.8-3.6V68.4z"/>
		<path class="st3" d="M68.1,66.4H67l-0.2-1c-0.2-0.2-0.3-0.3-0.6-0.4c-0.2-0.1-0.5-0.1-0.8-0.1c-0.7,0-1.2,0.2-1.6,0.7
			c-0.4,0.5-0.6,1.1-0.6,1.9v0.3c0,0.8,0.2,1.4,0.5,1.9s0.9,0.7,1.5,0.7c0.3,0,0.6,0,0.8-0.1c0.3-0.1,0.5-0.2,0.6-0.4l0.2-1h1.2v1.5
			c-0.3,0.4-0.7,0.7-1.2,0.9c-0.5,0.2-1,0.3-1.6,0.3c-1,0-1.9-0.4-2.6-1.1s-1-1.7-1-2.8v-0.3c0-1.1,0.3-2.1,1-2.8s1.5-1.1,2.6-1.1
			c0.6,0,1.2,0.1,1.6,0.3c0.5,0.2,0.9,0.5,1.2,0.9V66.4z"/>
		<path class="st3" d="M68.7,64.1v-0.9h2.4v7.3l0.8,0.2v0.9h-3.1v-0.9l0.8-0.2v-6.2L68.7,64.1z"/>
		<path class="st3" d="M72.4,70.6l0.8-0.2v-3.6l-0.8-0.2v-0.9h2.4v4.7l0.8,0.2v0.9h-3.1V70.6z M74.7,64.4h-1.6v-1.2h1.6V64.4z"/>
		<path class="st3" d="M78.7,70.5c0.3,0,0.5-0.1,0.7-0.2s0.3-0.4,0.3-0.7H81l0,0c0,0.6-0.2,1.1-0.7,1.5s-1,0.6-1.7,0.6
			c-0.9,0-1.5-0.3-2-0.8S76,69.6,76,68.7v-0.2c0-0.9,0.2-1.6,0.7-2.1c0.5-0.6,1.2-0.8,2.1-0.8c0.5,0,0.9,0.1,1.3,0.2
			c0.4,0.1,0.7,0.3,0.9,0.6l0,1.6h-1.3l-0.3-0.9c-0.1-0.1-0.2-0.1-0.3-0.2s-0.2-0.1-0.4-0.1c-0.4,0-0.8,0.2-0.9,0.5
			s-0.3,0.7-0.3,1.2v0.2c0,0.5,0.1,0.9,0.3,1.3C78,70.3,78.3,70.5,78.7,70.5z"/>
		<path class="st3" d="M81.6,64.1v-0.9H84V68h0.3l0.9-1.3l-0.5-0.1v-0.9h2.9v0.9l-0.7,0.2l-1,1.4l1.5,2.2l0.6,0.1v0.9h-2.7v-0.9
			l0.3-0.1l-0.9-1.4H84v1.3l0.7,0.2v0.9h-3v-0.9l0.8-0.2v-6.2L81.6,64.1z"/>
		<path class="st3" d="M93.5,64.3v1.4h1v1.1h-1v3c0,0.2,0,0.4,0.1,0.5s0.2,0.1,0.4,0.1c0.1,0,0.2,0,0.3,0c0.1,0,0.2,0,0.3,0l0.1,1.1
			c-0.2,0.1-0.3,0.1-0.5,0.1c-0.2,0-0.4,0-0.6,0c-0.5,0-1-0.1-1.2-0.4c-0.3-0.3-0.4-0.8-0.4-1.4v-3H91v-1.1h0.9v-1.4H93.5z"/>
		<path class="st3" d="M95.1,68.6c0-0.9,0.2-1.6,0.7-2.1c0.5-0.6,1.2-0.8,2-0.8c0.9,0,1.5,0.3,2,0.8c0.5,0.6,0.7,1.3,0.7,2.1v0.1
			c0,0.9-0.2,1.6-0.7,2.1c-0.5,0.5-1.2,0.8-2,0.8c-0.9,0-1.5-0.3-2-0.8c-0.5-0.5-0.7-1.3-0.7-2.1V68.6z M96.7,68.7
			c0,0.5,0.1,1,0.3,1.3s0.5,0.5,0.9,0.5c0.4,0,0.7-0.2,0.9-0.5c0.2-0.3,0.3-0.7,0.3-1.3v-0.1c0-0.5-0.1-0.9-0.3-1.3
			s-0.5-0.5-0.9-0.5s-0.7,0.2-0.9,0.5s-0.3,0.7-0.3,1.3V68.7z"/>
		<path class="st3" d="M103.8,64.1v-0.9h2.4v7.3l0.8,0.2v0.9h-3.1v-0.9l0.8-0.2v-6.2L103.8,64.1z"/>
		<path class="st3" d="M110.2,71.7c-0.8,0-1.5-0.3-2-0.8s-0.8-1.2-0.8-2v-0.2c0-0.9,0.2-1.6,0.7-2.1c0.5-0.6,1.1-0.8,1.9-0.8
			c0.8,0,1.4,0.2,1.8,0.7s0.6,1.1,0.6,1.9v0.9h-3.5l0,0c0,0.4,0.2,0.7,0.4,0.9c0.2,0.2,0.5,0.4,0.9,0.4c0.3,0,0.6,0,0.9-0.1
			c0.2-0.1,0.5-0.2,0.8-0.3l0.4,1c-0.2,0.2-0.6,0.3-0.9,0.5C111.1,71.6,110.7,71.7,110.2,71.7z M110.1,66.8c-0.3,0-0.5,0.1-0.7,0.3
			c-0.2,0.2-0.3,0.5-0.3,0.9l0,0h1.9v-0.1c0-0.3-0.1-0.6-0.2-0.8C110.7,66.9,110.4,66.8,110.1,66.8z"/>
		<path class="st3" d="M117,71.6c0-0.1-0.1-0.2-0.1-0.3c0-0.1-0.1-0.2-0.1-0.3c-0.2,0.2-0.4,0.4-0.7,0.5c-0.3,0.1-0.6,0.2-0.9,0.2
			c-0.6,0-1-0.2-1.4-0.5c-0.3-0.3-0.5-0.7-0.5-1.3c0-0.5,0.2-1,0.7-1.3s1.1-0.4,1.9-0.4h0.8v-0.6c0-0.3-0.1-0.5-0.2-0.6
			s-0.4-0.2-0.7-0.2c-0.2,0-0.3,0-0.5,0.1s-0.3,0.1-0.3,0.1l-0.1,0.6h-1.2l0-1.3c0.3-0.2,0.6-0.4,1-0.5c0.4-0.1,0.8-0.2,1.2-0.2
			c0.7,0,1.3,0.2,1.8,0.5c0.4,0.4,0.7,0.9,0.7,1.5v2.4c0,0.1,0,0.2,0,0.3c0,0.1,0,0.2,0,0.2l0.5,0.1v0.9H117z M115.7,70.5
			c0.2,0,0.5-0.1,0.6-0.2c0.2-0.1,0.3-0.2,0.5-0.4v-0.9H116c-0.3,0-0.6,0.1-0.8,0.2c-0.2,0.2-0.3,0.3-0.3,0.6c0,0.2,0.1,0.4,0.2,0.5
			C115.3,70.5,115.4,70.5,115.7,70.5z"/>
		<path class="st3" d="M119.5,70.6l0.8-0.2v-3.6l-0.8-0.2v-0.9h2.3l0.1,0.8c0.1-0.3,0.3-0.5,0.5-0.7c0.2-0.2,0.5-0.3,0.7-0.3
			c0.1,0,0.2,0,0.3,0c0.1,0,0.2,0,0.2,0l-0.2,1.4l-0.6,0c-0.2,0-0.4,0-0.6,0.1s-0.3,0.2-0.3,0.4v2.8l0.8,0.2v0.9h-3.1V70.6z"/>
		<path class="st3" d="M123.9,70.6l0.8-0.2v-3.6l-0.8-0.2v-0.9h2.3l0.1,0.8c0.2-0.3,0.4-0.5,0.7-0.7s0.6-0.2,1-0.2
			c0.6,0,1,0.2,1.4,0.6c0.3,0.4,0.5,0.9,0.5,1.7v2.5l0.8,0.2v0.9h-3v-0.9l0.7-0.2v-2.5c0-0.4-0.1-0.7-0.2-0.8s-0.4-0.2-0.7-0.2
			c-0.2,0-0.4,0-0.6,0.1s-0.3,0.2-0.4,0.4v3.1l0.6,0.2v0.9h-3V70.6z"/>
		<path class="st3" d="M137.4,71.6c0-0.1-0.1-0.2-0.1-0.3c0-0.1-0.1-0.2-0.1-0.3c-0.2,0.2-0.4,0.4-0.7,0.5c-0.3,0.1-0.6,0.2-0.9,0.2
			c-0.6,0-1-0.2-1.4-0.5c-0.3-0.3-0.5-0.7-0.5-1.3c0-0.5,0.2-1,0.7-1.3s1.1-0.4,1.9-0.4h0.8v-0.6c0-0.3-0.1-0.5-0.2-0.6
			s-0.4-0.2-0.7-0.2c-0.2,0-0.3,0-0.5,0.1s-0.3,0.1-0.3,0.1l-0.1,0.6h-1.2l0-1.3c0.3-0.2,0.6-0.4,1-0.5c0.4-0.1,0.8-0.2,1.2-0.2
			c0.7,0,1.3,0.2,1.8,0.5c0.4,0.4,0.7,0.9,0.7,1.5v2.4c0,0.1,0,0.2,0,0.3c0,0.1,0,0.2,0,0.2l0.5,0.1v0.9H137.4z M136,70.5
			c0.2,0,0.5-0.1,0.6-0.2c0.2-0.1,0.3-0.2,0.5-0.4v-0.9h-0.8c-0.3,0-0.6,0.1-0.8,0.2c-0.2,0.2-0.3,0.3-0.3,0.6
			c0,0.2,0.1,0.4,0.2,0.5C135.6,70.5,135.8,70.5,136,70.5z"/>
		<path class="st3" d="M145.2,68.8c0,0.9-0.2,1.6-0.6,2.1s-0.9,0.8-1.7,0.8c-0.3,0-0.6-0.1-0.9-0.2s-0.5-0.3-0.6-0.6l-0.1,0.7h-1.4
			v-7.3l-0.8-0.2v-0.9h2.4v3.2c0.2-0.2,0.4-0.4,0.6-0.5c0.2-0.1,0.5-0.2,0.8-0.2c0.7,0,1.3,0.3,1.7,0.8s0.6,1.3,0.6,2.2V68.8z
			 M143.6,68.7c0-0.6-0.1-1-0.2-1.3c-0.2-0.3-0.5-0.5-0.9-0.5c-0.2,0-0.4,0.1-0.6,0.2c-0.2,0.1-0.3,0.2-0.4,0.4v2.5
			c0.1,0.2,0.2,0.3,0.4,0.4c0.2,0.1,0.4,0.1,0.6,0.1c0.4,0,0.7-0.1,0.8-0.4c0.2-0.3,0.2-0.7,0.2-1.2V68.7z"/>
		<path class="st3" d="M145.9,68.6c0-0.9,0.2-1.6,0.7-2.1c0.5-0.6,1.2-0.8,2-0.8c0.9,0,1.5,0.3,2,0.8c0.5,0.6,0.7,1.3,0.7,2.1v0.1
			c0,0.9-0.2,1.6-0.7,2.1c-0.5,0.5-1.2,0.8-2,0.8c-0.9,0-1.5-0.3-2-0.8c-0.5-0.5-0.7-1.3-0.7-2.1V68.6z M147.5,68.7
			c0,0.5,0.1,1,0.3,1.3s0.5,0.5,0.9,0.5c0.4,0,0.7-0.2,0.9-0.5c0.2-0.3,0.3-0.7,0.3-1.3v-0.1c0-0.5-0.1-0.9-0.3-1.3
			s-0.5-0.5-0.9-0.5s-0.7,0.2-0.9,0.5s-0.3,0.7-0.3,1.3V68.7z"/>
		<path class="st3" d="M156.1,70.8c-0.2,0.3-0.4,0.5-0.7,0.6c-0.3,0.1-0.6,0.2-0.9,0.2c-0.6,0-1.1-0.2-1.4-0.6
			c-0.3-0.4-0.5-1-0.5-1.8v-2.4l-0.6-0.2v-0.9h0.6h1.6v3.5c0,0.4,0.1,0.7,0.2,0.9c0.1,0.2,0.4,0.3,0.6,0.3c0.2,0,0.5,0,0.6-0.1
			c0.2-0.1,0.3-0.2,0.4-0.3v-3.1l-0.7-0.2v-0.9h0.7h1.6v4.7l0.7,0.2v0.9h-2.1L156.1,70.8z"/>
		<path class="st3" d="M161.2,64.3v1.4h1v1.1h-1v3c0,0.2,0,0.4,0.1,0.5s0.2,0.1,0.4,0.1c0.1,0,0.2,0,0.3,0c0.1,0,0.2,0,0.3,0
			l0.1,1.1c-0.2,0.1-0.3,0.1-0.5,0.1c-0.2,0-0.4,0-0.6,0c-0.5,0-1-0.1-1.2-0.4c-0.3-0.3-0.4-0.8-0.4-1.4v-3h-0.9v-1.1h0.9v-1.4
			H161.2z"/>
		<path class="st3" d="M168,64.3v1.4h1v1.1h-1v3c0,0.2,0,0.4,0.1,0.5s0.2,0.1,0.4,0.1c0.1,0,0.2,0,0.3,0c0.1,0,0.2,0,0.3,0l0.1,1.1
			c-0.2,0.1-0.3,0.1-0.5,0.1c-0.2,0-0.4,0-0.6,0c-0.5,0-1-0.1-1.2-0.4c-0.3-0.3-0.4-0.8-0.4-1.4v-3h-0.9v-1.1h0.9v-1.4H168z"/>
		<path class="st3" d="M169.7,70.6l0.8-0.2v-6.2l-0.8-0.2v-0.9h2.4v3.3c0.2-0.3,0.4-0.5,0.7-0.6s0.6-0.2,0.9-0.2
			c0.6,0,1.1,0.2,1.4,0.6c0.3,0.4,0.5,1,0.5,1.9v2.3l0.8,0.2v0.9h-3v-0.9l0.7-0.2v-2.4c0-0.5-0.1-0.8-0.2-1
			c-0.2-0.2-0.4-0.3-0.7-0.3c-0.2,0-0.4,0-0.6,0.1c-0.2,0.1-0.3,0.2-0.4,0.3v3.1l0.7,0.2v0.9h-3V70.6z"/>
		<path class="st3" d="M179.5,71.7c-0.8,0-1.5-0.3-2-0.8s-0.8-1.2-0.8-2v-0.2c0-0.9,0.2-1.6,0.7-2.1c0.5-0.6,1.1-0.8,1.9-0.8
			c0.8,0,1.4,0.2,1.8,0.7s0.6,1.1,0.6,1.9v0.9h-3.5l0,0c0,0.4,0.2,0.7,0.4,0.9c0.2,0.2,0.5,0.4,0.9,0.4c0.3,0,0.6,0,0.9-0.1
			c0.2-0.1,0.5-0.2,0.8-0.3l0.4,1c-0.2,0.2-0.6,0.3-0.9,0.5C180.4,71.6,180,71.7,179.5,71.7z M179.4,66.8c-0.3,0-0.5,0.1-0.7,0.3
			c-0.2,0.2-0.3,0.5-0.3,0.9l0,0h1.9v-0.1c0-0.3-0.1-0.6-0.2-0.8C179.9,66.9,179.7,66.8,179.4,66.8z"/>
		<path class="st3" d="M191.7,66.4h-1.2l-0.2-1c-0.2-0.2-0.3-0.3-0.6-0.4c-0.2-0.1-0.5-0.1-0.8-0.1c-0.7,0-1.2,0.2-1.6,0.7
			c-0.4,0.5-0.6,1.1-0.6,1.9v0.3c0,0.8,0.2,1.4,0.5,1.9s0.9,0.7,1.5,0.7c0.3,0,0.6,0,0.8-0.1s0.5-0.2,0.6-0.4l0.2-1h1.2v1.5
			c-0.3,0.4-0.7,0.7-1.2,0.9c-0.5,0.2-1,0.3-1.6,0.3c-1,0-1.9-0.4-2.6-1.1c-0.7-0.7-1-1.7-1-2.8v-0.3c0-1.1,0.3-2.1,1-2.8
			s1.5-1.1,2.6-1.1c0.6,0,1.2,0.1,1.6,0.3c0.5,0.2,0.9,0.5,1.2,0.9V66.4z"/>
		<path class="st3" d="M192.4,68.6c0-0.9,0.2-1.6,0.7-2.1c0.5-0.6,1.2-0.8,2-0.8c0.9,0,1.5,0.3,2,0.8s0.7,1.3,0.7,2.1v0.1
			c0,0.9-0.2,1.6-0.7,2.1s-1.2,0.8-2,0.8c-0.9,0-1.5-0.3-2-0.8s-0.7-1.3-0.7-2.1V68.6z M194,68.7c0,0.5,0.1,1,0.3,1.3
			c0.2,0.3,0.5,0.5,0.9,0.5c0.4,0,0.7-0.2,0.9-0.5c0.2-0.3,0.3-0.7,0.3-1.3v-0.1c0-0.5-0.1-0.9-0.3-1.3c-0.2-0.3-0.5-0.5-0.9-0.5
			s-0.7,0.2-0.9,0.5c-0.2,0.3-0.3,0.7-0.3,1.3V68.7z"/>
		<path class="st3" d="M202.3,71.6c0-0.1-0.1-0.2-0.1-0.3c0-0.1-0.1-0.2-0.1-0.3c-0.2,0.2-0.4,0.4-0.7,0.5s-0.6,0.2-0.9,0.2
			c-0.6,0-1-0.2-1.4-0.5c-0.3-0.3-0.5-0.7-0.5-1.3c0-0.5,0.2-1,0.7-1.3c0.4-0.3,1.1-0.4,1.9-0.4h0.8v-0.6c0-0.3-0.1-0.5-0.2-0.6
			s-0.4-0.2-0.7-0.2c-0.2,0-0.3,0-0.5,0.1s-0.3,0.1-0.3,0.1l-0.1,0.6H199l0-1.3c0.3-0.2,0.6-0.4,1-0.5c0.4-0.1,0.8-0.2,1.2-0.2
			c0.7,0,1.3,0.2,1.8,0.5s0.7,0.9,0.7,1.5v2.4c0,0.1,0,0.2,0,0.3c0,0.1,0,0.2,0,0.2l0.5,0.1v0.9H202.3z M200.9,70.5
			c0.2,0,0.5-0.1,0.6-0.2c0.2-0.1,0.3-0.2,0.5-0.4v-0.9h-0.8c-0.3,0-0.6,0.1-0.8,0.2c-0.2,0.2-0.3,0.3-0.3,0.6
			c0,0.2,0.1,0.4,0.2,0.5S200.7,70.5,200.9,70.5z"/>
		<path class="st3" d="M204.5,64.1v-0.9h2.4v7.3l0.8,0.2v0.9h-3.1v-0.9l0.8-0.2v-6.2L204.5,64.1z"/>
		<path class="st3" d="M208.1,70.6l0.8-0.2v-3.6l-0.8-0.2v-0.9h2.4v4.7l0.8,0.2v0.9h-3.1V70.6z M210.4,64.4h-1.6v-1.2h1.6V64.4z"/>
		<path class="st3" d="M214,64.3v1.4h1v1.1h-1v3c0,0.2,0,0.4,0.1,0.5c0.1,0.1,0.2,0.1,0.4,0.1c0.1,0,0.2,0,0.3,0c0.1,0,0.2,0,0.3,0
			l0.1,1.1c-0.2,0.1-0.3,0.1-0.5,0.1c-0.2,0-0.4,0-0.6,0c-0.5,0-1-0.1-1.2-0.4s-0.4-0.8-0.4-1.4v-3h-0.9v-1.1h0.9v-1.4H214z"/>
		<path class="st3" d="M215.8,70.6l0.8-0.2v-3.6l-0.8-0.2v-0.9h2.4v4.7l0.8,0.2v0.9h-3.1V70.6z M218.1,64.4h-1.6v-1.2h1.6V64.4z"/>
		<path class="st3" d="M219.3,68.6c0-0.9,0.2-1.6,0.7-2.1c0.5-0.6,1.2-0.8,2-0.8c0.9,0,1.5,0.3,2,0.8s0.7,1.3,0.7,2.1v0.1
			c0,0.9-0.2,1.6-0.7,2.1s-1.2,0.8-2,0.8c-0.9,0-1.5-0.3-2-0.8s-0.7-1.3-0.7-2.1V68.6z M220.9,68.7c0,0.5,0.1,1,0.3,1.3
			c0.2,0.3,0.5,0.5,0.9,0.5c0.4,0,0.7-0.2,0.9-0.5c0.2-0.3,0.3-0.7,0.3-1.3v-0.1c0-0.5-0.1-0.9-0.3-1.3c-0.2-0.3-0.5-0.5-0.9-0.5
			s-0.7,0.2-0.9,0.5c-0.2,0.3-0.3,0.7-0.3,1.3V68.7z"/>
		<path class="st3" d="M225.4,70.6l0.8-0.2v-3.6l-0.8-0.2v-0.9h2.3l0.1,0.8c0.2-0.3,0.4-0.5,0.7-0.7c0.3-0.2,0.6-0.2,1-0.2
			c0.6,0,1,0.2,1.4,0.6c0.3,0.4,0.5,0.9,0.5,1.7v2.5l0.8,0.2v0.9h-3v-0.9l0.7-0.2v-2.5c0-0.4-0.1-0.7-0.2-0.8
			c-0.2-0.2-0.4-0.2-0.7-0.2c-0.2,0-0.4,0-0.6,0.1c-0.2,0.1-0.3,0.2-0.4,0.4v3.1l0.6,0.2v0.9h-3V70.6z"/>
		<path class="st3" d="M235.3,70.6l0.8-0.2v-3.6h-0.9v-1.1h0.9v-0.6c0-0.7,0.2-1.2,0.6-1.5s0.9-0.5,1.6-0.5c0.1,0,0.3,0,0.4,0
			c0.1,0,0.3,0,0.5,0.1l-0.1,1.2c-0.1,0-0.2,0-0.2,0c-0.1,0-0.2,0-0.3,0c-0.3,0-0.4,0.1-0.6,0.2s-0.2,0.3-0.2,0.6v0.6h1.2v1.1h-1.2
			v3.6l0.8,0.2v0.9h-3.1V70.6z"/>
		<path class="st3" d="M239.3,68.6c0-0.9,0.2-1.6,0.7-2.1c0.5-0.6,1.2-0.8,2-0.8c0.9,0,1.5,0.3,2,0.8s0.7,1.3,0.7,2.1v0.1
			c0,0.9-0.2,1.6-0.7,2.1s-1.2,0.8-2,0.8c-0.9,0-1.5-0.3-2-0.8s-0.7-1.3-0.7-2.1V68.6z M240.9,68.7c0,0.5,0.1,1,0.3,1.3
			c0.2,0.3,0.5,0.5,0.9,0.5c0.4,0,0.7-0.2,0.9-0.5c0.2-0.3,0.3-0.7,0.3-1.3v-0.1c0-0.5-0.1-0.9-0.3-1.3c-0.2-0.3-0.5-0.5-0.9-0.5
			s-0.7,0.2-0.9,0.5c-0.2,0.3-0.3,0.7-0.3,1.3V68.7z"/>
		<path class="st3" d="M245.6,70.6l0.8-0.2v-3.6l-0.8-0.2v-0.9h2.3l0.1,0.8c0.1-0.3,0.3-0.5,0.5-0.7c0.2-0.2,0.5-0.3,0.7-0.3
			c0.1,0,0.2,0,0.3,0c0.1,0,0.2,0,0.2,0l-0.2,1.4l-0.6,0c-0.2,0-0.4,0-0.6,0.1s-0.3,0.2-0.3,0.4v2.8l0.8,0.2v0.9h-3.1V70.6z"/>
		<path class="st3" d="M256.2,63.7c0.9,0,1.6,0.2,2.2,0.5s0.8,0.9,0.8,1.6c0,0.4-0.1,0.7-0.3,1c-0.2,0.3-0.5,0.5-0.8,0.6
			c0.5,0.1,0.8,0.3,1.1,0.6c0.2,0.3,0.4,0.7,0.4,1.1c0,0.7-0.2,1.3-0.7,1.7s-1.2,0.6-2.1,0.6h-3.8v-0.9l0.8-0.2v-5.6l-0.8-0.2v-0.9
			h0.8H256.2z M255.1,67h1.1c0.4,0,0.7-0.1,1-0.3s0.3-0.4,0.3-0.8c0-0.4-0.1-0.6-0.3-0.8s-0.6-0.3-1-0.3h-1.1V67z M255.1,68.1v2.3
			h1.4c0.4,0,0.7-0.1,1-0.3c0.2-0.2,0.3-0.4,0.3-0.8c0-0.4-0.1-0.7-0.3-0.9c-0.2-0.2-0.5-0.3-0.9-0.3H255.1z"/>
		<path class="st3" d="M262.8,71.7c-0.8,0-1.5-0.3-2-0.8c-0.5-0.5-0.8-1.2-0.8-2v-0.2c0-0.9,0.2-1.6,0.7-2.1
			c0.5-0.6,1.1-0.8,1.9-0.8c0.8,0,1.4,0.2,1.8,0.7c0.4,0.5,0.6,1.1,0.6,1.9v0.9h-3.5l0,0c0,0.4,0.2,0.7,0.4,0.9
			c0.2,0.2,0.5,0.4,0.9,0.4c0.3,0,0.6,0,0.9-0.1c0.2-0.1,0.5-0.2,0.8-0.3l0.4,1c-0.2,0.2-0.6,0.3-0.9,0.5
			C263.7,71.6,263.3,71.7,262.8,71.7z M262.7,66.8c-0.3,0-0.5,0.1-0.7,0.3c-0.2,0.2-0.3,0.5-0.3,0.9l0,0h1.9v-0.1
			c0-0.3-0.1-0.6-0.2-0.8C263.2,66.9,263,66.8,262.7,66.8z"/>
		<path class="st3" d="M268.2,64.3v1.4h1v1.1h-1v3c0,0.2,0,0.4,0.1,0.5c0.1,0.1,0.2,0.1,0.4,0.1c0.1,0,0.2,0,0.3,0
			c0.1,0,0.2,0,0.3,0l0.1,1.1c-0.2,0.1-0.3,0.1-0.5,0.1c-0.2,0-0.4,0-0.6,0c-0.5,0-1-0.1-1.2-0.4c-0.3-0.3-0.4-0.8-0.4-1.4v-3h-0.9
			v-1.1h0.9v-1.4H268.2z"/>
		<path class="st3" d="M272.3,64.3v1.4h1v1.1h-1v3c0,0.2,0,0.4,0.1,0.5c0.1,0.1,0.2,0.1,0.4,0.1c0.1,0,0.2,0,0.3,0
			c0.1,0,0.2,0,0.3,0l0.1,1.1c-0.2,0.1-0.3,0.1-0.5,0.1c-0.2,0-0.4,0-0.6,0c-0.5,0-1-0.1-1.2-0.4c-0.3-0.3-0.4-0.8-0.4-1.4v-3h-0.9
			v-1.1h0.9v-1.4H272.3z"/>
		<path class="st3" d="M276.9,71.7c-0.8,0-1.5-0.3-2-0.8c-0.5-0.5-0.8-1.2-0.8-2v-0.2c0-0.9,0.2-1.6,0.7-2.1s1.1-0.8,1.9-0.8
			c0.8,0,1.4,0.2,1.8,0.7c0.4,0.5,0.7,1.1,0.7,1.9v0.9h-3.5l0,0c0,0.4,0.2,0.7,0.4,0.9s0.5,0.4,0.9,0.4c0.3,0,0.6,0,0.9-0.1
			c0.2-0.1,0.5-0.2,0.8-0.3l0.4,1c-0.2,0.2-0.6,0.3-0.9,0.5C277.8,71.6,277.4,71.7,276.9,71.7z M276.8,66.8c-0.3,0-0.5,0.1-0.7,0.3
			c-0.2,0.2-0.3,0.5-0.3,0.9l0,0h1.9v-0.1c0-0.3-0.1-0.6-0.2-0.8C277.3,66.9,277.1,66.8,276.8,66.8z"/>
		<path class="st3" d="M280.1,70.6l0.8-0.2v-3.6l-0.8-0.2v-0.9h2.3l0.1,0.8c0.1-0.3,0.3-0.5,0.5-0.7c0.2-0.2,0.5-0.3,0.7-0.3
			c0.1,0,0.2,0,0.3,0c0.1,0,0.2,0,0.2,0l-0.2,1.4l-0.6,0c-0.2,0-0.4,0-0.6,0.1s-0.3,0.2-0.3,0.4v2.8l0.8,0.2v0.9h-3.1V70.6z"/>
		<path class="st3" d="M287.2,70.6l0.6-0.1l2.4-6.8h1.6l2.4,6.8l0.6,0.1v0.9H292v-0.9l0.5-0.1l-0.3-1.1h-2.5l-0.3,1.1l0.5,0.1v0.9
			h-2.7V70.6z M290,68.3h1.8l-0.9-2.8h0L290,68.3z"/>
		<path class="st3" d="M299,70.8c-0.2,0.3-0.4,0.5-0.6,0.6c-0.2,0.1-0.5,0.2-0.9,0.2c-0.7,0-1.3-0.3-1.7-0.8
			c-0.4-0.5-0.6-1.2-0.6-2.1v-0.1c0-0.9,0.2-1.7,0.6-2.2c0.4-0.6,1-0.8,1.7-0.8c0.3,0,0.6,0.1,0.8,0.2c0.2,0.1,0.4,0.3,0.6,0.5v-2.1
			l-0.8-0.2v-0.9h0.8h1.6v7.3l0.8,0.2v0.9h-2.1L299,70.8z M296.8,68.8c0,0.5,0.1,0.9,0.3,1.2c0.2,0.3,0.4,0.4,0.8,0.4
			c0.2,0,0.4,0,0.6-0.1c0.2-0.1,0.3-0.2,0.4-0.4v-2.5c-0.1-0.2-0.2-0.3-0.4-0.4c-0.2-0.1-0.4-0.2-0.6-0.2c-0.4,0-0.7,0.2-0.8,0.5
			c-0.2,0.3-0.3,0.8-0.3,1.3V68.8z"/>
		<path class="st3" d="M306.5,67.7h-1.1l-0.2-0.7c-0.1-0.1-0.2-0.2-0.4-0.2c-0.2-0.1-0.3-0.1-0.5-0.1c-0.3,0-0.5,0.1-0.7,0.2
			c-0.2,0.1-0.2,0.3-0.2,0.5c0,0.2,0.1,0.3,0.2,0.4c0.2,0.1,0.5,0.2,0.9,0.3c0.7,0.1,1.3,0.4,1.6,0.6c0.3,0.3,0.5,0.7,0.5,1.1
			c0,0.5-0.2,1-0.7,1.3c-0.5,0.3-1,0.5-1.8,0.5c-0.4,0-0.9-0.1-1.2-0.2c-0.4-0.1-0.7-0.3-1-0.6l0-1.3h1.1l0.2,0.8
			c0.1,0.1,0.2,0.1,0.4,0.2c0.2,0,0.3,0.1,0.5,0.1c0.3,0,0.6-0.1,0.7-0.2c0.2-0.1,0.2-0.3,0.2-0.5c0-0.2-0.1-0.3-0.3-0.4
			c-0.2-0.1-0.5-0.2-0.9-0.3c-0.7-0.1-1.2-0.3-1.5-0.6c-0.3-0.3-0.5-0.6-0.5-1.1c0-0.5,0.2-0.9,0.6-1.3c0.4-0.4,1-0.5,1.7-0.5
			c0.5,0,0.9,0.1,1.3,0.2c0.4,0.1,0.7,0.3,0.9,0.5L306.5,67.7z"/>
		<path class="st3" d="M310.4,68.5c0,1.4-0.3,2.6-0.8,3.6c-0.6,1-1.2,1.6-1.9,1.9h0l-0.3-0.8c0.5-0.4,0.9-0.9,1.2-1.7s0.5-1.8,0.5-3
			v-0.1c0-1.2-0.2-2.2-0.5-3c-0.3-0.8-0.7-1.4-1.2-1.7l0.3-0.8h0c0.7,0.3,1.3,0.9,1.9,1.9c0.6,1,0.8,2.2,0.8,3.6V68.5z"/>
	</g>
</g>
</svg>
