<?xml version="1.0" encoding="utf-8"?>
<!-- Generator: Adobe Illustrator 22.0.1, SVG Export Plug-In . SVG Version: 6.00 Build 0)  -->
<!DOCTYPE svg PUBLIC "-//W3C//DTD SVG 1.1//EN" "http://www.w3.org/Graphics/SVG/1.1/DTD/svg11.dtd">
<svg version="1.1" id="Layer_1" xmlns="http://www.w3.org/2000/svg" xmlns:xlink="http://www.w3.org/1999/xlink" x="0px" y="0px"
	 viewBox="0 0 368.1 103.8" style="enable-background:new 0 0 368.1 103.8;" xml:space="preserve">
<style type="text/css">
	.st0{fill:#482FDF;}
	.st1{fill:#F0F0F0;}
	.st2{fill:#FFFFFF;}
	.st3{font-family:'RobotoSlab-Bold';}
	.st4{font-size:11px;}
</style>
<g>
	<path class="st0" d="M368.1,4.7v94.9c0,4.2,0,4.2-13.3,4.2H13.3C0,103.8,0,103.8,0,99.6V4.7C0,0,0,0,13.3,0h341.5
		C368.1,0,368.1,0,368.1,4.7z"/>
	<path class="st1" d="M0,9.6V4.7C0,0,0,0,13.3,0h341.5c13.3,0,13.3,0,13.3,4.7v4.7"/>
	<ellipse class="st0" cx="7" cy="5.4" rx="2.3" ry="2.3"/>
</g>
<g>
	<text transform="matrix(1 0 0 1 57.2366 46.8884)" class="st2 st3 st4">you definitely want this unrelated ad here, right?</text>
</g>
<g>
	<text transform="matrix(1 0 0 1 57.7493 71.555)" class="st2 st3 st4">(Click to learn about the Coalition for Better Ads)</text>
</g>
</svg>
